<svg width="11" height="10" viewBox="0 0 11 10" fill="none" xmlns="http://www.w3.org/2000/svg">
<path d="M9.45421 6.94444C8.75977 6.94444 8.0931 6.83333 7.47088 6.62778C7.27643 6.56667 7.05977 6.61111 6.90421 6.76111L5.68199 7.98333C4.10977 7.18333 2.82088 5.9 2.02088 4.32222L3.2431 3.09444C3.39865 2.95 3.4431 2.73333 3.38199 2.53889C3.17643 1.91667 3.06532 1.25 3.06532 0.555556C3.06532 0.25 2.81532 0 2.50977 0H0.565321C0.259766 0 0.00976562 0.25 0.00976562 0.555556C0.00976562 5.77222 4.23754 10 9.45421 10C9.75977 10 10.0098 9.75 10.0098 9.44444V7.5C10.0098 7.19444 9.75977 6.94444 9.45421 6.94444Z" fill="#5C9EFF"/>
</svg>
