<svg width="12" height="15" viewBox="0 0 12 15" fill="none" xmlns="http://www.w3.org/2000/svg">
<path d="M5.83496 1.33331C8.48893 1.33331 10.6604 3.44442 10.6604 6.03807C10.6604 7.09363 10.2985 8.05871 9.69528 8.84283" stroke="#5C9EFF" stroke-width="2" stroke-miterlimit="10" stroke-linecap="round" stroke-linejoin="round"/>
<path d="M5.83508 7.54633C6.66789 7.54633 7.34302 6.8712 7.34302 6.03839C7.34302 5.20558 6.66789 4.53046 5.83508 4.53046C5.00227 4.53046 4.32715 5.20558 4.32715 6.03839C4.32715 6.8712 5.00227 7.54633 5.83508 7.54633Z" fill="#5C9EFF" stroke="#5C9EFF" stroke-width="2" stroke-miterlimit="10" stroke-linecap="round" stroke-linejoin="round"/>
<path d="M5.83496 14L9.69528 8.87299" stroke="#5C9EFF" stroke-width="2" stroke-miterlimit="10" stroke-linecap="round" stroke-linejoin="round"/>
<path d="M5.83516 1.33331C3.18119 1.33331 1.00977 3.44442 1.00977 6.03807C1.00977 7.09363 1.37167 8.05871 1.97484 8.84283" stroke="#5C9EFF" stroke-width="2" stroke-miterlimit="10" stroke-linecap="round" stroke-linejoin="round"/>
<path d="M5.83493 14L1.97461 8.87299" stroke="#5C9EFF" stroke-width="2" stroke-miterlimit="10" stroke-linecap="round" stroke-linejoin="round"/>
</svg>
