<svg width="16" height="16" viewBox="0 0 16 16" fill="none" xmlns="http://www.w3.org/2000/svg">
<path d="M8.71198 15C8.23753 15 7.76923 15 7.29478 15C7.23932 14.9815 7.18386 14.9569 7.12225 14.9507C4.23854 14.5995 1.80463 12.3874 1.19462 9.55915C1.12684 9.23874 1.07138 8.91833 1.00977 8.59792C1.00977 8.20972 1.00977 7.81537 1.00977 7.42718C1.02825 7.34708 1.05906 7.27313 1.06522 7.19303C1.44725 3.98891 3.91196 1.49339 7.12225 1.06207C10.6529 0.587609 13.9988 2.87979 14.8245 6.34887C14.9354 6.80484 14.9847 7.27313 15.0586 7.72911C15.0586 7.80921 15.0586 7.89547 15.0586 7.97558C15.0401 8.1173 15.0216 8.25902 15.0093 8.40074C14.7567 11.3399 13.2655 13.3918 10.5482 14.5255C9.96899 14.7659 9.32816 14.846 8.71198 15ZM13.2286 11.4015C13.2039 11.3892 13.1793 11.383 13.1546 11.3707C13.1177 11.229 13.0252 11.0688 13.0622 10.9456C13.0868 10.8716 13.3087 10.8654 13.4381 10.8162C13.5058 10.7915 13.5921 10.7607 13.6229 10.7052C13.6969 10.582 13.7523 10.4464 13.8016 10.3109C14.0358 9.68855 14.2144 9.05389 14.2206 8.33296C14.0419 8.33296 13.894 8.33912 13.74 8.33296C13.5428 8.32064 13.4073 8.21589 13.4011 8.00639C13.3949 7.79072 13.5367 7.69214 13.7338 7.67981C13.8817 7.66749 14.0358 7.67981 14.1898 7.67981C14.2083 7.60587 14.2206 7.56274 14.2206 7.52577C14.1775 6.75555 13.9618 6.03462 13.6476 5.33834C13.5736 5.17197 13.4627 5.19662 13.321 5.20894C13.2347 5.2151 13.0992 5.15965 13.0684 5.09187C13.0314 5.01176 13.0622 4.88237 13.0992 4.78994C13.1177 4.74065 13.2162 4.716 13.284 4.68519C12.7541 3.88416 12.1564 3.26182 11.4047 2.84282C11.2445 2.9106 11.0473 3.00919 10.9302 2.94757C10.8316 2.89827 10.8316 2.66413 10.7639 2.42998C10.0737 2.08492 9.25422 1.83845 8.34844 1.81996C8.34844 1.99249 8.34844 2.12805 8.34844 2.25745C8.3546 2.47311 8.2745 2.62716 8.04035 2.62716C7.81236 2.63332 7.71994 2.48544 7.70145 2.26977C7.65832 1.76451 7.65216 1.76451 7.15305 1.85077C7.08528 1.8631 7.01133 1.86926 6.93739 1.88158C6.32738 1.99866 5.72969 2.17118 5.22442 2.51624C5.21826 2.68261 5.19977 2.92292 5.12583 2.94141C4.97179 2.97838 4.7931 2.89827 4.55279 2.85514C3.94893 3.20636 3.11709 4.05669 2.85214 4.58044C2.91375 4.77145 3.01234 4.9255 2.99386 5.0549C2.95689 5.2644 2.76587 5.22126 2.59334 5.20894C2.53172 5.20278 2.41465 5.30753 2.39 5.38147C2.20515 5.96684 2.00797 6.54604 1.87858 7.14374C1.76766 7.63052 1.80463 7.63668 2.29141 7.68597C2.50092 7.70446 2.66112 7.80921 2.65496 8.02487C2.65496 8.22821 2.50092 8.3268 2.30374 8.33912C2.2298 8.34528 2.16202 8.34528 2.08808 8.33912C1.86009 8.3268 1.77999 8.45003 1.82928 8.64721C2.00797 9.31884 2.19899 9.98432 2.39 10.6498C2.43314 10.8038 2.52556 10.8531 2.69193 10.8038C2.90143 10.7361 3.02467 10.8716 3.0185 11.0565C3.0185 11.1674 2.90143 11.2721 2.81517 11.4138C3.2773 12.1409 3.89348 12.7571 4.64521 13.1884C4.79926 13.1145 4.97179 13.0344 5.10735 13.0652C5.29836 13.1145 5.24907 13.2932 5.20593 13.4534C5.19361 13.4965 5.25523 13.589 5.30452 13.6074C6.04394 13.9587 6.808 14.1866 7.65216 14.2113C7.66448 14.1127 7.68913 14.0326 7.68913 13.9525C7.68913 13.6999 7.65832 13.4041 8.00338 13.3918C8.36076 13.3795 8.33612 13.6814 8.33612 13.9279C8.33612 14.0881 8.36076 14.2175 8.57026 14.199C9.37746 14.1312 10.1354 13.9155 10.8131 13.515C10.8255 13.3486 10.8316 13.1145 10.9241 13.0714C11.0411 13.0159 11.2383 13.1083 11.3985 13.1391C11.3985 13.17 11.3985 13.1946 11.3985 13.2254C12.1441 12.7448 12.7479 12.1348 13.2286 11.4015Z" fill="#5C9EFF" stroke="#5C9EFF" stroke-width="0.5" stroke-miterlimit="10"/>
<path d="M8.29309 5.27678C8.29309 5.88064 8.28693 6.48449 8.29309 7.09451C8.29925 7.55664 8.42865 7.67988 8.87846 7.67988C9.56858 7.67988 10.2525 7.68604 10.9427 7.67988C11.183 7.67988 11.3863 7.73533 11.3863 8.01877C11.3863 8.29605 11.1706 8.33302 10.9488 8.33302C10.2587 8.33302 9.57474 8.32686 8.89078 8.34535C8.73058 8.35151 8.55805 8.41313 8.42249 8.49939C8.13289 8.67808 7.80015 8.67192 7.57833 8.44393C7.3565 8.21595 7.36883 7.89554 7.566 7.60593C7.65843 7.46421 7.73237 7.27936 7.73237 7.10683C7.74469 5.92993 7.73853 4.74687 7.73853 3.56997C7.73853 3.48987 7.70772 3.38512 7.75086 3.32966C7.8248 3.22491 7.93571 3.08319 8.02814 3.08319C8.1144 3.08319 8.27461 3.2434 8.28077 3.34199C8.30542 3.80412 8.29309 4.26625 8.29309 4.72838C8.29309 4.90708 8.29309 5.09193 8.29309 5.27678Z" fill="#5C9EFF" stroke="#5C9EFF" stroke-width="0.5" stroke-miterlimit="10"/>
</svg>
