<?xml version="1.0" standalone="no"?>
<!DOCTYPE svg PUBLIC "-//W3C//DTD SVG 20010904//EN"
 "http://www.w3.org/TR/2001/REC-SVG-20010904/DTD/svg10.dtd">
<svg version="1.0" xmlns="http://www.w3.org/2000/svg"
 width="1280.000000pt" height="1218.000000pt" viewBox="0 0 1280.000000 1218.000000"
 preserveAspectRatio="xMidYMid meet">
<g transform="translate(0.000000,1218.000000) scale(0.100000,-0.100000)"
fill="#000000" stroke="none">
<path d="M12105 12169 c-22 -6 -71 -17 -110 -25 -91 -20 -257 -100 -320 -155
-181 -158 -1690 -1571 -4020 -3764 -2067 -1945 -2555 -2404 -3315 -3110 -283
-263 -563 -527 -622 -587 -59 -59 -119 -110 -133 -114 -20 -5 -56 8 -143 49
-112 53 -2408 1044 -2865 1236 -119 51 -241 96 -270 101 -58 9 -130 -1 -176
-24 -44 -23 -94 -88 -115 -149 -18 -54 -18 -55 4 -123 28 -84 49 -128 105
-213 48 -74 308 -527 710 -1241 923 -1638 1264 -2230 1692 -2935 251 -412 481
-785 512 -829 102 -142 221 -235 344 -267 83 -22 104 -21 188 5 99 30 163 68
230 137 61 63 76 85 241 354 274 447 491 779 878 1345 1523 2224 3477 4670
7230 9050 295 344 549 645 566 670 35 51 84 173 84 209 0 13 -10 51 -22 84
-29 81 -106 163 -195 209 -148 77 -358 115 -478 87z"/>
</g>
</svg>
