<?xml version="1.0" encoding="UTF-8" standalone="no"?>
<svg
   xmlns:dc="http://purl.org/dc/elements/1.1/"
   xmlns:cc="http://creativecommons.org/ns#"
   xmlns:rdf="http://www.w3.org/1999/02/22-rdf-syntax-ns#"
   xmlns:svg="http://www.w3.org/2000/svg"
   xmlns="http://www.w3.org/2000/svg"
   viewBox="0 0 784.4267 387.86667"
   height="387.86667"
   width="784.4267"
   xml:space="preserve"
   id="svg2"
   version="1.1"><metadata
     id="metadata8"><rdf:RDF><cc:Work
         rdf:about=""><dc:format>image/svg+xml</dc:format><dc:type
           rdf:resource="http://purl.org/dc/dcmitype/StillImage" /></cc:Work></rdf:RDF></metadata><defs
     id="defs6" /><g
     transform="matrix(1.3333333,0,0,-1.3333333,0,387.86667)"
     id="g10"><g
       transform="scale(0.1)"
       id="g12"><path
         id="path14"
         style="fill:#5b97d7;fill-opacity:1;fill-rule:evenodd;stroke:none"
         d="m 2223.85,167.93 c 29.55,-12.899 53.37,-59.258 53.37,-104.3011 0,-44.7305 -24.64,-72.48046 -55.49,-61.05859 -30.53,12.39849 -55.5,60.89059 -54.52,106.58969 0.81,45.871 26.77,71.66 56.64,58.77" /><path
         id="path16"
         style="fill:#ed0a8c;fill-opacity:1;fill-rule:evenodd;stroke:none"
         d="m 2227.93,491.961 c 27.91,-14.539 50.59,-58.609 50.59,-99.422 -0.31,-40.801 -23.33,-63.66 -52.72,-49.949 -28.73,13.879 -52.23,60.242 -51.25,101.531 0.49,41.481 25.15,62.02 53.38,47.84" /><path
         id="path18"
         style="fill:#efee0e;fill-opacity:1;fill-rule:evenodd;stroke:none"
         d="m 2231.03,786.738 c 26.76,-15.648 48.31,-57.769 48.31,-94.988 -0.31,-37.219 -22.36,-55.828 -49.77,-40.648 -27.27,15.347 -50.28,59.257 -49.15,97.277 0.65,37.723 23.52,54.699 50.61,38.359" /><path
         id="path20"
         style="fill:#1e1c1b;fill-opacity:1;fill-rule:evenodd;stroke:none"
         d="m 2233.96,1056.42 c 25.64,-16.65 46.37,-56.971 46.03,-91.092 0,-34.117 -21.04,-49.617 -47.34,-33.137 -26.44,16.02 -47.5,58.77 -46.99,93.369 0.65,34.12 22.68,47.67 48.3,30.86" /><path
         id="path22"
         style="fill:#5b97d7;fill-opacity:1;fill-rule:evenodd;stroke:none"
         d="m 1985.35,276.961 c 35.42,-15.34 62.03,-67.57 59.91,-117.859 -2.12,-50.25 -32.81,-81.2817 -69.7,-66.9028 -36.89,14.1918 -65.29,69.5308 -62.03,120.9488 3.45,51.09 36.24,79.161 71.82,63.813" /><path
         id="path24"
         style="fill:#ed0a8c;fill-opacity:1;fill-rule:evenodd;stroke:none"
         d="m 2002.17,613.219 c 33.63,-17.289 58.77,-66.75 56.97,-111.969 -1.79,-45.379 -30.2,-70.531 -65.29,-54.191 -34.44,16.492 -61.04,68.89 -58.11,115.089 2.44,46.352 33.3,68.231 66.43,51.071" /><path
         id="path26"
         style="fill:#efee0e;fill-opacity:1;fill-rule:evenodd;stroke:none"
         d="m 2017.03,917.512 c 32,-18.774 55.66,-66.121 54.36,-107.09 -1.96,-40.973 -28.74,-61.383 -61.38,-43.094 -32.81,18.113 -58.27,68.063 -55.66,109.363 2.29,41.789 31,59.59 62.68,40.821" /><path
         id="path28"
         style="fill:#1e1c1b;fill-opacity:1;fill-rule:evenodd;stroke:none"
         d="m 2029.6,1193.69 c 30.69,-19.59 53.37,-64.97 52.07,-102.17 -1.14,-37.06 -27.43,-53.72 -58.27,-34.77 -31.03,19.25 -55.18,67.41 -53.22,105.13 2.29,37.85 29.38,51.4 59.42,31.81" /><path
         id="path30"
         style="fill:#5b97d7;fill-opacity:1;fill-rule:evenodd;stroke:none"
         d="m 1718.8,398.422 c 42.27,-18.461 72.48,-77.371 67.41,-133.203 -4.73,-55.828 -43.75,-89.61 -87.66,-72.649 -44.55,17.149 -75.9,79.5 -69.7,136.801 6.21,57.469 47.02,87.34 89.95,69.051" /><path
         id="path32"
         style="fill:#ed0a8c;fill-opacity:1;fill-rule:evenodd;stroke:none"
         d="m 1751.61,747.25 c 40.31,-20.07 68.4,-76.07 64.32,-126.18 -4.25,-50.121 -39.84,-76.57 -81.62,-57.449 -41.31,19.418 -71.34,78.68 -65.94,129.918 5.21,51.102 43.57,74.27 83.24,53.711" /><path
         id="path34"
         style="fill:#efee0e;fill-opacity:1;fill-rule:evenodd;stroke:none"
         d="m 1780.17,1060.99 c 37.72,-22.04 64.15,-75.252 60.9,-120.31 -3.44,-45.219 -37.06,-66.11 -76.07,-44.879 -38.85,21.371 -67.58,77.519 -62.85,123.559 4.41,45.71 40,63.49 78.02,41.63" /><path
         id="path36"
         style="fill:#1e1c1b;fill-opacity:1;fill-rule:evenodd;stroke:none"
         d="m 1804.67,1343.86 c 35.41,-23.02 61.69,-73.27 58.26,-113.93 -2.6,-41.3 -34.27,-57.95 -71.01,-35.42 -36.88,22.52 -64.47,76.73 -60.38,118.01 3.91,41.8 37.37,54.7 73.13,31.34" /><path
         id="path38"
         style="fill:#5b97d7;fill-opacity:1;fill-rule:evenodd;stroke:none"
         d="m 1418.44,534.398 c 51.43,-22.039 84.56,-88.16 76.4,-150.339 -8.17,-62.028 -56.81,-98.598 -110.34,-78.36 -53.55,20.25 -89.96,92.071 -79.34,155.563 10.45,63.66 61.87,95.328 113.28,73.136" /><path
         id="path40"
         style="fill:#ed0a8c;fill-opacity:1;fill-rule:evenodd;stroke:none"
         d="m 1470.68,896.621 c 47.67,-24.18 79.83,-86.851 73.13,-142.031 -7.51,-55.328 -52.24,-83.578 -102.19,-60.711 -49.94,23.5 -84.06,90.59 -75.41,146.91 9.31,56.621 56.31,80.301 104.47,55.832" /><path
         id="path42"
         style="fill:#efee0e;fill-opacity:1;fill-rule:evenodd;stroke:none"
         d="m 1515.57,1219.97 c 44.88,-26.11 75.42,-85.85 69.22,-134.82 -6.36,-49.63 -47.67,-71.17 -94.36,-46.2 -46.85,25.3 -79.16,88.64 -71.49,138.75 7.67,50.11 51.42,68.56 96.63,42.27" /><path
         id="path44"
         style="fill:#1e1c1b;fill-opacity:1;fill-rule:evenodd;stroke:none"
         d="m 1554.59,1509.72 c 42.11,-27.27 71.65,-83.08 66.27,-127.81 -5.55,-44.08 -44.24,-61.21 -88.15,-34.62 -43.91,26.3 -74.6,86.85 -68.07,131.9 6.69,45.38 47.34,57.96 89.95,30.53" /><path
         id="path46"
         style="fill:#1e1c1b;fill-opacity:1;fill-rule:evenodd;stroke:none"
         d="m 1588.54,1772.19 c 40.31,-28.4 68.23,-82.42 63.67,-122.59 -4.58,-39.98 -41.47,-52.07 -82.61,-24.64 -41.13,27.58 -70.84,85.2 -65.12,125.69 5.71,40.48 44.22,49.46 84.06,21.54" /><path
         id="path48"
         style="fill:#1e1c1b;fill-opacity:1;fill-rule:evenodd;stroke:none"
         d="m 1618.91,2010.36 c 38.51,-28.57 64.95,-80.31 60.7,-117.05 -4.07,-36.89 -38.02,-45.05 -77.69,-16.79 -39.17,28.39 -67.26,82.92 -62.2,119.96 5.39,37.22 41.31,42.44 79.19,13.88" /><path
         id="path50"
         style="fill:#1e1c1b;fill-opacity:1;fill-rule:evenodd;stroke:none"
         d="m 1645.84,2227.62 c 36.56,-29.23 62.02,-78.68 58.26,-112.47 -3.91,-33.29 -36.06,-38.67 -73.44,-9.79 -37.06,28.91 -64.32,80.97 -59.9,114.75 4.72,34.12 38.67,36.24 75.08,7.51" /><path
         id="path52"
         style="fill:#5b97d7;fill-opacity:1;fill-rule:evenodd;stroke:none"
         d="m 1077.94,688.32 c 62.03,-26.769 100.55,-101.539 87.5,-169.761 -12.9,-68.719 -74.28,-108.059 -139.57,-83.579 -64.979,24.981 -106.761,106.442 -90.593,177.11 15.828,70.191 80.623,102.832 142.663,76.23" /><path
         id="path54"
         style="fill:#ed0a8c;fill-opacity:1;fill-rule:evenodd;stroke:none"
         d="m 1153.84,1064.08 c 57.47,-28.88 93.71,-99.568 82.76,-160.299 -10.77,-60.383 -67.41,-90.25 -127.5,-62.511 -60.38,27.75 -99.71,104.128 -86.49,166.34 13.71,61.54 73.61,86.02 131.23,56.47" /><path
         id="path56"
         style="fill:#efee0e;fill-opacity:1;fill-rule:evenodd;stroke:none"
         d="m 1218.98,1396.92 c 53.54,-31.17 87.82,-97.45 78.18,-151.48 -9.3,-54.03 -60.88,-76.23 -116.88,-46.02 -55.98,29.53 -93.04,101.52 -81.45,156.36 11.6,54.69 66.28,72 120.15,41.14" /><path
         id="path58"
         style="fill:#efee0e;fill-opacity:1;fill-rule:evenodd;stroke:none"
         d="m 1275.78,1693.85 c 50.45,-31.99 83.09,-95.16 74.93,-143.32 -8.32,-48.32 -56.33,-64.65 -108.72,-33.63 -52.23,31.66 -87.65,99.74 -77.54,148.55 10.46,49.12 60.73,60.23 111.33,28.4" /><path
         id="path60"
         style="fill:#efee0e;fill-opacity:1;fill-rule:evenodd;stroke:none"
         d="m 1325.89,1960.74 c 47.02,-32.98 78.36,-93.36 71.17,-136.63 -7.18,-43.26 -52.07,-55.18 -100.87,-22.7 -49.15,32.49 -82.76,97.14 -73.78,141.36 8.8,43.77 55.97,50.93 103.48,17.97" /><path
         id="path62"
         style="fill:#efee0e;fill-opacity:1;fill-rule:evenodd;stroke:none"
         d="m 1369.96,2201.68 c 44.57,-33.47 74.61,-90.94 68.07,-130.43 -6.52,-39.18 -48.15,-46.36 -94.34,-13.39 -46.53,33.46 -78.19,95 -70.21,134.5 7.85,39.84 51.93,42.78 96.48,9.32" /><path
         id="path64"
         style="fill:#efee0e;fill-opacity:1;fill-rule:evenodd;stroke:none"
         d="m 1409.63,2420.73 c 42.13,-33.78 70.84,-88.96 64.97,-124.71 -6.04,-35.91 -45.06,-39.67 -88.81,-6.04 -43.4,33.63 -74.26,92.72 -67.07,128.63 7.17,35.91 48.64,35.91 90.91,2.12" /><path
         id="path66"
         style="fill:#5b97d7;fill-opacity:1;fill-rule:evenodd;stroke:none"
         d="M 688.621,863.801 C 763.875,831.48 807.305,747.25 788.363,671.352 769.422,595.609 692.387,554.469 612.883,584.66 c -79.16,30.211 -127.82,122.442 -104.805,200.781 23.024,77.707 105.293,111.008 180.543,78.36" /><path
         id="path68"
         style="fill:#ed0a8c;fill-opacity:1;fill-rule:evenodd;stroke:none"
         d="m 792.441,1252.95 c 69.379,-35.1 111,-114.09 95.008,-180.37 -16.164,-66.45 -87,-96.631 -159.812,-63.34 -72.965,33.3 -118.668,119.48 -98.922,187.57 19.762,67.89 94.359,90.74 163.726,56.14" /><path
         id="path70"
         style="fill:#ed0a8c;fill-opacity:1;fill-rule:evenodd;stroke:none"
         d="m 883.039,1594.92 c 63.984,-36.57 103.484,-111.31 89.453,-169.75 -14.031,-58.77 -78.191,-80.66 -145.769,-44.89 -67.414,35.58 -110.676,116.55 -93.707,176.45 17.464,59.58 85.871,74.92 150.023,38.19" /><path
         id="path72"
         style="fill:#ed0a8c;fill-opacity:1;fill-rule:evenodd;stroke:none"
         d="m 961.711,1898.55 c 60.249,-37.88 97.789,-108.07 85.219,-160.63 -12.41,-51.9 -71.825,-67.25 -134.508,-29.88 -62.684,37.06 -103,113.61 -88.156,166.35 15.347,53.37 78.027,61.86 137.445,24.16" /><path
         id="path74"
         style="fill:#ed0a8c;fill-opacity:1;fill-rule:evenodd;stroke:none"
         d="m 1031.58,2169.52 c 55.99,-38.54 91.42,-105.61 80.64,-152.3 -10.93,-46.37 -65.79,-56.48 -124.38,-18.11 -58.281,38.19 -96.481,111.16 -83.578,157.84 13.543,47.16 71.492,51.74 127.318,12.57" /><path
         id="path76"
         style="fill:#ed0a8c;fill-opacity:1;fill-rule:evenodd;stroke:none"
         d="m 1093.45,2413.56 c 52.4,-39.18 86.35,-103.17 76.55,-145.46 -9.79,-42.28 -60.9,-46.84 -115.08,-7.99 -54.67,38.68 -90.916,107.57 -79.166,149.85 12.086,42.28 65.456,42.61 117.696,3.6" /><path
         id="path78"
         style="fill:#ed0a8c;fill-opacity:1;fill-rule:evenodd;stroke:none"
         d="m 1148.94,2633.6 c 49.15,-39.02 81.3,-100.39 72.65,-138.59 -8.67,-38.53 -56.48,-39.34 -107.41,0 -51.26,39.16 -85.7,104.79 -74.92,142.81 10.76,38.05 60.72,35.27 109.68,-4.22" /><path
         id="path80"
         style="fill:#5b97d7;fill-opacity:1;fill-rule:evenodd;stroke:none"
         d="M 237.609,1065.23 C 329.344,1025.72 379.457,930.879 353.016,847.641 326.082,764.719 228.781,721.949 130.531,759.16 32.918,796.379 -23.25,901.18 9.24609,986.711 41.7227,1072.58 145.539,1104.74 237.609,1065.23" /><path
         id="path82"
         style="fill:#5b97d7;fill-opacity:1;fill-rule:evenodd;stroke:none"
         d="m 377.664,1467.76 c 84.551,-41.94 131.574,-130.58 108.723,-202.89 -23.188,-72.16 -111.992,-103.17 -201.121,-62.37 -89.438,40.18 -141.84,138.11 -114.094,212.38 28.078,73.62 122.101,94.84 206.492,52.88" /><path
         id="path84"
         style="fill:#5b97d7;fill-opacity:1;fill-rule:evenodd;stroke:none"
         d="m 499.609,1818.88 c 77.524,-43.92 121.938,-127.16 102.18,-190.49 -20.414,-63.33 -100.226,-84.23 -182.672,-41.47 -82.269,42.95 -131.558,134.2 -107.238,198.66 24.82,64.64 109.535,77.54 187.73,33.3" /><path
         id="path86"
         style="fill:#5b97d7;fill-opacity:1;fill-rule:evenodd;stroke:none"
         d="m 606.512,2128.86 c 71.343,-45.21 113.617,-123.72 95.988,-179.88 -17.617,-55.67 -90.914,-69.54 -166.824,-25.3 -75.586,44.4 -121.766,130.75 -100.387,187.56 21.711,56.97 99.234,62.18 171.223,17.62" /><path
         id="path88"
         style="fill:#5b97d7;fill-opacity:1;fill-rule:evenodd;stroke:none"
         d="m 700.711,2403.27 c 66.269,-45.54 106.25,-120.64 90.914,-170.58 -15.504,-49.64 -83.586,-56.64 -153.43,-11.27 -69.867,45.06 -113.132,126.51 -94.199,176.46 18.942,50.44 90.438,51.25 156.715,5.39" /><path
         id="path90"
         style="fill:#5b97d7;fill-opacity:1;fill-rule:evenodd;stroke:none"
         d="m 784.934,2648.77 c 61.863,-46.2 99.406,-117.2 85.363,-162.09 -14.02,-44.72 -76.051,-46.68 -141.188,-0.66 -64.644,45.89 -105.293,123.09 -88.304,167.82 17.289,44.88 82.269,40.97 144.129,-5.07" /><path
         id="path92"
         style="fill:#5b97d7;fill-opacity:1;fill-rule:evenodd;stroke:none"
         d="m 860.508,2869.79 c 57.465,-46.36 93.055,-114.11 80.312,-154.43 -12.402,-40.63 -70.351,-38.67 -129.929,7.52 -60.727,46.19 -98.598,119.16 -83.254,159.32 15.176,40.81 75.586,33.61 132.871,-12.41" /><path
         id="path94"
         style="fill:#1e1c1b;fill-opacity:1;fill-rule:evenodd;stroke:none"
         d="m 2482.27,1460.38 c -20.24,-57.47 -35.59,-76.07 -83.89,-76.07 -45.55,0 -63.19,16.16 -84.23,76.07 l -150.34,424.25 c -2.62,7.17 -9.47,21.07 -14.37,21.07 -9.3,0 -9.3,-16.51 -9.3,-19.28 l 2.78,-495.26 h -111.17 v 559.74 c 0,82.75 78.36,83.73 95.01,83.73 42.92,0 78.17,-10.94 103.32,-81.93 l 152.14,-424.26 c 5.06,-13.54 10.93,-23.66 16.16,-23.66 5.05,0 10.76,10.12 15.5,23.66 l 152.47,424.26 c 25.12,70.99 60.05,81.93 103.15,81.93 54.86,0 94.84,-25.46 94.84,-83.73 v -559.74 h -110.67 l 3.42,495.26 c 0,17.46 -6.85,19.28 -10.44,19.28 -5.71,0 -11.58,-13.9 -14.04,-21.07 l -150.34,-424.25" /><path
         id="path96"
         style="fill:#1e1c1b;fill-opacity:1;fill-rule:evenodd;stroke:none"
         d="m 3054.51,1637.49 v 0 h 226.41 l -95.98,258.72 c -3.44,9.49 -8.99,26.61 -16.82,26.61 -7.52,0 -13.07,-17.12 -16.97,-26.61 z m 17.13,325.17 c 21.07,53.7 43.6,71.65 96.48,71.65 50.44,0 75.57,-17.95 96.8,-71.65 l 221.83,-571.5 h -116.87 l -60.56,160.95 h -283.2 l -59.6,-160.95 h -116.87 l 221.99,571.5" /><path
         id="path98"
         style="fill:#1e1c1b;fill-opacity:1;fill-rule:evenodd;stroke:none"
         d="m 3762.38,1391.16 c -56.49,0 -133.22,8.32 -187.72,74.6 -55.17,67.09 -59.75,164.55 -59.75,234.42 0,90.75 7.51,184.45 57.3,247.3 58.94,74.43 150.33,79.82 192.63,79.82 h 235.86 v -95.67 h -184.13 c -65.3,0 -120.79,-4.24 -154.25,-58.76 -17.95,-28.07 -33.16,-76.24 -33.16,-170.74 0,-95.49 16.34,-134.51 27.92,-154.58 30.38,-49.96 83.92,-61.05 153.78,-61.05 H 4010 v -95.34 h -247.62" /><path
         id="path100"
         style="fill:#1e1c1b;fill-opacity:1;fill-rule:evenodd;stroke:none"
         d="m 4326.32,1391.16 v 540.47 h -229.51 v 95.67 h 570.67 v -95.67 h -230.15 v -540.47 h -111.01" /><path
         id="path102"
         style="fill:#1e1c1b;fill-opacity:1;fill-rule:evenodd;stroke:none"
         d="m 4858.4,1391.16 c -25.31,0 -47.65,0 -67.25,20.24 -20.09,20.58 -21.55,49.79 -21.55,74.44 v 450.52 c 0,25.31 7.35,50.94 19.75,66.44 19.27,22.71 48.15,24.5 70.68,24.5 h 377.23 v -95.67 h -317.65 c -10.28,0 -21.54,-0.65 -30.36,-8.81 -8.83,-9.14 -8.83,-21.71 -8.83,-31.02 v -128.14 h 348.52 v -95.33 h -348.52 v -148.87 c 0,-9.96 3.28,-20.06 8.18,-24.48 6.86,-7.51 20.07,-8.48 37.54,-8.48 h 314.56 v -95.34 h -382.3" /><path
         id="path104"
         style="fill:#1e1c1b;fill-opacity:1;fill-rule:evenodd;stroke:none"
         d="m 5749.51,1742.93 v 0 c -19.28,-23.67 -47.68,-23.67 -72,-23.67 h -210.9 v 181.85 c 0,10.78 0,21.88 7.67,29.87 8.16,9.15 18.29,8.33 25.63,8.33 h 179.07 c 18.61,0 49.63,-0.98 68.88,-21.87 18.46,-21.06 21.07,-59.09 21.07,-87.16 0,-24.66 -1.82,-65.46 -19.42,-87.35 m 89.12,253.51 c -36.09,38.19 -85.87,38.19 -116.72,38.19 H 5442.3 c -20.25,0 -47.2,-3.9 -66.61,-24.47 -20.08,-21.88 -20.08,-47.34 -20.08,-70.85 v -548.15 h 111 v 232.61 h 275.37 c 34.28,0 68.08,11.92 89.95,31.03 46.51,40.96 51.26,122.75 51.26,174.49 0,53.53 -4.08,125.19 -44.56,167.15" /><path
         id="path106"
         style="fill:#1e1c1b;fill-opacity:1;fill-rule:evenodd;stroke:none"
         d="m 2957.78,1109.84 c -9.37,0 -19.38,1.11 -27.18,-8.02 -5.57,-6.25 -7.34,-19.16 -7.34,-29.64 V 570.66 h -110.75 v 548.08 c 0,22.96 2.47,43.67 22.06,63.5 20.72,22.06 39.22,22.96 66.17,22.96 h 346.91 c 23.39,0 46.34,-0.9 66.4,-22.96 17.35,-18.94 20.71,-41.43 20.71,-63.5 V 570.66 h -110.74 v 501.52 c 0,8.69 1.11,21.17 -6.69,29.64 -7.57,9.13 -19.13,8.02 -26.71,8.02 h -232.84" /><path
         id="path108"
         style="fill:#1e1c1b;fill-opacity:1;fill-rule:evenodd;stroke:none"
         d="m 3756.27,890.609 v 0 c 24.29,0 52.82,0 71.98,23.379 17.59,22.071 19.37,62.832 19.37,87.332 0,27.86 -2.9,66.18 -20.95,86.67 -19.36,20.95 -50.34,21.85 -68.83,21.85 h -178.45 c -7.37,0 -17.84,1.11 -26.08,-8.02 -7.34,-8.26 -7.34,-19.16 -7.34,-29.86 V 890.609 Z M 3435.23,570.66 v 539.18 c 0,23.6 0,49.02 20.06,70.4 19.16,20.93 45.89,24.96 66.38,24.96 h 279.17 c 30.97,0 79.97,0 116.3,-38.33 40.32,-41.67 44.55,-113.19 44.55,-166.64 0,-51.468 -5.34,-133.242 -51.24,-173.8 -21.83,-19.141 -55.25,-30.731 -89.55,-30.731 H 3545.97 V 570.66 h -110.74" /><path
         id="path110"
         style="fill:#1e1c1b;fill-opacity:1;fill-rule:evenodd;stroke:none"
         d="m 4492.85,570.66 3.33,482.13 c 0,10.03 -0.66,20.94 -8.24,20.94 -6.91,0 -13.36,-14.68 -21.83,-28.95 L 4224.37,623.238 c -15.61,-27.859 -33.2,-59.929 -92.9,-59.929 -84.44,0 -86.2,72.64 -86.2,108.961 v 532.93 h 110.49 l -2.45,-472.989 c 0,-14.723 -0.89,-29.211 10.25,-29.211 6.68,0 10.92,10.93 16.03,20.059 l 235.95,418.641 c 32.07,56.14 57.69,70.84 98.25,70.84 88,0 89.55,-82.66 89.55,-114.51 V 570.66 h -110.49" /><path
         id="path112"
         style="fill:#1e1c1b;fill-opacity:1;fill-rule:evenodd;stroke:none"
         d="M 5230.3,570.66 H 5119.56 V 849.602 H 4814.33 V 570.66 h -110.28 v 634.54 h 110.28 V 944.961 h 305.23 V 1205.2 H 5230.3 V 570.66" /><path
         id="path114"
         style="fill:#1e1c1b;fill-opacity:1;fill-rule:evenodd;stroke:none"
         d="m 5542.98,570.66 v 539.18 h -228.57 v 95.36 h 568.78 v -95.36 H 5653.5 V 570.66 h -110.52" /></g></g></svg>