<svg width="161" height="83" viewBox="0 0 161 83" fill="none" xmlns="http://www.w3.org/2000/svg">
<path fill-rule="evenodd" clip-rule="evenodd" d="M64.4405 78.2013C65.2966 78.5722 65.953 79.8846 65.953 81.1684C65.953 82.4523 65.2395 83.2226 64.3835 82.9087C63.4988 82.5664 62.814 81.1684 62.814 79.856C62.8425 78.5722 63.5844 77.8304 64.4405 78.2013Z" fill="#00ACEC"/>
<path fill-rule="evenodd" clip-rule="evenodd" d="M64.5548 68.9575C65.3538 69.3855 66.0102 70.6408 66.0102 71.782C66.0102 72.9518 65.3538 73.6079 64.4977 73.2085C63.6702 72.8091 63.0139 71.4967 63.0424 70.2985C63.0424 69.1287 63.7558 68.5581 64.5548 68.9575Z" fill="#CA0088"/>
<path fill-rule="evenodd" clip-rule="evenodd" d="M64.6406 60.5412C65.411 60.9976 66.0103 62.1959 66.0103 63.2515C66.0103 64.3071 65.3825 64.8492 64.5835 64.4213C63.813 63.9933 63.1567 62.738 63.1852 61.6538C63.2138 60.5697 63.8701 60.0847 64.6406 60.5412Z" fill="#FFF12D"/>
<path fill-rule="evenodd" clip-rule="evenodd" d="M64.7259 52.8666C65.4678 53.3516 66.0386 54.4928 66.0386 55.4628C66.0386 56.4328 65.4393 56.8893 64.6974 56.4043C63.9554 55.9478 63.3276 54.721 63.3562 53.751C63.3562 52.7524 63.984 52.3816 64.7259 52.8666Z" fill="black"/>
<path fill-rule="evenodd" clip-rule="evenodd" d="M57.6202 75.0915C58.619 75.5195 59.3895 77.0315 59.3324 78.4581C59.2753 79.8846 58.3907 80.769 57.3349 80.3696C56.279 79.9702 55.48 78.3725 55.5656 76.9174C55.6798 75.4624 56.6215 74.6636 57.6202 75.0915Z" fill="#00ACEC"/>
<path fill-rule="evenodd" clip-rule="evenodd" d="M58.1055 65.5054C59.0757 65.9904 59.7891 67.4169 59.732 68.7008C59.675 69.9846 58.876 70.7264 57.8772 70.2414C56.9069 69.7849 56.1365 68.2728 56.2221 66.9604C56.2792 65.6195 57.1638 65.0204 58.1055 65.5054Z" fill="#CA0088"/>
<path fill-rule="evenodd" clip-rule="evenodd" d="M58.5334 56.8037C59.4466 57.3458 60.1314 58.6867 60.0744 59.8564C60.0173 61.0262 59.2468 61.5968 58.3336 61.0832C57.392 60.5697 56.6785 59.1432 56.7356 57.9735C56.8212 56.7752 57.6202 56.2902 58.5334 56.8037Z" fill="#FFF12D"/>
<path fill-rule="evenodd" clip-rule="evenodd" d="M58.9047 48.9294C59.7894 49.5 60.4172 50.7839 60.3886 51.8395C60.3601 52.8951 59.6181 53.3801 58.7335 52.838C57.8489 52.296 57.164 50.9265 57.2211 49.8424C57.2496 48.7582 58.0486 48.3874 58.9047 48.9294Z" fill="black"/>
<path fill-rule="evenodd" clip-rule="evenodd" d="M50.0296 71.6393C51.2281 72.1529 52.0842 73.8362 51.9415 75.4338C51.7989 77.0315 50.6859 78.0015 49.4303 77.5165C48.1462 77.0315 47.2616 75.2341 47.4328 73.6079C47.6326 71.9532 48.8025 71.0973 50.0296 71.6393Z" fill="#00ACEC"/>
<path fill-rule="evenodd" clip-rule="evenodd" d="M50.9714 61.6824C52.1129 62.253 52.9119 63.8507 52.7978 65.2772C52.6836 66.7037 51.6563 67.474 50.4578 66.9034C49.2878 66.3613 48.4317 64.6495 48.5744 63.1945C48.7456 61.7394 49.83 61.0832 50.9714 61.6824Z" fill="#CA0088"/>
<path fill-rule="evenodd" clip-rule="evenodd" d="M51.7707 52.7239C52.855 53.3516 53.597 54.8637 53.5114 56.1475C53.4258 57.4314 52.4555 58.0305 51.3426 57.4314C50.2297 56.8323 49.4021 55.206 49.5448 53.8937C49.6875 52.6098 50.6863 52.0963 51.7707 52.7239Z" fill="#FFF12D"/>
<path fill-rule="evenodd" clip-rule="evenodd" d="M52.484 44.6499C53.4828 45.3061 54.2533 46.7326 54.1391 47.9023C54.0535 49.0721 53.1689 49.5571 52.113 48.9009C51.0572 48.2447 50.2867 46.7041 50.4009 45.5343C50.4865 44.3646 51.4567 43.9937 52.484 44.6499Z" fill="black"/>
<path fill-rule="evenodd" clip-rule="evenodd" d="M41.4405 67.7593C42.8959 68.3869 43.8661 70.2699 43.6093 72.0388C43.381 73.8076 41.9827 74.8632 40.4703 74.2641C38.9293 73.6935 37.902 71.6393 38.2159 69.8134C38.5298 68.016 39.9852 67.1031 41.4405 67.7593Z" fill="#00ACEC"/>
<path fill-rule="evenodd" clip-rule="evenodd" d="M42.9529 57.4028C44.3226 58.0876 45.2358 59.885 45.036 61.4541C44.8077 63.0233 43.5521 63.8507 42.1253 63.1945C40.6985 62.5097 39.7283 60.5982 39.9851 59.0005C40.2419 57.4029 41.5831 56.7181 42.9529 57.4028Z" fill="#CA0088"/>
<path fill-rule="evenodd" clip-rule="evenodd" d="M44.2369 48.1876C45.521 48.9294 46.3771 50.6412 46.2059 52.0392C46.0347 53.4657 44.8361 54.0648 43.5235 53.3516C42.1823 52.6383 41.2691 50.8124 41.4974 49.3859C41.6971 47.9594 42.9242 47.4458 44.2369 48.1876Z" fill="#FFF12D"/>
<path fill-rule="evenodd" clip-rule="evenodd" d="M45.3496 39.9139C46.5481 40.6842 47.4042 42.2819 47.233 43.5658C47.0618 44.8211 45.9774 45.3061 44.7218 44.5643C43.4662 43.8226 42.5816 42.0822 42.7814 40.7984C42.9526 39.486 44.1226 39.1436 45.3496 39.9139Z" fill="black"/>
<path fill-rule="evenodd" clip-rule="evenodd" d="M46.3202 32.4391C47.4617 33.2379 48.2607 34.7785 48.1466 35.9482C48.0039 37.0894 46.9766 37.4318 45.7781 36.6615C44.6081 35.8627 43.752 34.2364 43.9232 33.0667C44.0659 31.897 45.1788 31.6402 46.3202 32.4391Z" fill="black"/>
<path fill-rule="evenodd" clip-rule="evenodd" d="M47.1761 25.6489C48.2891 26.4763 49.031 27.9313 48.9169 28.9869C48.8027 30.0425 47.8325 30.2708 46.691 29.4719C45.5781 28.6731 44.7791 27.1039 44.9218 26.0483C45.0645 24.9642 46.0918 24.8215 47.1761 25.6489Z" fill="black"/>
<path fill-rule="evenodd" clip-rule="evenodd" d="M47.9464 19.4293C49.0022 20.2567 49.7156 21.6832 49.6014 22.6247C49.4873 23.5662 48.5741 23.7374 47.5183 22.91C46.4625 22.0826 45.692 20.5991 45.8061 19.629C45.9203 18.6875 46.8905 18.6305 47.9464 19.4293Z" fill="black"/>
<path fill-rule="evenodd" clip-rule="evenodd" d="M31.738 63.3656C33.5073 64.1359 34.6202 66.2757 34.2492 68.2157C33.8782 70.1843 32.1375 71.297 30.2541 70.6123C28.3993 69.899 27.2007 67.5881 27.6573 65.5625C28.1139 63.5368 29.9688 62.5953 31.738 63.3656Z" fill="#00ACEC"/>
<path fill-rule="evenodd" clip-rule="evenodd" d="M33.9066 52.6383C35.5332 53.4657 36.589 55.4913 36.2751 57.2031C35.9612 58.9149 34.3632 59.7708 32.651 59.0005C30.9388 58.2017 29.7974 56.0334 30.1969 54.2645C30.5393 52.4957 32.2515 51.7824 33.9066 52.6383Z" fill="#CA0088"/>
<path fill-rule="evenodd" clip-rule="evenodd" d="M35.7616 43.1378C37.3026 44.0223 38.2728 45.9052 37.9874 47.4459C37.7306 48.9865 36.2467 49.6141 34.6487 48.7582C33.0507 47.9023 31.9948 45.8482 32.3373 44.3076C32.6512 42.7384 34.2207 42.2534 35.7616 43.1378Z" fill="#FFF12D"/>
<path fill-rule="evenodd" clip-rule="evenodd" d="M37.3885 34.6644C38.8153 35.5774 39.757 37.3747 39.5287 38.7442C39.3005 40.1136 37.9307 40.5986 36.4183 39.7142C34.9344 38.8012 33.9071 36.8612 34.1925 35.4632C34.5064 34.0653 35.9332 33.7514 37.3885 34.6644Z" fill="#FFF12D"/>
<path fill-rule="evenodd" clip-rule="evenodd" d="M38.8152 27.0469C40.1564 27.9884 41.041 29.7002 40.8413 30.9555C40.6415 32.1823 39.3574 32.5246 37.9591 31.6117C36.5608 30.6987 35.5906 28.8443 35.8474 27.5889C36.1043 26.3051 37.4455 26.1054 38.8152 27.0469Z" fill="#FFF12D"/>
<path fill-rule="evenodd" clip-rule="evenodd" d="M40.0708 20.1711C41.3549 21.1126 42.211 22.7673 42.0112 23.88C41.8115 24.9927 40.6415 25.1924 39.3288 24.2509C37.9876 23.3094 37.103 21.5406 37.3313 20.3993C37.531 19.3152 38.7866 19.2296 40.0708 20.1711Z" fill="#FFF12D"/>
<path fill-rule="evenodd" clip-rule="evenodd" d="M41.2122 13.9231C42.4107 14.8931 43.2382 16.4622 43.067 17.4893C42.8958 18.5164 41.7829 18.6305 40.5273 17.6605C39.3002 16.6905 38.4156 15.0072 38.6154 13.9801C38.8151 12.953 39.9851 12.953 41.2122 13.9231Z" fill="#FFF12D"/>
<path fill-rule="evenodd" clip-rule="evenodd" d="M20.6374 58.3444C22.7776 59.2573 24.0332 61.6824 23.491 63.8221C22.9488 65.9904 20.7516 67.1602 18.4972 66.3042C16.2428 65.4483 14.8446 62.8236 15.5009 60.5697C16.1287 58.3729 18.4687 57.4314 20.6374 58.3444Z" fill="#00ACEC"/>
<path fill-rule="evenodd" clip-rule="evenodd" d="M23.5765 47.2462C25.5455 48.2447 26.744 50.4986 26.2875 52.3816C25.8309 54.2646 23.8048 55.149 21.7217 54.179C19.6385 53.2375 18.3258 50.7839 18.8966 48.8153C19.4673 46.9038 21.6075 46.2476 23.5765 47.2462Z" fill="#CA0088"/>
<path fill-rule="evenodd" clip-rule="evenodd" d="M26.1738 37.4889C28.0001 38.5445 29.113 40.6557 28.7135 42.339C28.314 44.0222 26.4877 44.6499 24.5472 43.6228C22.6353 42.5957 21.3797 40.2848 21.8648 38.6015C22.3784 36.8897 24.3475 36.4332 26.1738 37.4889Z" fill="#CA0088"/>
<path fill-rule="evenodd" clip-rule="evenodd" d="M28.4279 28.8157C30.1401 29.8999 31.2245 31.897 30.8535 33.4091C30.5111 34.8926 28.7989 35.3206 27.0011 34.265C25.2033 33.2094 24.0619 31.0125 24.4899 29.529C24.9465 27.9884 26.7157 27.7601 28.4279 28.8157Z" fill="#CA0088"/>
<path fill-rule="evenodd" clip-rule="evenodd" d="M30.4253 21.0841C32.0234 22.1968 33.0221 24.1083 32.7368 25.4207C32.4229 26.733 30.8534 27.0183 29.1983 25.9342C27.5432 24.8501 26.4588 22.7674 26.8012 21.4265C27.1722 20.1141 28.8273 19.9714 30.4253 21.0841Z" fill="#CA0088"/>
<path fill-rule="evenodd" clip-rule="evenodd" d="M32.1661 14.1227C33.65 15.2354 34.6203 17.0613 34.3634 18.2596C34.0781 19.4578 32.6227 19.6005 31.0818 18.4878C29.5123 17.3752 28.485 15.4066 28.8274 14.2083C29.1698 13.0386 30.6823 13.0101 32.1661 14.1227Z" fill="#CA0088"/>
<path fill-rule="evenodd" clip-rule="evenodd" d="M33.764 7.84611C35.1623 8.95879 36.0754 10.6991 35.8472 11.8118C35.5903 12.9245 34.2491 12.9245 32.7938 11.8118C31.3384 10.6991 30.3397 8.81614 30.6536 7.73199C30.9389 6.64785 32.3657 6.73344 33.764 7.84611Z" fill="#CA0088"/>
<path fill-rule="evenodd" clip-rule="evenodd" d="M7.76762 52.6098C10.393 53.7225 11.8198 56.4328 11.0493 58.8293C10.2788 61.1973 7.51079 62.4241 4.71424 61.34C1.91769 60.2844 0.319658 57.2887 1.26135 54.8351C2.17451 52.3816 5.14228 51.4686 7.76762 52.6098Z" fill="#00ACEC"/>
<path fill-rule="evenodd" clip-rule="evenodd" d="M11.7627 41.1122C14.1883 42.3104 15.5295 44.8496 14.8731 46.9038C14.2168 48.9579 11.6771 49.8424 9.13737 48.6726C6.59764 47.5314 5.08522 44.7355 5.88423 42.6243C6.65471 40.513 9.33712 39.9139 11.7627 41.1122Z" fill="#00ACEC"/>
<path fill-rule="evenodd" clip-rule="evenodd" d="M15.2439 31.0981C17.4697 32.3535 18.7253 34.7215 18.1546 36.5189C17.5838 38.3162 15.301 38.9154 12.9324 37.6886C10.5925 36.4618 9.16566 33.8656 9.87906 32.0111C10.5925 30.2137 12.9895 29.8428 15.2439 31.0981Z" fill="#00ACEC"/>
<path fill-rule="evenodd" clip-rule="evenodd" d="M18.2977 22.2538C20.3238 23.5377 21.5508 25.7916 21.0372 27.3893C20.5235 28.9869 18.4404 29.3864 16.2716 28.1025C14.1029 26.8472 12.7902 24.3651 13.418 22.7389C14.0173 21.1412 16.2431 20.9985 18.2977 22.2538Z" fill="#00ACEC"/>
<path fill-rule="evenodd" clip-rule="evenodd" d="M20.98 14.4366C22.8634 15.749 24.0049 17.8887 23.5768 19.3152C23.1488 20.7417 21.1798 20.9414 19.2108 19.629C17.2132 18.3452 15.9862 16.0057 16.5284 14.6078C17.042 13.1527 19.0681 13.1242 20.98 14.4366Z" fill="#00ACEC"/>
<path fill-rule="evenodd" clip-rule="evenodd" d="M23.377 7.41817C25.1462 8.73055 26.2021 10.7562 25.8026 12.04C25.403 13.3239 23.6338 13.381 21.7789 12.0686C19.9241 10.7562 18.7826 8.55937 19.2678 7.27552C19.7529 5.99167 21.6077 6.10579 23.377 7.41817Z" fill="#00ACEC"/>
<path fill-rule="evenodd" clip-rule="evenodd" d="M25.5459 1.11303C27.1724 2.42541 28.1997 4.36546 27.8288 5.50666C27.4863 6.6764 25.8312 6.61934 24.119 5.27842C22.3783 3.99457 21.294 1.91187 21.7505 0.77067C22.1786 -0.399063 23.8908 -0.199352 25.5459 1.11303Z" fill="#00ACEC"/>
<path fill-rule="evenodd" clip-rule="evenodd" d="M69.9766 41.6543C69.4059 43.2805 68.9493 43.8226 67.5795 43.8226C66.2669 43.8226 65.7818 43.3661 65.1825 41.6543L60.9021 29.5575C60.8165 29.3578 60.6452 28.9584 60.5026 28.9584C60.2457 28.9584 60.2457 29.4149 60.2457 29.5005L60.3313 43.6228H57.1638V27.6745C57.1638 25.3065 59.3896 25.278 59.8748 25.278C61.1018 25.278 62.1006 25.5918 62.814 27.6175L67.1515 39.7142C67.2942 40.1136 67.4654 40.3989 67.6081 40.3989C67.7508 40.3989 67.922 40.1136 68.0361 39.7142L72.3736 27.6175C73.087 25.5918 74.0858 25.278 75.3129 25.278C76.8824 25.278 78.0238 25.9913 78.0238 27.6745V43.6514H74.8563L74.9419 29.529C74.9419 29.044 74.7421 28.9869 74.6565 28.9869C74.4853 28.9869 74.3141 29.3863 74.257 29.5861L69.9766 41.6543Z" fill="black"/>
<path fill-rule="evenodd" clip-rule="evenodd" d="M85.0721 27.3322C85.6713 25.7916 86.3277 25.278 87.8116 25.278C89.2384 25.278 89.9803 25.7916 90.5796 27.3322L96.9146 43.6228H93.5759L91.8352 39.0295H83.7594L82.0472 43.6228H78.7085L85.0721 27.3322ZM84.587 36.6045H91.0362L88.2967 29.2152C88.2111 28.9584 88.0398 28.4449 87.8116 28.4449C87.5833 28.4449 87.4406 28.9299 87.3264 29.2152L84.587 36.6045Z" fill="black"/>
<path fill-rule="evenodd" clip-rule="evenodd" d="M104.22 43.6514C102.622 43.6514 100.425 43.4231 98.8552 41.5116C97.2857 39.6001 97.1431 36.8041 97.1431 34.8356C97.1431 32.2393 97.3714 29.586 98.7696 27.7886C100.453 25.6774 103.05 25.5062 104.277 25.5062H111.012V28.2451H105.761C103.906 28.2451 102.308 28.3592 101.366 29.9284C100.853 30.7272 100.425 32.0967 100.425 34.807C100.425 37.5174 100.881 38.6586 101.224 39.2292C102.08 40.6557 103.621 40.9695 105.618 40.9695H111.297V43.6799H104.22V43.6514Z" fill="black"/>
<path fill-rule="evenodd" clip-rule="evenodd" d="M118.317 43.6514V28.2166H111.754V25.4777H128.048V28.2166H121.485V43.6514H118.317Z" fill="black"/>
<path fill-rule="evenodd" clip-rule="evenodd" d="M131.786 43.6514C131.073 43.6514 130.416 43.6514 129.874 43.0807C129.303 42.4816 129.246 41.6542 129.246 40.9695V28.0739C129.246 27.3607 129.446 26.6189 129.817 26.1909C130.359 25.5348 131.187 25.5062 131.843 25.5062H142.601V28.2451H133.527C133.241 28.2451 132.899 28.2736 132.671 28.5019C132.414 28.7587 132.414 29.1295 132.414 29.3863V33.0382H142.373V35.7485H132.414V39.9995C132.414 40.2848 132.499 40.5701 132.642 40.6842C132.842 40.9125 133.213 40.9125 133.727 40.9125H142.715V43.6228H131.786V43.6514Z" fill="black"/>
<path fill-rule="evenodd" clip-rule="evenodd" d="M82.1901 50.7839C81.9904 50.7839 81.7906 50.7553 81.6194 50.9551C81.5053 51.0977 81.4767 51.3545 81.4767 51.5827V62.0533H79.1653V50.5842C79.1653 50.0992 79.2224 49.6712 79.6219 49.2433C80.0499 48.7868 80.4494 48.7582 80.9916 48.7582H88.2398C88.7249 48.7582 89.21 48.7868 89.6381 49.2433C90.0091 49.6427 90.0661 50.0992 90.0661 50.5842V62.0533H87.7547V51.5827C87.7547 51.4115 87.7832 51.1262 87.612 50.9551C87.4408 50.7553 87.2125 50.7839 87.0413 50.7839H82.1901Z" fill="black"/>
<path fill-rule="evenodd" clip-rule="evenodd" d="M92.1777 62.0532V50.7839C92.1777 50.2989 92.1777 49.7568 92.6058 49.3003C93.0053 48.8723 93.576 48.7868 94.0041 48.7868H99.854C100.51 48.7868 101.538 48.7868 102.28 49.5856C103.136 50.47 103.221 51.9536 103.221 53.0663C103.221 54.1504 103.107 55.8622 102.137 56.6896C101.68 57.089 100.995 57.3458 100.254 57.3458H94.5177V62.0532H92.1777ZM98.8838 55.3772C99.3974 55.3772 99.9967 55.3772 100.396 54.8922C100.767 54.4357 100.796 53.5798 100.796 53.0663C100.796 52.4957 100.739 51.6968 100.368 51.2689C99.9681 50.8409 99.3118 50.8124 98.9408 50.8124H95.2026C95.0599 50.8124 94.8316 50.7839 94.6604 50.9836C94.5177 51.1548 94.5177 51.383 94.5177 51.6112V55.4057H98.8838V55.3772Z" fill="black"/>
<path fill-rule="evenodd" clip-rule="evenodd" d="M114.293 62.0533L114.35 51.9822C114.35 51.7824 114.35 51.5542 114.179 51.5542C114.036 51.5542 113.894 51.868 113.723 52.1533L108.672 60.9691C108.358 61.5397 107.987 62.2245 106.731 62.2245C104.962 62.2245 104.933 60.7124 104.933 59.942V48.8153H107.245L107.188 58.7153C107.188 59.0291 107.159 59.3144 107.416 59.3144C107.559 59.3144 107.644 59.0861 107.758 58.8864L112.695 50.1277C113.38 48.958 113.894 48.6441 114.75 48.6441C116.576 48.6441 116.633 50.3845 116.633 51.0407V62.0533H114.293Z" fill="black"/>
<path fill-rule="evenodd" clip-rule="evenodd" d="M129.703 62.0532H127.391V56.2331H120.999V62.0532H118.716V48.7868H120.999V54.236H127.391V48.7868H129.703V62.0532Z" fill="black"/>
<path fill-rule="evenodd" clip-rule="evenodd" d="M135.353 62.0532V50.7839H130.588V48.7868H142.487V50.7839H137.665V62.0532H135.353Z" fill="black"/>
<path fill-rule="evenodd" clip-rule="evenodd" d="M159.751 26.3622C158.724 25.278 157.297 25.278 156.413 25.278H148.423C147.852 25.278 147.081 25.3921 146.511 25.9627C145.94 26.5904 145.94 27.3036 145.94 27.9884V62.2815H149.107V37.0039H156.955C157.925 37.0039 158.895 36.6615 159.523 36.1194C160.864 34.9497 160.979 32.6102 160.979 31.1552C161.036 29.6146 160.921 27.5604 159.751 26.3622ZM157.212 33.6088C156.67 34.2935 155.842 34.2935 155.157 34.2935H149.136V29.101C149.136 28.7872 149.136 28.4734 149.364 28.2451C149.593 27.9884 149.878 28.0169 150.106 28.0169H155.214C155.756 28.0169 156.641 28.0454 157.183 28.6446C157.697 29.2437 157.782 30.3278 157.782 31.1267C157.782 31.8114 157.725 32.9811 157.212 33.6088Z" fill="black"/>
</svg>
