<?xml version="1.0" encoding="utf-8"?>
<!-- Generator: Adobe Illustrator 21.1.0, SVG Export Plug-In . SVG Version: 6.00 Build 0)  -->
<svg version="1.1" id="Layer_1" xmlns="http://www.w3.org/2000/svg" xmlns:xlink="http://www.w3.org/1999/xlink" x="0px" y="0px"
	 viewBox="0 0 6.27 6.27" style="enable-background:new 0 0 6.27 6.27;" xml:space="preserve">
<style type="text/css">
	.st0{fill-rule:evenodd;clip-rule:evenodd;fill:#FFFFFF;}
	.st1{fill:#FFFFFF;}
</style>
<g id="XMLID_6830_">
	<g id="XMLID_4510_">
		<path id="XMLID_6797_" class="st0" d="M-28.26,11.07c0.16,0.07,0.29,0.32,0.29,0.56c0,0.24-0.13,0.39-0.3,0.33
			c-0.16-0.07-0.3-0.33-0.29-0.57C-28.56,11.14-28.42,11-28.26,11.07"/>
		<path id="XMLID_6796_" class="st0" d="M-28.24,9.32c0.15,0.08,0.27,0.32,0.27,0.54c0,0.22-0.13,0.34-0.28,0.27
			c-0.15-0.07-0.28-0.32-0.28-0.55C-28.52,9.36-28.39,9.25-28.24,9.32"/>
		<path id="XMLID_6795_" class="st0" d="M-28.22,7.74c0.14,0.08,0.26,0.31,0.26,0.51c0,0.2-0.12,0.3-0.27,0.22
			c-0.15-0.08-0.27-0.32-0.26-0.52C-28.49,7.74-28.37,7.65-28.22,7.74"/>
		<path id="XMLID_6794_" class="st0" d="M-28.21,6.28c0.14,0.09,0.25,0.31,0.25,0.49c0,0.18-0.11,0.27-0.25,0.18
			c-0.14-0.09-0.26-0.32-0.25-0.5C-28.46,6.27-28.35,6.19-28.21,6.28"/>
		<path id="XMLID_6793_" class="st0" d="M-29.55,10.48c0.19,0.08,0.33,0.36,0.32,0.63c-0.01,0.27-0.18,0.44-0.38,0.36
			c-0.2-0.08-0.35-0.37-0.33-0.65C-29.91,10.55-29.74,10.4-29.55,10.48"/>
		<path id="XMLID_6792_" class="st0" d="M-29.46,8.67c0.18,0.09,0.32,0.36,0.31,0.6c-0.01,0.24-0.16,0.38-0.35,0.29
			c-0.19-0.09-0.33-0.37-0.31-0.62C-29.8,8.7-29.63,8.58-29.46,8.67"/>
		<path id="XMLID_6791_" class="st0" d="M-29.38,7.03c0.17,0.1,0.3,0.36,0.29,0.58c-0.01,0.22-0.15,0.33-0.33,0.23
			c-0.18-0.1-0.31-0.37-0.3-0.59C-29.7,7.03-29.55,6.93-29.38,7.03"/>
		<path id="XMLID_6790_" class="st0" d="M-29.31,5.54c0.17,0.11,0.29,0.35,0.28,0.55c-0.01,0.2-0.15,0.29-0.31,0.19
			c-0.17-0.1-0.3-0.36-0.29-0.57C-29.62,5.51-29.47,5.44-29.31,5.54"/>
		<path id="XMLID_6789_" class="st0" d="M-30.98,9.83c0.23,0.1,0.39,0.42,0.36,0.72c-0.03,0.3-0.24,0.48-0.47,0.39
			c-0.24-0.09-0.41-0.43-0.38-0.74C-31.43,9.89-31.21,9.73-30.98,9.83"/>
		<path id="XMLID_6788_" class="st0" d="M-30.8,7.95c0.22,0.11,0.37,0.41,0.35,0.68c-0.02,0.27-0.21,0.41-0.44,0.31
			c-0.22-0.1-0.38-0.42-0.35-0.7C-31.22,7.96-31.02,7.84-30.8,7.95"/>
		<path id="XMLID_6787_" class="st0" d="M-30.65,6.26c0.2,0.12,0.35,0.41,0.33,0.65c-0.02,0.24-0.2,0.36-0.41,0.24
			c-0.21-0.12-0.36-0.42-0.34-0.67C-31.05,6.24-30.86,6.14-30.65,6.26"/>
		<path id="XMLID_6786_" class="st0" d="M-30.52,4.74c0.19,0.12,0.33,0.39,0.31,0.61c-0.01,0.22-0.18,0.31-0.38,0.19
			c-0.2-0.12-0.35-0.41-0.33-0.64C-30.89,4.68-30.71,4.61-30.52,4.74"/>
		<path id="XMLID_6785_" class="st0" d="M-32.6,9.09c0.28,0.12,0.46,0.47,0.41,0.81c-0.04,0.33-0.31,0.53-0.59,0.42
			c-0.29-0.11-0.48-0.5-0.43-0.84C-33.15,9.15-32.87,8.97-32.6,9.09"/>
		<path id="XMLID_6784_" class="st0" d="M-32.32,7.14c0.26,0.13,0.43,0.47,0.39,0.76c-0.04,0.3-0.28,0.45-0.55,0.33
			c-0.27-0.13-0.45-0.49-0.41-0.79C-32.83,7.14-32.58,7.01-32.32,7.14"/>
		<path id="XMLID_6783_" class="st0" d="M-32.08,5.4c0.24,0.14,0.41,0.46,0.37,0.73c-0.03,0.27-0.26,0.38-0.51,0.25
			c-0.25-0.14-0.43-0.48-0.38-0.75C-32.55,5.36-32.32,5.26-32.08,5.4"/>
		<path id="XMLID_6782_" class="st0" d="M-31.87,3.84c0.23,0.15,0.39,0.45,0.36,0.69c-0.03,0.24-0.24,0.33-0.47,0.19
			c-0.24-0.14-0.4-0.47-0.37-0.71C-32.31,3.76-32.09,3.7-31.87,3.84"/>
		<path id="XMLID_6781_" class="st0" d="M-31.68,2.43c0.22,0.15,0.37,0.44,0.34,0.66c-0.02,0.22-0.22,0.28-0.44,0.13
			c-0.22-0.15-0.38-0.46-0.35-0.68C-32.1,2.33-31.9,2.28-31.68,2.43"/>
		<path id="XMLID_6780_" class="st0" d="M-31.52,1.15c0.21,0.15,0.35,0.43,0.33,0.63c-0.02,0.2-0.2,0.24-0.42,0.09
			c-0.21-0.15-0.36-0.45-0.33-0.65C-31.92,1.02-31.72,0.99-31.52,1.15"/>
		<path id="XMLID_6779_" class="st0" d="M-31.37-0.02c0.2,0.16,0.33,0.42,0.31,0.61c-0.02,0.18-0.19,0.21-0.4,0.05
			c-0.2-0.16-0.35-0.44-0.32-0.62C-31.75-0.16-31.57-0.18-31.37-0.02"/>
		<path id="XMLID_6778_" class="st0" d="M-34.43,8.27c0.33,0.14,0.54,0.55,0.47,0.91c-0.07,0.37-0.4,0.58-0.75,0.45
			c-0.35-0.13-0.57-0.57-0.49-0.95C-35.11,8.3-34.77,8.12-34.43,8.27"/>
		<path id="XMLID_6777_" class="st0" d="M-34.02,6.24c0.31,0.16,0.5,0.54,0.45,0.86c-0.06,0.33-0.36,0.49-0.69,0.34
			c-0.33-0.15-0.54-0.56-0.47-0.9C-34.66,6.22-34.33,6.08-34.02,6.24"/>
		<path id="XMLID_6776_" class="st0" d="M-33.67,4.45c0.29,0.17,0.47,0.52,0.42,0.82c-0.05,0.29-0.33,0.41-0.63,0.25
			c-0.3-0.16-0.5-0.55-0.44-0.84C-34.26,4.38-33.96,4.28-33.67,4.45"/>
		<path id="XMLID_6775_" class="st0" d="M-33.37,2.85c0.27,0.17,0.45,0.51,0.4,0.77c-0.04,0.26-0.3,0.35-0.59,0.18
			c-0.28-0.17-0.47-0.54-0.42-0.8C-33.91,2.74-33.64,2.68-33.37,2.85"/>
		<path id="XMLID_6774_" class="st0" d="M-33.1,1.42c0.25,0.18,0.42,0.5,0.38,0.74c-0.04,0.23-0.28,0.3-0.54,0.12
			c-0.26-0.17-0.45-0.52-0.4-0.76C-33.61,1.28-33.35,1.24-33.1,1.42"/>
		<path id="XMLID_6773_" class="st0" d="M-32.86,0.12c0.24,0.18,0.4,0.49,0.37,0.7c-0.04,0.21-0.26,0.25-0.51,0.07
			c-0.25-0.18-0.42-0.51-0.38-0.72C-33.34-0.05-33.1-0.06-32.86,0.12"/>
		<path id="XMLID_6772_" class="st0" d="M-32.65-1.06c0.23,0.18,0.38,0.48,0.35,0.67c-0.03,0.19-0.24,0.21-0.48,0.03
			c-0.23-0.18-0.4-0.5-0.36-0.69C-33.1-1.24-32.87-1.24-32.65-1.06"/>
		<path id="XMLID_6771_" class="st0" d="M-36.53,7.32c0.41,0.17,0.64,0.63,0.54,1.04c-0.1,0.41-0.52,0.63-0.94,0.47
			c-0.43-0.16-0.69-0.66-0.56-1.08C-37.38,7.32-36.93,7.15-36.53,7.32"/>
		<path id="XMLID_6770_" class="st0" d="M-35.97,5.23c0.37,0.19,0.6,0.61,0.51,0.97c-0.09,0.36-0.47,0.52-0.86,0.34
			c-0.39-0.18-0.64-0.64-0.53-1.01C-36.74,5.16-36.34,5.04-35.97,5.23"/>
		<path id="XMLID_6769_" class="st0" d="M-35.48,3.38c0.34,0.2,0.56,0.6,0.48,0.91c-0.08,0.32-0.42,0.43-0.78,0.24
			c-0.36-0.19-0.6-0.63-0.5-0.95C-36.19,3.27-35.83,3.19-35.48,3.38"/>
		<path id="XMLID_6768_" class="st0" d="M-35.06,1.75c0.32,0.2,0.53,0.58,0.46,0.86c-0.07,0.28-0.39,0.36-0.72,0.16
			c-0.34-0.2-0.55-0.61-0.47-0.9C-35.71,1.59-35.38,1.55-35.06,1.75"/>
		<path id="XMLID_6767_" class="st0" d="M-34.68,0.29c0.3,0.21,0.49,0.57,0.43,0.82c-0.06,0.25-0.35,0.3-0.67,0.1
			c-0.31-0.21-0.52-0.6-0.45-0.85C-35.29,0.11-34.98,0.08-34.68,0.29"/>
		<path id="XMLID_6766_" class="st0" d="M-34.35-1.02c0.28,0.21,0.46,0.56,0.41,0.78c-0.05,0.23-0.33,0.25-0.62,0.04
			C-34.85-0.4-35.04-0.78-34.98-1C-34.92-1.23-34.63-1.23-34.35-1.02"/>
		<path id="XMLID_6765_" class="st0" d="M-34.05-2.21c0.26,0.21,0.44,0.54,0.39,0.75c-0.05,0.21-0.3,0.21-0.58,0
			c-0.28-0.21-0.46-0.56-0.4-0.77C-34.58-2.43-34.31-2.42-34.05-2.21"/>
		<path id="XMLID_6758_" class="st0" d="M-38.96,6.24c0.49,0.21,0.76,0.72,0.62,1.17c-0.14,0.45-0.67,0.68-1.2,0.48
			c-0.53-0.2-0.83-0.76-0.65-1.23C-40.01,6.2-39.45,6.02-38.96,6.24"/>
		<path id="XMLID_6654_" class="st0" d="M-38.2,4.07c0.46,0.23,0.71,0.7,0.59,1.09c-0.12,0.39-0.6,0.56-1.08,0.34
			c-0.48-0.22-0.76-0.74-0.61-1.14C-39.16,3.96-38.66,3.84-38.2,4.07"/>
		<path id="XMLID_6653_" class="st0" d="M-37.54,2.18c0.42,0.24,0.66,0.68,0.55,1.03c-0.11,0.34-0.54,0.45-0.98,0.22
			c-0.44-0.23-0.71-0.72-0.58-1.07C-38.42,2.01-37.97,1.94-37.54,2.18"/>
		<path id="XMLID_6560_" class="st0" d="M-36.97,0.51c0.38,0.24,0.61,0.67,0.52,0.97c-0.09,0.3-0.49,0.37-0.9,0.14
			c-0.41-0.24-0.66-0.7-0.54-1.01C-37.77,0.3-37.36,0.27-36.97,0.51"/>
		<path id="XMLID_6559_" class="st0" d="M-36.46-0.97c0.36,0.25,0.57,0.65,0.49,0.92c-0.08,0.27-0.45,0.3-0.83,0.06
			c-0.38-0.24-0.61-0.68-0.51-0.95C-37.2-1.21-36.82-1.21-36.46-0.97"/>
		<path id="XMLID_6558_" class="st0" d="M-36.01-2.29c0.33,0.25,0.54,0.63,0.46,0.87c-0.08,0.24-0.41,0.25-0.76,0
			c-0.35-0.25-0.57-0.66-0.48-0.9C-36.69-2.56-36.34-2.54-36.01-2.29"/>
		<path id="XMLID_6557_" class="st0" d="M-35.6-3.48c0.31,0.25,0.5,0.61,0.43,0.83c-0.07,0.22-0.38,0.21-0.7-0.04
			c-0.33-0.25-0.53-0.64-0.45-0.86C-36.24-3.77-35.91-3.73-35.6-3.48"/>
		<path id="XMLID_6556_" class="st0" d="M-26.87,3.18c-0.11,0.31-0.19,0.41-0.45,0.41c-0.25,0-0.34-0.09-0.45-0.41l-0.81-2.28
			c-0.01-0.04-0.05-0.11-0.08-0.11c-0.05,0-0.05,0.09-0.05,0.1l0.01,2.67h-0.6V0.54c0-0.45,0.42-0.45,0.51-0.45
			c0.23,0,0.42,0.06,0.56,0.44l0.82,2.28c0.03,0.07,0.06,0.13,0.09,0.13c0.03,0,0.06-0.05,0.08-0.13l0.82-2.28
			c0.14-0.38,0.32-0.44,0.56-0.44c0.3,0,0.51,0.14,0.51,0.45v3.01h-0.6l0.02-2.67c0-0.09-0.04-0.1-0.06-0.1
			c-0.03,0-0.06,0.07-0.08,0.11L-26.87,3.18z"/>
		<path id="XMLID_6551_" class="st0" d="M-23.7,0.48c0.11-0.29,0.23-0.39,0.52-0.39c0.27,0,0.41,0.1,0.52,0.39l1.19,3.08h-0.63
			l-0.33-0.87h-1.52l-0.32,0.87h-0.63L-23.7,0.48z M-23.79,2.23L-23.79,2.23h1.22l-0.52-1.39c-0.02-0.05-0.05-0.14-0.09-0.14
			c-0.04,0-0.07,0.09-0.09,0.14L-23.79,2.23z"/>
		<path id="XMLID_6550_" class="st0" d="M-19.98,3.56c-0.3,0-0.72-0.04-1.01-0.4c-0.3-0.36-0.32-0.89-0.32-1.26
			c0-0.49,0.04-0.99,0.31-1.33c0.32-0.4,0.81-0.43,1.04-0.43h1.27v0.52h-0.99c-0.35,0-0.65,0.02-0.83,0.32
			c-0.1,0.15-0.18,0.41-0.18,0.92c0,0.51,0.09,0.72,0.15,0.83c0.16,0.27,0.45,0.33,0.83,0.33h1.07v0.51H-19.98z"/>
		<polygon id="XMLID_6548_" class="st0" points="-16.94,3.56 -16.94,0.65 -18.18,0.65 -18.18,0.13 -15.11,0.13 -15.11,0.65 
			-16.35,0.65 -16.35,3.56 		"/>
		<path id="XMLID_6547_" class="st0" d="M-14.08,3.56c-0.14,0-0.26,0-0.36-0.11c-0.11-0.11-0.12-0.27-0.12-0.4V0.62
			c0-0.14,0.04-0.27,0.11-0.36c0.1-0.12,0.26-0.13,0.38-0.13h2.03v0.52h-1.71c-0.06,0-0.12,0-0.16,0.05
			c-0.05,0.05-0.05,0.12-0.05,0.17v0.69h1.88v0.51h-1.88v0.8c0,0.05,0.02,0.11,0.04,0.13c0.04,0.04,0.11,0.05,0.2,0.05h1.69v0.51
			H-14.08z"/>
		<path id="XMLID_4550_" class="st0" d="M-8.8,0.3C-9,0.09-9.26,0.09-9.43,0.09h-1.51c-0.11,0-0.25,0.02-0.36,0.13
			C-11.4,0.34-11.4,0.48-11.4,0.6v2.95h0.6V2.3h1.48c0.18,0,0.37-0.06,0.48-0.17c0.25-0.22,0.28-0.66,0.28-0.94
			C-8.56,0.91-8.58,0.52-8.8,0.3 M-9.28,1.66L-9.28,1.66c-0.1,0.13-0.26,0.13-0.39,0.13h-1.14V0.81c0-0.06,0-0.12,0.04-0.16
			c0.04-0.05,0.1-0.04,0.14-0.04h0.96c0.1,0,0.27,0.01,0.37,0.12c0.1,0.11,0.11,0.32,0.11,0.47C-9.18,1.32-9.19,1.54-9.28,1.66"/>
		<path id="XMLID_4528_" class="st0" d="M-24.63,5.2c-0.05,0-0.1-0.01-0.15,0.04c-0.03,0.03-0.04,0.1-0.04,0.16v2.7h-0.6V5.15
			c0-0.12,0.01-0.24,0.12-0.34c0.11-0.12,0.21-0.12,0.36-0.12h1.87c0.13,0,0.25,0,0.36,0.12c0.09,0.1,0.11,0.22,0.11,0.34V8.1h-0.6
			V5.4c0-0.05,0.01-0.11-0.04-0.16c-0.04-0.05-0.1-0.04-0.14-0.04H-24.63z"/>
		<path id="XMLID_4522_" class="st0" d="M-22.01,8.1V5.2c0-0.13,0-0.26,0.11-0.38c0.1-0.11,0.25-0.13,0.36-0.13h1.5
			c0.17,0,0.43,0,0.63,0.21c0.22,0.22,0.24,0.61,0.24,0.9c0,0.28-0.03,0.72-0.28,0.94c-0.12,0.1-0.3,0.17-0.48,0.17h-1.48V8.1
			H-22.01z M-20.28,6.38L-20.28,6.38c0.13,0,0.28,0,0.39-0.13c0.09-0.12,0.1-0.34,0.1-0.47c0-0.15-0.02-0.36-0.11-0.47
			c-0.1-0.11-0.27-0.12-0.37-0.12h-0.96c-0.04,0-0.1-0.01-0.14,0.04c-0.04,0.04-0.04,0.1-0.04,0.16v0.98H-20.28z"/>
		<path id="XMLID_4520_" class="st0" d="M-16.26,8.1l0.02-2.6c0-0.05,0-0.11-0.04-0.11c-0.04,0-0.07,0.08-0.12,0.16l-1.3,2.27
			c-0.08,0.15-0.18,0.32-0.5,0.32c-0.45,0-0.46-0.39-0.46-0.59V4.69h0.59l-0.01,2.55c0,0.08,0,0.16,0.06,0.16
			c0.04,0,0.06-0.06,0.09-0.11l1.27-2.25c0.17-0.3,0.31-0.38,0.53-0.38c0.47,0,0.48,0.44,0.48,0.62V8.1H-16.26z"/>
		<polygon id="XMLID_4516_" class="st0" points="-12.18,8.1 -12.78,8.1 -12.78,6.6 -14.42,6.6 -14.42,8.1 -15.02,8.1 -15.02,4.69 
			-14.42,4.69 -14.42,6.09 -12.78,6.09 -12.78,4.69 -12.18,4.69 		"/>
		<polygon id="XMLID_4512_" class="st0" points="-10.39,8.1 -10.39,5.2 -11.62,5.2 -11.62,4.69 -8.56,4.69 -8.56,5.2 -9.8,5.2 
			-9.8,8.1 		"/>
	</g>
	<g id="XMLID_6828_">
		<path id="XMLID_6826_" class="st1" d="M-24.47,9.99h-0.36v0.85h-0.16V9.99h-0.36V9.85h0.88V9.99z"/>
		<path id="XMLID_6824_" class="st1" d="M-23.45,10.85h-0.21v-1h0.16v0.82h0l0.45-0.82h0.21v1H-23v-0.82h0L-23.45,10.85z"/>
		<path id="XMLID_6822_" class="st1" d="M-21.74,10.85h-0.16v-1h0.83v1h-0.16V9.99h-0.5V10.85z"/>
		<path id="XMLID_6819_" class="st1" d="M-20.07,9.96c0.09-0.1,0.21-0.14,0.36-0.14c0.15,0,0.27,0.05,0.35,0.14
			c0.08,0.09,0.13,0.22,0.13,0.39c0,0.17-0.04,0.3-0.13,0.39c-0.08,0.09-0.2,0.14-0.35,0.14c-0.15,0-0.27-0.05-0.36-0.14
			c-0.09-0.09-0.13-0.22-0.13-0.39C-20.21,10.19-20.16,10.06-20.07,9.96z M-19.49,10.06c-0.06-0.07-0.13-0.11-0.23-0.11
			c-0.1,0-0.17,0.04-0.23,0.11c-0.06,0.07-0.09,0.17-0.09,0.28c0,0.12,0.03,0.22,0.08,0.29s0.13,0.1,0.24,0.1
			c0.1,0,0.17-0.03,0.23-0.1c0.05-0.07,0.08-0.17,0.08-0.29C-19.41,10.23-19.44,10.13-19.49,10.06z"/>
		<path id="XMLID_6817_" class="st1" d="M-17.68,9.99h-0.52v0.85h-0.16v-1h0.69V9.99z"/>
		<path id="XMLID_6814_" class="st1" d="M-16.72,9.85v0.14c0.07-0.11,0.18-0.17,0.34-0.17c0.14,0,0.25,0.05,0.33,0.14
			c0.08,0.09,0.12,0.22,0.12,0.38c0,0.16-0.04,0.29-0.12,0.39c-0.08,0.1-0.19,0.14-0.33,0.14c-0.14,0-0.25-0.05-0.33-0.16v0.52
			h-0.16V9.85H-16.72z M-16.41,9.95c-0.1,0-0.17,0.03-0.23,0.1c-0.05,0.07-0.08,0.16-0.08,0.29c0,0.12,0.03,0.22,0.08,0.29
			c0.06,0.07,0.13,0.1,0.23,0.1c0.09,0,0.17-0.03,0.22-0.1c0.05-0.07,0.08-0.16,0.08-0.28c0-0.12-0.03-0.22-0.08-0.29
			C-16.24,9.99-16.31,9.95-16.41,9.95z"/>
		<path id="XMLID_6811_" class="st1" d="M-14.16,10.72v0.13c-0.03,0.01-0.07,0.02-0.11,0.02c-0.09,0-0.14-0.05-0.15-0.15
			c-0.09,0.11-0.21,0.16-0.36,0.16c-0.1,0-0.18-0.03-0.23-0.08c-0.06-0.05-0.09-0.12-0.09-0.21c0-0.18,0.12-0.28,0.35-0.31
			c0.14-0.02,0.22-0.03,0.24-0.04c0.05-0.02,0.07-0.05,0.08-0.1c0-0.01,0-0.02,0-0.03c0-0.11-0.08-0.16-0.23-0.16
			c-0.08,0-0.14,0.02-0.18,0.05c-0.04,0.03-0.06,0.08-0.07,0.16h-0.16c0-0.11,0.04-0.19,0.11-0.25c0.07-0.06,0.17-0.09,0.3-0.09
			c0.14,0,0.25,0.03,0.31,0.1c0.02,0.02,0.04,0.05,0.05,0.08c0.01,0.03,0.02,0.06,0.02,0.08c0,0.02,0,0.05,0,0.1
			c0,0.05,0,0.12,0,0.22c0,0.1,0,0.17,0,0.22c0,0.04,0,0.06,0.01,0.08c0.01,0.01,0.03,0.02,0.05,0.02
			C-14.19,10.72-14.18,10.72-14.16,10.72z M-14.43,10.33c-0.01,0.01-0.02,0.02-0.04,0.02c-0.01,0.01-0.03,0.01-0.05,0.02
			c-0.02,0-0.03,0.01-0.04,0.01c-0.01,0-0.02,0-0.05,0.01c-0.03,0-0.04,0-0.04,0c-0.04,0.01-0.07,0.01-0.08,0.01
			c-0.01,0-0.04,0.01-0.07,0.02c-0.03,0.01-0.06,0.02-0.07,0.03c-0.01,0.01-0.03,0.03-0.04,0.05c-0.01,0.02-0.02,0.05-0.02,0.08
			c0,0.05,0.02,0.09,0.05,0.12c0.04,0.03,0.08,0.04,0.15,0.04c0.08,0,0.15-0.02,0.21-0.07c0.06-0.05,0.09-0.1,0.09-0.16V10.33z"/>
		<path id="XMLID_6807_" class="st1" d="M-11.98,10.33c0,0.1-0.01,0.19-0.04,0.27c-0.02,0.08-0.07,0.14-0.13,0.19
			c-0.06,0.05-0.14,0.08-0.24,0.08c-0.04,0-0.07-0.01-0.12-0.03c-0.04-0.02-0.07-0.04-0.09-0.07h0v0.46h-0.16v-0.46h0
			c-0.02,0.02-0.05,0.05-0.09,0.07c-0.04,0.02-0.08,0.03-0.12,0.03c-0.09,0-0.17-0.03-0.24-0.08c-0.06-0.05-0.11-0.12-0.13-0.19
			c-0.02-0.08-0.04-0.17-0.04-0.27c0-0.16,0.03-0.28,0.1-0.37c0.07-0.09,0.16-0.14,0.28-0.14c0.04,0,0.08,0.01,0.13,0.03
			c0.04,0.02,0.07,0.05,0.09,0.07h0.01V9.47h0.16v0.46h0.01c0.02-0.03,0.05-0.05,0.09-0.07c0.04-0.02,0.09-0.03,0.13-0.03
			c0.12,0,0.21,0.05,0.28,0.14C-12.02,10.05-11.98,10.17-11.98,10.33z M-12.76,10.6v-0.5c-0.01-0.05-0.04-0.08-0.08-0.11
			c-0.04-0.02-0.08-0.03-0.12-0.03c-0.08,0-0.14,0.03-0.18,0.1c-0.04,0.07-0.06,0.16-0.06,0.27c0,0.05,0,0.1,0.01,0.14
			c0.01,0.04,0.02,0.09,0.04,0.13c0.02,0.04,0.04,0.07,0.08,0.1c0.03,0.02,0.08,0.03,0.12,0.03c0.05,0,0.09-0.01,0.13-0.04
			C-12.79,10.67-12.77,10.64-12.76,10.6z M-12.15,10.34c0-0.11-0.02-0.21-0.06-0.27c-0.04-0.07-0.1-0.1-0.18-0.1
			c-0.04,0-0.08,0.01-0.12,0.03c-0.04,0.02-0.07,0.06-0.08,0.11v0.5c0.01,0.04,0.03,0.07,0.06,0.09c0.04,0.03,0.08,0.04,0.13,0.04
			c0.05,0,0.09-0.01,0.12-0.03c0.03-0.02,0.06-0.06,0.08-0.1c0.02-0.04,0.03-0.08,0.04-0.13C-12.16,10.43-12.15,10.39-12.15,10.34z"
			/>
		<path id="XMLID_6805_" class="st1" d="M-10.89,10.85h-0.21v-1h0.16v0.82h0l0.45-0.82h0.21v1h-0.16v-0.82h0L-10.89,10.85z"/>
		<path id="XMLID_6762_" class="st1" d="M-8.56,10.85h-0.16v-0.41h-0.22l-0.32,0.41h-0.22l0.34-0.41c-0.07-0.01-0.13-0.04-0.18-0.09
			c-0.05-0.05-0.07-0.12-0.07-0.2c0-0.09,0.03-0.17,0.08-0.22c0.06-0.05,0.13-0.08,0.23-0.08h0.51V10.85z M-8.73,9.99h-0.29
			c-0.13,0-0.2,0.05-0.2,0.15c0,0.1,0.07,0.15,0.2,0.15h0.29V9.99z"/>
	</g>
</g>
<g id="XMLID_218_">
	<path id="XMLID_224_" class="st1" d="M0,4.03c0-0.6,0-1.19,0-1.79c0.01-0.01,0.01-0.02,0.01-0.02c0-0.01,0-0.02,0-0.03
		c0-0.04,0-0.07,0-0.11c0-0.01,0-0.02,0-0.03c0-0.03,0-0.06,0-0.09c0-0.02,0-0.04,0-0.06c0-0.02,0-0.04,0-0.06c0-0.02,0-0.04,0-0.05
		c0-0.04,0.01-0.08,0.01-0.11c0-0.03,0-0.05,0.01-0.08c0-0.04,0.01-0.08,0.02-0.11C0.07,1.42,0.08,1.36,0.1,1.29
		c0.02-0.07,0.04-0.14,0.07-0.21c0.01-0.01,0.01-0.02,0.01-0.04c0-0.01,0.01-0.02,0.01-0.03c0.02-0.04,0.04-0.09,0.06-0.13
		c0.03-0.06,0.07-0.12,0.11-0.18c0.05-0.07,0.1-0.13,0.16-0.18C0.55,0.51,0.56,0.5,0.58,0.48c0.04-0.04,0.08-0.07,0.12-0.1
		c0.04-0.03,0.09-0.06,0.14-0.09c0.09-0.05,0.19-0.1,0.29-0.14c0.06-0.02,0.13-0.04,0.19-0.06c0.04-0.01,0.07-0.02,0.11-0.02
		c0.05-0.01,0.1-0.02,0.15-0.02c0.05-0.01,0.11-0.01,0.16-0.02c0.01,0,0.02,0,0.02,0c0.01,0,0.02,0,0.03,0c0.02,0,0.05,0,0.07,0
		c0.02,0,0.03,0,0.05,0c0.03,0,0.07,0,0.11,0c0.02,0,0.03,0,0.05,0c0.02,0,0.04,0,0.05,0c0.03,0,0.07,0,0.1,0
		c0.01,0,0.03,0,0.04-0.01c0.6,0,1.19,0,1.79,0c0.01,0.01,0.03,0,0.04,0.01c0.04,0,0.07,0,0.11,0c0.01,0,0.02,0,0.04,0
		c0.03,0,0.05,0,0.08,0c0.02,0,0.04,0,0.07,0c0.02,0,0.05,0,0.07,0c0.02,0,0.04,0,0.06,0c0.03,0,0.07,0.01,0.1,0.01
		c0.03,0,0.06,0,0.09,0.01c0.07,0.01,0.13,0.02,0.2,0.03c0.08,0.02,0.16,0.04,0.24,0.07c0.01,0,0.01,0,0.02,0.01
		c0.05,0.02,0.1,0.04,0.15,0.06c0.08,0.04,0.16,0.08,0.23,0.13C5.57,0.36,5.6,0.39,5.64,0.43C5.73,0.5,5.8,0.57,5.87,0.66
		c0.04,0.05,0.08,0.11,0.11,0.16c0.04,0.06,0.07,0.12,0.1,0.18c0.03,0.07,0.06,0.15,0.08,0.22C6.2,1.35,6.22,1.47,6.24,1.6
		c0.01,0.05,0.01,0.1,0.01,0.15c0,0,0,0.01,0,0.01c0,0.02,0,0.05,0,0.07c0,0.01,0,0.03,0,0.04c0,0.02,0,0.05,0,0.07
		c0,0.02,0,0.04,0,0.07c0,0.01,0,0.02,0,0.04c0,0.73,0,1.46,0,2.18c0,0.01,0,0.03,0,0.04c0,0.05,0,0.09-0.01,0.14
		c0,0.05,0,0.09-0.01,0.14c0,0.01,0,0.01,0,0.02C6.24,4.62,6.24,4.66,6.23,4.71C6.23,4.75,6.22,4.8,6.21,4.84
		C6.19,4.98,6.14,5.12,6.09,5.25C6.07,5.3,6.05,5.34,6.02,5.39C5.99,5.44,5.96,5.48,5.93,5.53C5.9,5.58,5.86,5.63,5.82,5.67
		C5.78,5.71,5.75,5.75,5.71,5.78C5.66,5.83,5.6,5.88,5.55,5.92c-0.05,0.04-0.1,0.07-0.16,0.1C5.3,6.07,5.21,6.1,5.12,6.14
		c-0.1,0.03-0.2,0.06-0.3,0.08C4.72,6.23,4.63,6.24,4.53,6.25c0,0-0.01,0-0.01,0c-0.02,0-0.05,0-0.07,0c-0.01,0-0.02,0-0.03,0
		c-0.04,0-0.08,0-0.12,0.01c-0.01,0-0.02,0-0.04,0c-0.02,0-0.04,0-0.06,0c-0.04,0-0.07,0-0.11,0c-0.01,0-0.03,0-0.04,0
		c-0.59,0-1.17,0-1.76,0C2.28,6.26,2.27,6.26,2.25,6.26c-0.05,0-0.1,0-0.15,0c-0.01,0-0.03,0-0.04,0c-0.02,0-0.05,0-0.07,0
		c-0.03,0-0.06,0-0.1,0c-0.01,0-0.02,0-0.02,0c-0.01,0-0.02,0-0.04,0c-0.04,0-0.08-0.01-0.13-0.01c-0.03,0-0.06-0.01-0.09-0.01
		c-0.02,0-0.03,0-0.05-0.01C1.54,6.22,1.5,6.22,1.46,6.21C1.4,6.2,1.33,6.18,1.27,6.16C1.2,6.15,1.14,6.13,1.08,6.1
		C1.03,6.08,0.97,6.06,0.92,6.03C0.88,6.01,0.85,5.99,0.81,5.97C0.73,5.92,0.65,5.85,0.58,5.79C0.5,5.72,0.43,5.64,0.37,5.56
		C0.33,5.5,0.29,5.44,0.25,5.37C0.22,5.31,0.2,5.26,0.17,5.2C0.15,5.13,0.13,5.07,0.11,5C0.09,4.96,0.08,4.92,0.08,4.87
		C0.06,4.8,0.05,4.73,0.04,4.65c0-0.02,0-0.05-0.01-0.07c0-0.02,0-0.04-0.01-0.06c0,0,0-0.01,0-0.01c0-0.02,0-0.04,0-0.07
		c0-0.02,0-0.03,0-0.05c0-0.03,0-0.07,0-0.11c0-0.01,0-0.03,0-0.04c0-0.02,0-0.05,0-0.08c0-0.03,0-0.06,0-0.09c0-0.01,0-0.02,0-0.03
		C0.01,4.05,0.01,4.04,0,4.03z M3.14,0.57C3.14,0.57,3.14,0.57,3.14,0.57c-0.08,0-0.16,0-0.23,0c-0.16,0-0.32,0-0.49,0
		c-0.02,0-0.03,0-0.05,0c-0.03,0-0.05,0-0.08,0c-0.05,0-0.1,0-0.16,0c-0.01,0-0.02,0-0.03,0c-0.04,0-0.08,0-0.12,0
		c-0.01,0-0.03,0-0.04,0c-0.02,0-0.03,0-0.05,0c-0.03,0-0.07,0-0.1,0.01c-0.01,0-0.02,0-0.03,0c-0.01,0-0.02,0-0.02,0
		C1.71,0.6,1.68,0.6,1.65,0.6C1.56,0.62,1.48,0.63,1.39,0.66C1.33,0.68,1.28,0.7,1.22,0.72c-0.1,0.05-0.19,0.11-0.28,0.19
		c-0.04,0.03-0.07,0.07-0.1,0.11C0.81,1.07,0.78,1.12,0.75,1.17c-0.04,0.08-0.07,0.17-0.1,0.26C0.63,1.51,0.61,1.6,0.6,1.69
		c0,0.03-0.01,0.07-0.01,0.1c0,0,0,0.01,0,0.01c0,0.02,0,0.04,0,0.05c0,0.02,0,0.04,0,0.07c0,0.02,0,0.04,0,0.06
		c0,0.03,0,0.06,0,0.08c0,0.03,0,0.06,0,0.09c0,0.04,0,0.09,0,0.13c0,0.01,0,0.02,0,0.03c0,0.03,0,0.07,0,0.1c0,0.47,0,0.93,0,1.4
		c0,0.04,0,0.07,0,0.11c0,0.01,0,0.02,0,0.02c0,0.06,0,0.13,0,0.19c0,0.01,0,0.02,0,0.03c0,0.04,0,0.08,0,0.12c0,0.02,0,0.03,0,0.05
		c0,0.02,0,0.03,0,0.05c0,0.03,0,0.06,0.01,0.1c0,0.01,0,0.02,0,0.03c0,0.01,0,0.02,0,0.02c0,0.04,0.01,0.09,0.02,0.13
		C0.63,4.73,0.64,4.8,0.66,4.87c0.02,0.08,0.06,0.16,0.1,0.24C0.79,5.18,0.84,5.25,0.9,5.32C0.94,5.36,0.98,5.4,1.03,5.43
		c0.04,0.03,0.09,0.06,0.13,0.09c0.09,0.05,0.19,0.09,0.29,0.11c0.1,0.03,0.2,0.04,0.31,0.05c0.01,0,0.01,0,0.02,0
		c0.02,0,0.04,0,0.06,0c0.02,0,0.03,0,0.05,0c0.03,0,0.06,0,0.09,0c0.02,0,0.03,0,0.05,0c0.03,0,0.06,0,0.08,0c0.03,0,0.06,0,0.09,0
		c0.01,0,0.02,0,0.03,0c0.03,0,0.05,0,0.08,0c0.03,0,0.07,0,0.1,0c0.42,0,0.83,0,1.25,0c0.09,0,0.19,0,0.28,0c0.02,0,0.03,0,0.05,0
		c0.02,0,0.05,0,0.07,0c0.04,0,0.07,0,0.11,0c0.01,0,0.02,0,0.03,0c0.04,0,0.08,0,0.11,0c0.01,0,0.02,0,0.04,0c0.03,0,0.05,0,0.08,0
		c0.01,0,0.02,0,0.04,0c0.03,0,0.07-0.01,0.1-0.01c0.06-0.01,0.12-0.01,0.18-0.03c0.1-0.02,0.19-0.05,0.28-0.09
		c0.08-0.03,0.15-0.08,0.22-0.13c0.06-0.05,0.12-0.1,0.16-0.16c0.02-0.03,0.05-0.06,0.07-0.09c0.04-0.06,0.07-0.12,0.09-0.19
		c0.03-0.07,0.05-0.15,0.07-0.22c0.01-0.06,0.02-0.11,0.03-0.17c0-0.03,0.01-0.06,0.01-0.1c0-0.01,0-0.01,0-0.02
		c0-0.02,0-0.04,0-0.06c0-0.02,0-0.04,0-0.06c0-0.03,0-0.06,0-0.09c0-0.02,0-0.04,0-0.07c0-0.02,0-0.04,0-0.05c0-0.04,0-0.09,0-0.13
		c0-0.01,0-0.02,0-0.04c0-0.02,0-0.04,0-0.06c0-0.03,0-0.06,0-0.09c0-0.39,0-0.78,0-1.16c0-0.11,0-0.22,0-0.33c0-0.02,0-0.03,0-0.05
		c0-0.02,0-0.05,0-0.07c0-0.04,0-0.07,0-0.11c0-0.01,0-0.03,0-0.04c0-0.03,0-0.06,0-0.1c0-0.02,0-0.03,0-0.05c0-0.03,0-0.06,0-0.09
		c0-0.02,0-0.03,0-0.04c0-0.01,0-0.01,0-0.02c0-0.04-0.01-0.08-0.01-0.12C5.66,1.58,5.65,1.51,5.63,1.44
		C5.62,1.37,5.59,1.3,5.56,1.23C5.54,1.17,5.51,1.12,5.47,1.07C5.44,1.03,5.42,1,5.39,0.97C5.35,0.93,5.31,0.89,5.26,0.85
		C5.2,0.79,5.12,0.75,5.05,0.72C4.96,0.68,4.88,0.65,4.79,0.63C4.75,0.62,4.71,0.62,4.67,0.61c-0.03,0-0.06-0.01-0.09-0.01
		c-0.03,0-0.07-0.01-0.1-0.01c0,0-0.01,0-0.01,0c-0.02,0-0.03,0-0.05,0c-0.02,0-0.05,0-0.07,0c-0.03,0-0.06,0-0.09,0
		c-0.03,0-0.05,0-0.08,0c-0.02,0-0.03,0-0.05,0c-0.06,0-0.12,0-0.19,0c-0.01,0-0.02,0-0.03,0c-0.02,0-0.05,0-0.08,0
		C3.62,0.57,3.38,0.57,3.14,0.57z"/>
	<path id="XMLID_221_" class="st1" d="M3.14,4.75c-0.02,0-0.04,0-0.06,0c-0.01,0-0.03,0-0.04,0c-0.01,0-0.01,0-0.02,0
		C2.93,4.74,2.83,4.72,2.74,4.7C2.65,4.67,2.56,4.64,2.48,4.61c-0.1-0.04-0.19-0.1-0.27-0.16C2.16,4.41,2.11,4.38,2.07,4.34
		C2.05,4.32,2.03,4.3,2.02,4.29C1.99,4.26,1.97,4.24,1.94,4.21C1.92,4.19,1.9,4.16,1.87,4.13C1.81,4.05,1.75,3.96,1.71,3.87
		c-0.02-0.05-0.05-0.1-0.07-0.15C1.61,3.64,1.58,3.55,1.56,3.46C1.55,3.41,1.54,3.36,1.54,3.32c0-0.03-0.01-0.07-0.01-0.1
		c0-0.01,0-0.02,0-0.03c0-0.03,0-0.05,0-0.08c0-0.02,0-0.04,0-0.06c0-0.01,0-0.01,0-0.02c0.01-0.1,0.02-0.19,0.04-0.28
		C1.6,2.67,1.62,2.6,1.65,2.53c0.05-0.11,0.1-0.22,0.18-0.32c0.03-0.04,0.06-0.08,0.09-0.11c0.05-0.05,0.1-0.11,0.15-0.15
		C2.08,1.92,2.1,1.91,2.12,1.89c0.08-0.06,0.16-0.12,0.24-0.17c0.07-0.04,0.14-0.07,0.22-0.1C2.64,1.6,2.69,1.59,2.75,1.57
		c0.05-0.01,0.1-0.02,0.15-0.03C2.95,1.53,3,1.53,3.04,1.53c0.01,0,0.01,0,0.01,0c0.04-0.01,0.08,0,0.12,0c0.01,0,0.02,0,0.03,0
		c0.01,0,0.02,0,0.04,0c0.09,0.01,0.18,0.02,0.26,0.04C3.6,1.59,3.69,1.62,3.78,1.65c0.09,0.04,0.17,0.08,0.25,0.13
		c0.05,0.04,0.1,0.07,0.15,0.12C4.24,1.95,4.29,2,4.34,2.05C4.38,2.1,4.42,2.15,4.45,2.2C4.48,2.24,4.5,2.27,4.53,2.32
		C4.6,2.43,4.65,2.56,4.69,2.69C4.71,2.74,4.72,2.8,4.73,2.86C4.74,2.9,4.74,2.94,4.74,2.98c0,0.04,0.01,0.08,0.01,0.13
		c0,0.03,0,0.05,0,0.08c0,0.02,0,0.04,0,0.06c0,0,0,0.01,0,0.01c0,0.06-0.01,0.12-0.02,0.18C4.71,3.5,4.7,3.57,4.67,3.63
		c-0.02,0.05-0.04,0.1-0.06,0.15C4.59,3.86,4.55,3.93,4.5,4C4.47,4.05,4.43,4.11,4.39,4.16C4.37,4.18,4.35,4.2,4.33,4.22
		C4.32,4.24,4.3,4.25,4.29,4.27C4.22,4.34,4.14,4.4,4.06,4.46c-0.07,0.05-0.15,0.1-0.23,0.14C3.76,4.63,3.69,4.65,3.61,4.68
		C3.57,4.69,3.53,4.7,3.48,4.71c-0.05,0.01-0.1,0.02-0.16,0.03C3.26,4.74,3.2,4.75,3.14,4.75z M3.14,2.09
		c-0.57,0-1.04,0.47-1.04,1.04C2.09,3.4,2.21,3.68,2.41,3.88c0.2,0.2,0.45,0.3,0.73,0.3c0.29,0,0.54-0.11,0.74-0.31
		c0.2-0.2,0.3-0.45,0.3-0.73c0-0.28-0.1-0.53-0.3-0.73C3.69,2.2,3.41,2.09,3.14,2.09z"/>
	<path id="XMLID_220_" class="st1" d="M5.19,1.47c0,0.05-0.01,0.1-0.03,0.15C5.13,1.68,5.08,1.74,5.01,1.78
		C4.98,1.81,4.94,1.82,4.9,1.83C4.87,1.84,4.84,1.84,4.82,1.85c0,0-0.01,0-0.01,0c-0.05,0-0.1-0.01-0.15-0.03
		C4.6,1.79,4.56,1.75,4.52,1.71C4.43,1.6,4.41,1.47,4.45,1.35C4.47,1.3,4.5,1.25,4.54,1.21C4.57,1.17,4.6,1.15,4.64,1.13
		C4.67,1.11,4.69,1.1,4.72,1.1C4.8,1.08,4.88,1.08,4.96,1.12C5,1.13,5.04,1.16,5.07,1.19C5.08,1.2,5.09,1.21,5.1,1.22
		c0.05,0.05,0.07,0.12,0.08,0.18C5.19,1.43,5.19,1.45,5.19,1.47z"/>
</g>
</svg>
