<?xml version="1.0" encoding="utf-8"?>
<!-- Generator: Adobe Illustrator 21.1.0, SVG Export Plug-In . SVG Version: 6.00 Build 0)  -->
<svg version="1.1" id="Layer_1" xmlns="http://www.w3.org/2000/svg" xmlns:xlink="http://www.w3.org/1999/xlink" x="0px" y="0px"
	 viewBox="0 0 160.3 79.26" style="enable-background:new 0 0 160.3 79.26;" xml:space="preserve">
<style type="text/css">
	.st0{fill-rule:evenodd;clip-rule:evenodd;fill:#FFFFFF;}
	.st1{fill:#FFFFFF;}
</style>
<g id="XMLID_6830_">
	<g id="XMLID_4510_">
		<path id="XMLID_6797_" class="st0" d="M60.59,74.69c0.81,0.35,1.45,1.61,1.45,2.84c0,1.22-0.67,1.97-1.51,1.66
			c-0.83-0.34-1.51-1.66-1.49-2.9C59.07,75.04,59.78,74.34,60.59,74.69"/>
		<path id="XMLID_6796_" class="st0" d="M60.71,65.86c0.76,0.4,1.38,1.6,1.38,2.71c-0.01,1.11-0.64,1.73-1.44,1.36
			c-0.78-0.38-1.42-1.64-1.4-2.77C59.26,66.03,59.94,65.47,60.71,65.86"/>
		<path id="XMLID_6795_" class="st0" d="M60.79,57.83c0.73,0.43,1.32,1.57,1.32,2.59c-0.01,1.01-0.61,1.52-1.36,1.11
			c-0.74-0.42-1.37-1.61-1.34-2.65C59.43,57.84,60.05,57.38,60.79,57.83"/>
		<path id="XMLID_6794_" class="st0" d="M60.87,50.48c0.7,0.45,1.26,1.55,1.25,2.48c0,0.93-0.57,1.35-1.29,0.9
			c-0.72-0.44-1.29-1.6-1.28-2.54C59.57,50.39,60.17,50.02,60.87,50.48"/>
		<path id="XMLID_6793_" class="st0" d="M54.1,71.72c0.97,0.42,1.69,1.84,1.63,3.21c-0.06,1.37-0.89,2.21-1.9,1.82
			c-1.01-0.39-1.78-1.89-1.69-3.3C52.23,72.06,53.13,71.3,54.1,71.72"/>
		<path id="XMLID_6792_" class="st0" d="M54.55,62.55c0.92,0.47,1.6,1.82,1.55,3.05c-0.05,1.24-0.82,1.92-1.78,1.48
			c-0.94-0.45-1.66-1.88-1.58-3.14C52.81,62.68,53.65,62.09,54.55,62.55"/>
		<path id="XMLID_6791_" class="st0" d="M54.96,54.26c0.87,0.51,1.52,1.8,1.48,2.92c-0.05,1.12-0.78,1.67-1.67,1.17
			c-0.89-0.49-1.59-1.85-1.52-2.98C53.31,54.24,54.1,53.75,54.96,54.26"/>
		<path id="XMLID_6790_" class="st0" d="M55.3,46.74c0.84,0.53,1.45,1.77,1.42,2.78c-0.03,1.01-0.75,1.46-1.59,0.95
			c-0.85-0.52-1.5-1.84-1.45-2.86C53.74,46.57,54.48,46.2,55.3,46.74"/>
		<path id="XMLID_6789_" class="st0" d="M46.83,68.41c1.15,0.5,1.97,2.11,1.84,3.63c-0.13,1.52-1.19,2.44-2.39,1.98
			c-1.21-0.47-2.07-2.17-1.9-3.73C44.55,68.72,45.66,67.91,46.83,68.41"/>
		<path id="XMLID_6788_" class="st0" d="M47.73,58.9c1.1,0.55,1.86,2.07,1.75,3.44c-0.12,1.37-1.09,2.09-2.22,1.57
			c-1.13-0.53-1.94-2.14-1.8-3.54C45.6,58.97,46.65,58.34,47.73,58.9"/>
		<path id="XMLID_6787_" class="st0" d="M48.51,50.35c1.03,0.6,1.75,2.05,1.66,3.28c-0.09,1.23-1.01,1.8-2.07,1.22
			c-1.06-0.58-1.84-2.11-1.71-3.37C46.5,50.24,47.47,49.76,48.51,50.35"/>
		<path id="XMLID_6786_" class="st0" d="M49.17,42.65c0.96,0.63,1.68,2,1.59,3.1c-0.07,1.13-0.93,1.58-1.93,0.96
			c-1.01-0.61-1.76-2.09-1.65-3.22C47.29,42.36,48.2,42.01,49.17,42.65"/>
		<path id="XMLID_6785_" class="st0" d="M38.65,64.7c1.4,0.6,2.3,2.4,2.08,4.1c-0.22,1.69-1.55,2.69-3.01,2.14
			c-1.46-0.55-2.45-2.51-2.16-4.24C35.85,64.96,37.25,64.1,38.65,64.7"/>
		<path id="XMLID_6784_" class="st0" d="M40.07,54.83c1.3,0.66,2.18,2.37,1.99,3.87c-0.2,1.51-1.42,2.28-2.78,1.65
			c-1.36-0.64-2.29-2.47-2.05-4C37.48,54.81,38.76,54.16,40.07,54.83"/>
		<path id="XMLID_6783_" class="st0" d="M41.3,46.02c1.22,0.71,2.06,2.34,1.89,3.67c-0.17,1.35-1.3,1.94-2.57,1.26
			c-1.28-0.69-2.16-2.42-1.95-3.78C38.87,45.81,40.06,45.3,41.3,46.02"/>
		<path id="XMLID_6782_" class="st0" d="M42.36,38.13c1.15,0.74,1.95,2.26,1.81,3.48c-0.15,1.2-1.21,1.67-2.4,0.94
			c-1.2-0.72-2.03-2.37-1.85-3.59C40.09,37.72,41.2,37.38,42.36,38.13"/>
		<path id="XMLID_6781_" class="st0" d="M43.28,30.97c1.1,0.77,1.86,2.25,1.73,3.34c-0.12,1.09-1.13,1.42-2.25,0.67
			c-1.12-0.75-1.93-2.32-1.77-3.42C41.15,30.46,42.2,30.21,43.28,30.97"/>
		<path id="XMLID_6780_" class="st0" d="M44.11,24.49c1.05,0.78,1.77,2.19,1.65,3.19c-0.11,1.01-1.04,1.23-2.12,0.46
			c-1.07-0.77-1.83-2.26-1.69-3.27C42.1,23.85,43.08,23.71,44.11,24.49"/>
		<path id="XMLID_6779_" class="st0" d="M44.84,18.57c1,0.8,1.69,2.14,1.59,3.06c-0.11,0.91-0.98,1.05-2,0.27
			c-1.01-0.79-1.75-2.21-1.63-3.13C42.93,17.84,43.85,17.78,44.84,18.57"/>
		<path id="XMLID_6778_" class="st0" d="M29.37,60.51c1.69,0.73,2.74,2.77,2.38,4.63c-0.35,1.87-2.02,2.94-3.8,2.28
			c-1.77-0.68-2.91-2.9-2.47-4.83C25.92,60.67,27.68,59.78,29.37,60.51"/>
		<path id="XMLID_6777_" class="st0" d="M31.44,50.27c1.57,0.79,2.55,2.71,2.26,4.37c-0.29,1.65-1.84,2.46-3.47,1.7
			c-1.65-0.76-2.72-2.84-2.36-4.53C28.24,50.13,29.87,49.46,31.44,50.27"/>
		<path id="XMLID_6776_" class="st0" d="M33.21,41.2c1.46,0.85,2.39,2.66,2.13,4.13c-0.25,1.47-1.66,2.08-3.18,1.25
			c-1.53-0.8-2.54-2.77-2.22-4.26C30.26,40.83,31.75,40.36,33.21,41.2"/>
		<path id="XMLID_6775_" class="st0" d="M34.76,33.11c1.37,0.87,2.26,2.59,2.04,3.9c-0.23,1.32-1.53,1.76-2.96,0.92
			c-1.42-0.86-2.39-2.72-2.11-4.05C32.01,32.54,33.38,32.24,34.76,33.11"/>
		<path id="XMLID_6774_" class="st0" d="M36.13,25.84c1.28,0.9,2.14,2.54,1.94,3.72c-0.2,1.18-1.42,1.5-2.75,0.62
			c-1.34-0.89-2.26-2.65-2.01-3.85C33.55,25.13,34.83,24.94,36.13,25.84"/>
		<path id="XMLID_6773_" class="st0" d="M37.33,19.27c1.21,0.91,2.03,2.48,1.85,3.55c-0.18,1.07-1.31,1.26-2.57,0.36
			c-1.27-0.91-2.13-2.59-1.91-3.66C34.91,18.44,36.11,18.36,37.33,19.27"/>
		<path id="XMLID_6772_" class="st0" d="M38.41,13.3c1.15,0.92,1.93,2.42,1.77,3.4c-0.16,0.98-1.23,1.08-2.42,0.16
			c-1.18-0.92-2.02-2.53-1.83-3.5C36.13,12.38,37.26,12.38,38.41,13.3"/>
		<path id="XMLID_6771_" class="st0" d="M18.76,55.73c2.05,0.88,3.23,3.18,2.72,5.24c-0.52,2.06-2.62,3.18-4.78,2.36
			c-2.16-0.82-3.48-3.34-2.86-5.47C14.47,55.74,16.71,54.84,18.76,55.73"/>
		<path id="XMLID_6770_" class="st0" d="M21.59,45.12c1.89,0.96,3.02,3.11,2.59,4.91c-0.44,1.81-2.37,2.63-4.35,1.73
			c-1.99-0.91-3.23-3.26-2.7-5.11C17.67,44.8,19.7,44.18,21.59,45.12"/>
		<path id="XMLID_6769_" class="st0" d="M24.06,35.8c1.74,1,2.82,3.03,2.44,4.63c-0.38,1.6-2.13,2.2-3.97,1.22
			c-1.84-0.97-3.02-3.18-2.55-4.81C20.45,35.22,22.31,34.8,24.06,35.8"/>
		<path id="XMLID_6768_" class="st0" d="M26.2,27.53c1.64,1.03,2.66,2.94,2.32,4.38c-0.34,1.41-1.96,1.83-3.67,0.81
			c-1.71-1.01-2.81-3.1-2.4-4.53C22.88,26.74,24.59,26.5,26.2,27.53"/>
		<path id="XMLID_6767_" class="st0" d="M28.11,20.15c1.53,1.05,2.49,2.88,2.2,4.15c-0.3,1.26-1.79,1.54-3.39,0.49
			c-1.59-1.04-2.63-3.03-2.28-4.3C25.01,19.21,26.59,19.08,28.11,20.15"/>
		<path id="XMLID_6766_" class="st0" d="M29.79,13.5c1.43,1.07,2.35,2.81,2.09,3.96c-0.27,1.15-1.66,1.28-3.14,0.22
			c-1.49-1.05-2.48-2.93-2.16-4.08C26.92,12.44,28.37,12.44,29.79,13.5"/>
		<path id="XMLID_6765_" class="st0" d="M31.31,7.5c1.34,1.06,2.22,2.74,1.98,3.78c-0.24,1.05-1.54,1.07-2.93,0
			c-1.4-1.07-2.34-2.86-2.04-3.89C28.61,6.35,29.97,6.43,31.31,7.5"/>
		<path id="XMLID_6758_" class="st0" d="M6.47,50.24c2.5,1.08,3.86,3.66,3.14,5.93c-0.73,2.26-3.39,3.42-6.06,2.41
			c-2.66-1.01-4.19-3.87-3.3-6.2C1.14,50.04,3.97,49.16,6.47,50.24"/>
		<path id="XMLID_6654_" class="st0" d="M10.29,39.27c2.3,1.14,3.59,3.56,2.96,5.53c-0.63,1.97-3.05,2.81-5.48,1.7
			c-2.44-1.09-3.86-3.76-3.11-5.79C5.43,38.7,7.99,38.13,10.29,39.27"/>
		<path id="XMLID_6653_" class="st0" d="M13.61,29.7c2.11,1.2,3.32,3.46,2.78,5.19c-0.56,1.73-2.73,2.29-4.98,1.13
			c-2.24-1.17-3.58-3.66-2.92-5.41C9.17,28.85,11.48,28.5,13.61,29.7"/>
		<path id="XMLID_6560_" class="st0" d="M16.53,21.26c1.94,1.23,3.1,3.37,2.62,4.9c-0.48,1.52-2.48,1.9-4.55,0.69
			c-2.06-1.21-3.32-3.56-2.74-5.11C12.45,20.18,14.56,20.04,16.53,21.26"/>
		<path id="XMLID_6559_" class="st0" d="M19.09,13.78c1.81,1.24,2.9,3.29,2.48,4.65c-0.42,1.35-2.28,1.54-4.18,0.31
			c-1.9-1.23-3.08-3.45-2.57-4.81C15.34,12.55,17.29,12.53,19.09,13.78"/>
		<path id="XMLID_6558_" class="st0" d="M21.39,7.09c1.69,1.26,2.71,3.19,2.33,4.42c-0.38,1.22-2.07,1.27-3.85,0.02
			c-1.76-1.25-2.87-3.35-2.41-4.57C17.93,5.73,19.7,5.84,21.39,7.09"/>
		<path id="XMLID_6557_" class="st0" d="M23.45,1.07c1.57,1.26,2.54,3.11,2.19,4.21c-0.34,1.11-1.92,1.05-3.54-0.2
			c-1.65-1.26-2.69-3.25-2.27-4.34C20.24-0.38,21.89-0.19,23.45,1.07"/>
		<path id="XMLID_6556_" class="st0" d="M67.64,34.78c-0.55,1.57-0.97,2.07-2.29,2.07c-1.24,0-1.72-0.44-2.29-2.07l-4.1-11.56
			c-0.07-0.2-0.26-0.57-0.39-0.57c-0.25,0-0.25,0.45-0.25,0.53l0.08,13.49h-3.03V21.42c0-2.25,2.14-2.28,2.59-2.28
			c1.17,0,2.13,0.3,2.82,2.23l4.15,11.56c0.14,0.37,0.3,0.64,0.44,0.64c0.14,0,0.29-0.28,0.42-0.64l4.15-11.56
			c0.68-1.93,1.64-2.23,2.81-2.23c1.49,0,2.58,0.69,2.58,2.28v15.25h-3.02l0.09-13.49c0-0.48-0.19-0.53-0.28-0.53
			c-0.16,0-0.32,0.38-0.38,0.57L67.64,34.78z"/>
		<path id="XMLID_6551_" class="st0" d="M83.69,21.1c0.57-1.46,1.19-1.95,2.63-1.95c1.37,0,2.06,0.49,2.64,1.95l6.04,15.57h-3.18
			l-1.65-4.39h-7.72l-1.62,4.39h-3.18L83.69,21.1z M83.23,29.96L83.23,29.96h6.17l-2.62-7.05c-0.09-0.26-0.25-0.73-0.46-0.73
			c-0.2,0-0.36,0.47-0.46,0.73L83.23,29.96z"/>
		<path id="XMLID_6550_" class="st0" d="M102.52,36.67c-1.54,0-3.63-0.23-5.11-2.03c-1.5-1.83-1.63-4.48-1.63-6.39
			c0-2.47,0.2-5.03,1.56-6.74c1.61-2.03,4.1-2.17,5.25-2.17h6.43v2.61h-5.02c-1.78,0-3.29,0.12-4.2,1.6
			c-0.49,0.77-0.9,2.08-0.9,4.65c0,2.6,0.45,3.67,0.76,4.21c0.83,1.36,2.29,1.66,4.19,1.66h5.43v2.6H102.52z"/>
		<polygon id="XMLID_6548_" class="st0" points="117.88,36.67 117.88,21.94 111.63,21.94 111.63,19.33 127.18,19.33 127.18,21.94 
			120.91,21.94 120.91,36.67 		"/>
		<path id="XMLID_6547_" class="st0" d="M132.38,36.67c-0.69,0-1.3,0-1.83-0.55c-0.55-0.56-0.59-1.36-0.59-2.03V21.81
			c0-0.69,0.2-1.39,0.54-1.81c0.53-0.62,1.31-0.67,1.93-0.67h10.28v2.61h-8.66c-0.28,0-0.59,0.02-0.83,0.24
			c-0.24,0.25-0.24,0.59-0.24,0.85v3.49h9.5v2.6h-9.5v4.06c0,0.27,0.09,0.55,0.22,0.67c0.19,0.2,0.55,0.23,1.02,0.23h8.57v2.6
			H132.38z"/>
		<path id="XMLID_4550_" class="st0" d="M159.09,20.17c-0.98-1.04-2.34-1.04-3.18-1.04h-7.62c-0.55,0-1.29,0.11-1.81,0.67
			c-0.55,0.6-0.55,1.29-0.55,1.93v14.94h3.02v-6.34h7.5c0.93,0,1.86-0.32,2.45-0.85c1.27-1.12,1.4-3.34,1.4-4.75
			C160.3,23.27,160.19,21.32,159.09,20.17 M156.66,27.08L156.66,27.08c-0.53,0.65-1.3,0.65-1.96,0.65h-5.75v-4.95
			c0-0.29,0-0.6,0.21-0.81c0.22-0.25,0.5-0.23,0.7-0.23h4.88c0.51,0,1.35,0.03,1.88,0.6c0.5,0.57,0.57,1.61,0.57,2.38
			C157.19,25.37,157.14,26.49,156.66,27.08"/>
		<path id="XMLID_4528_" class="st0" d="M78.96,45c-0.26,0-0.53-0.03-0.74,0.22c-0.15,0.17-0.2,0.52-0.2,0.81v13.67H75V44.76
			c0-0.63,0.07-1.19,0.6-1.73c0.56-0.6,1.07-0.63,1.8-0.63h9.45c0.64,0,1.26,0.02,1.81,0.63c0.47,0.52,0.56,1.13,0.56,1.73v14.93
			h-3.02V46.03c0-0.24,0.03-0.58-0.18-0.81C85.82,44.97,85.51,45,85.3,45H78.96z"/>
		<path id="XMLID_4522_" class="st0" d="M92.24,59.69V45c0-0.64,0-1.34,0.55-1.92c0.52-0.57,1.25-0.68,1.81-0.68h7.61
			c0.84,0,2.18,0,3.17,1.04c1.1,1.14,1.21,3.08,1.21,4.54c0,1.4-0.15,3.63-1.4,4.74c-0.6,0.52-1.51,0.84-2.44,0.84h-7.49v6.13H92.24
			z M100.99,50.98L100.99,50.98c0.66,0,1.44,0,1.96-0.64c0.48-0.6,0.53-1.71,0.53-2.38c0-0.76-0.08-1.8-0.57-2.36
			c-0.53-0.57-1.37-0.6-1.88-0.6h-4.86c-0.2,0-0.49-0.03-0.71,0.22c-0.2,0.23-0.2,0.52-0.2,0.81v4.94H100.99z"/>
		<path id="XMLID_4520_" class="st0" d="M121.33,59.69l0.09-13.14c0-0.27-0.02-0.57-0.22-0.57c-0.19,0-0.36,0.4-0.59,0.79
			l-6.59,11.49c-0.43,0.76-0.9,1.63-2.53,1.63c-2.3,0-2.35-1.98-2.35-2.97V42.4h3.01l-0.07,12.89c0,0.4-0.02,0.8,0.28,0.8
			c0.18,0,0.3-0.3,0.44-0.55l6.43-11.41c0.87-1.53,1.57-1.93,2.68-1.93c2.4,0,2.44,2.25,2.44,3.12v14.37H121.33z"/>
		<polygon id="XMLID_4516_" class="st0" points="141.97,59.69 138.95,59.69 138.95,52.09 130.63,52.09 130.63,59.69 127.63,59.69 
			127.63,42.4 130.63,42.4 130.63,49.49 138.95,49.49 138.95,42.4 141.97,42.4 		"/>
		<polygon id="XMLID_4512_" class="st0" points="151.03,59.69 151.03,45 144.8,45 144.8,42.4 160.3,42.4 160.3,45 154.04,45 
			154.04,59.69 		"/>
	</g>
	<g id="XMLID_6828_">
		<path id="XMLID_6826_" class="st1" d="M79.78,69.25h-1.81v4.32h-0.83v-4.32h-1.81v-0.73h4.46V69.25z"/>
		<path id="XMLID_6824_" class="st1" d="M84.94,73.57h-1.07v-5.06h0.83v4.13h0.02L87,68.52h1.07v5.06h-0.83v-4.13h-0.02L84.94,73.57
			z"/>
		<path id="XMLID_6822_" class="st1" d="M93.59,73.57h-0.83v-5.06h4.19v5.06h-0.83v-4.32h-2.53V73.57z"/>
		<path id="XMLID_6819_" class="st1" d="M102.03,69.09c0.44-0.48,1.05-0.73,1.81-0.73s1.36,0.23,1.78,0.7
			c0.42,0.46,0.64,1.11,0.64,1.95c0,0.86-0.21,1.52-0.64,2c-0.42,0.48-1.02,0.72-1.79,0.72c-0.77,0-1.38-0.24-1.81-0.71
			c-0.44-0.47-0.66-1.12-0.66-1.96C101.37,70.23,101.59,69.58,102.03,69.09z M104.99,69.6c-0.28-0.36-0.67-0.53-1.16-0.53
			c-0.49,0-0.88,0.18-1.17,0.54c-0.29,0.36-0.43,0.84-0.43,1.44c0,0.62,0.14,1.11,0.43,1.46c0.28,0.35,0.68,0.52,1.19,0.52
			c0.49,0,0.87-0.18,1.15-0.53c0.28-0.35,0.42-0.84,0.42-1.46C105.41,70.43,105.27,69.96,104.99,69.6z"/>
		<path id="XMLID_6817_" class="st1" d="M114.17,69.25h-2.64v4.32h-0.83v-5.06h3.47V69.25z"/>
		<path id="XMLID_6814_" class="st1" d="M119.01,68.52v0.72c0.37-0.58,0.93-0.87,1.7-0.87c0.71,0,1.27,0.24,1.68,0.72
			c0.41,0.48,0.62,1.12,0.62,1.94c0,0.82-0.2,1.47-0.61,1.95c-0.41,0.49-0.96,0.73-1.65,0.73c-0.73,0-1.29-0.28-1.7-0.83v2.66h-0.83
			v-7.01H119.01z M120.59,69.06c-0.48,0-0.86,0.17-1.14,0.52c-0.28,0.35-0.42,0.83-0.42,1.45c0,0.61,0.14,1.1,0.43,1.45
			c0.28,0.35,0.67,0.52,1.16,0.52c0.48,0,0.85-0.18,1.13-0.53c0.27-0.35,0.41-0.83,0.41-1.44c0-0.61-0.14-1.1-0.42-1.45
			C121.46,69.23,121.08,69.06,120.59,69.06z"/>
		<path id="XMLID_6811_" class="st1" d="M131.95,72.91v0.65c-0.17,0.07-0.36,0.1-0.57,0.1c-0.48,0-0.72-0.25-0.73-0.74
			c-0.48,0.54-1.09,0.8-1.83,0.8c-0.5,0-0.89-0.13-1.18-0.38c-0.29-0.25-0.44-0.6-0.44-1.05c0-0.9,0.6-1.43,1.79-1.58
			c0.71-0.08,1.11-0.15,1.22-0.19c0.24-0.08,0.36-0.24,0.38-0.49c0.01-0.04,0.01-0.08,0.01-0.13c0-0.56-0.38-0.83-1.15-0.83
			c-0.39,0-0.69,0.08-0.89,0.24c-0.2,0.16-0.32,0.42-0.36,0.79h-0.81c0.01-0.54,0.21-0.96,0.58-1.26c0.37-0.3,0.89-0.45,1.54-0.45
			c0.71,0,1.24,0.16,1.59,0.49c0.11,0.1,0.19,0.24,0.24,0.41c0.05,0.17,0.08,0.31,0.09,0.42c0.01,0.11,0.01,0.27,0.01,0.49
			c0,0.25-0.01,0.63-0.02,1.13c-0.01,0.5-0.02,0.87-0.02,1.12c0,0.18,0.02,0.31,0.07,0.39c0.05,0.08,0.14,0.11,0.27,0.11
			C131.79,72.94,131.86,72.93,131.95,72.91z M130.6,70.95c-0.06,0.05-0.12,0.08-0.19,0.12c-0.07,0.03-0.15,0.06-0.25,0.08
			c-0.1,0.02-0.17,0.03-0.21,0.04c-0.04,0.01-0.12,0.02-0.26,0.04c-0.14,0.02-0.21,0.02-0.22,0.02c-0.2,0.03-0.33,0.04-0.4,0.05
			c-0.06,0.01-0.18,0.04-0.35,0.08c-0.17,0.05-0.3,0.1-0.37,0.16c-0.07,0.06-0.14,0.15-0.21,0.26c-0.07,0.11-0.1,0.25-0.1,0.41
			c0,0.26,0.09,0.47,0.27,0.62c0.18,0.15,0.43,0.23,0.74,0.23c0.4,0,0.75-0.12,1.07-0.35c0.31-0.24,0.47-0.51,0.47-0.83V70.95z"/>
		<path id="XMLID_6807_" class="st1" d="M142.98,70.97c0,0.5-0.06,0.95-0.19,1.34c-0.12,0.39-0.34,0.72-0.66,0.98
			c-0.32,0.26-0.71,0.4-1.19,0.4c-0.18,0-0.38-0.05-0.59-0.16c-0.21-0.1-0.37-0.22-0.47-0.34h-0.02v2.33h-0.82v-2.33h-0.02
			c-0.1,0.12-0.26,0.24-0.47,0.34c-0.21,0.1-0.41,0.16-0.59,0.16c-0.48,0-0.87-0.13-1.19-0.4c-0.32-0.26-0.54-0.59-0.66-0.98
			c-0.12-0.39-0.19-0.84-0.19-1.34c0-0.8,0.18-1.43,0.53-1.89c0.35-0.46,0.83-0.69,1.44-0.69c0.21,0,0.42,0.06,0.64,0.17
			c0.22,0.11,0.38,0.24,0.48,0.38h0.03V66.6h0.82v2.34h0.03c0.1-0.14,0.26-0.26,0.48-0.38c0.22-0.11,0.43-0.17,0.64-0.17
			c0.61,0,1.09,0.23,1.44,0.69C142.8,69.54,142.98,70.17,142.98,70.97z M139.04,72.34v-2.55c-0.07-0.25-0.21-0.43-0.41-0.54
			c-0.2-0.11-0.41-0.17-0.62-0.17c-0.41,0-0.72,0.17-0.92,0.51c-0.2,0.34-0.3,0.81-0.3,1.39c0,0.25,0.02,0.49,0.06,0.71
			c0.04,0.22,0.1,0.43,0.2,0.64c0.09,0.21,0.22,0.37,0.4,0.49c0.17,0.12,0.38,0.18,0.62,0.18c0.25,0,0.47-0.06,0.65-0.19
			C138.9,72.68,139.01,72.52,139.04,72.34z M142.12,70.99c0-0.58-0.1-1.04-0.3-1.39c-0.2-0.34-0.51-0.51-0.92-0.51
			c-0.22,0-0.42,0.06-0.62,0.17c-0.2,0.11-0.33,0.29-0.41,0.54v2.55c0.03,0.18,0.14,0.34,0.33,0.47s0.4,0.19,0.65,0.19
			c0.24,0,0.45-0.06,0.62-0.18c0.17-0.12,0.31-0.28,0.4-0.49c0.09-0.21,0.16-0.42,0.2-0.64C142.1,71.48,142.12,71.24,142.12,70.99z"
			/>
		<path id="XMLID_6805_" class="st1" d="M148.5,73.57h-1.07v-5.06h0.83v4.13h0.02l2.27-4.13h1.07v5.06h-0.83v-4.13h-0.02
			L148.5,73.57z"/>
		<path id="XMLID_6762_" class="st1" d="M160.3,73.57h-0.83v-2.07h-1.11l-1.6,2.07h-1.11l1.74-2.1c-0.37-0.06-0.67-0.22-0.91-0.48
			c-0.23-0.26-0.35-0.59-0.35-0.99c0-0.47,0.14-0.84,0.42-1.1c0.28-0.26,0.67-0.39,1.17-0.39h2.57V73.57z M159.47,69.25H158
			c-0.67,0-1,0.25-1,0.75c0,0.51,0.33,0.76,1,0.76h1.47V69.25z"/>
	</g>
</g>
</svg>
