<svg width="31" height="29" viewBox="0 0 31 29" fill="none" xmlns="http://www.w3.org/2000/svg">
<path d="M0.348283 12.6094C1.50096 13.2701 2.56569 13.8708 3.62579 14.4808C5.21362 15.391 6.83385 16.2551 8.37076 17.2393C9.09293 17.7014 9.59751 17.6228 10.2919 17.2162C16.0229 13.8708 21.7817 10.5716 27.5312 7.25394C27.7997 7.09684 28.0821 6.96284 28.3552 6.81497C30.8504 11.2555 30.7022 17.9555 26.6609 22.909C22.5872 27.8947 15.7081 29.7014 9.73176 27.3448C3.8017 25.0068 -0.0776077 18.986 0.348283 12.6094Z" fill="#5C9EFF"/>
<path d="M1.04386 9.25468C2.27987 9.96165 3.51588 10.6594 4.74725 11.3663C5.96475 12.0641 7.19612 12.7295 8.37658 13.4826C9.03393 13.9031 9.54315 13.9031 10.2283 13.5011C15.3853 10.4884 20.57 7.51729 25.7501 4.5323C26.0186 4.3752 26.2964 4.23657 26.6297 4.05637C26.926 4.43527 27.1991 4.78644 27.5139 5.18382C27.3009 5.33631 27.1343 5.47955 26.9445 5.58583C21.2968 8.84343 15.6445 12.0918 10.0107 15.3633C9.51075 15.6544 9.13115 15.6729 8.63119 15.3771C6.26565 13.9817 3.88159 12.6186 1.50678 11.2508C0.446687 10.6409 0.418911 10.5439 1.04386 9.25468Z" fill="#5C9EFF"/>
<path d="M2.28811 6.20019C4.38979 7.41082 6.50998 8.59835 8.59314 9.84594C9.1394 10.174 9.52362 10.1417 10.0606 9.82746C14.3843 7.30454 18.7266 4.81859 23.0642 2.3234C24.2863 1.62105 24.2863 1.61643 25.3464 2.7023C25.1057 2.85941 24.8788 3.02113 24.6427 3.15975C19.7357 5.98764 14.8287 8.80628 9.931 11.6526C9.4727 11.916 9.15328 11.9206 8.69962 11.648C6.70904 10.4651 4.69069 9.3238 2.6816 8.17324C1.41781 7.44779 1.41781 7.44779 2.28811 6.20019Z" fill="#5C9EFF"/>
<path d="M22.5 0.627767C20.5881 1.73212 18.7086 2.81799 16.8292 3.90386C14.5516 5.21615 12.2601 6.50995 9.9964 7.85458C9.47792 8.16417 9.10295 8.13644 8.60762 7.84072C6.84388 6.78257 5.05236 5.77063 3.19141 4.69863C3.51545 4.292 3.81173 3.92696 4.1404 3.51572C5.64954 4.3798 7.13552 5.17918 8.56133 6.07098C9.13999 6.4314 9.54736 6.37595 10.1029 6.04788C13.3063 4.16724 16.5746 2.38364 19.741 0.442938C20.7733 -0.194722 21.551 -0.153135 22.5 0.627767Z" fill="#5C9EFF"/>
</svg>
