<svg width="42" height="29" viewBox="0 0 42 29" fill="none" xmlns="http://www.w3.org/2000/svg">
<path d="M0.00976562 22.7759C0.00976562 17.0601 0.00976562 11.3489 0.00976562 5.63303C0.0236534 5.56834 0.0421715 5.50365 0.0514299 5.43434C0.491208 2.25528 3.03266 0.028094 6.24999 0.00961111C8.47202 0.000369658 10.6941 0.00499038 12.9161 0.00499038C17.5685 0.00499038 22.2209 0.00499038 26.8733 0.00499038C29.5443 0.00499038 32.2108 -0.00887179 34.8819 0.00961111C36.7567 0.0234733 38.3306 0.753548 39.562 2.17211C40.6592 3.43819 41.0619 4.9353 41.0526 6.59414C41.0295 11.238 41.048 15.8818 41.0387 20.5256C41.0387 21.4729 41.1082 22.4201 40.9323 23.3581C40.4184 26.1444 37.9233 28.3069 35.0948 28.3531C33.0255 28.3855 30.9609 28.3624 28.8916 28.3624C21.7996 28.3624 14.7122 28.367 7.62024 28.3624C6.9166 28.3624 6.20832 28.3993 5.51857 28.3116C2.94471 27.9789 1.218 26.5603 0.329185 24.1344C0.17179 23.7001 0.116238 23.2288 0.00976562 22.7759ZM37.4789 18.913C37.4603 18.7929 37.4465 18.7143 37.4326 18.6311C37.1456 17.2542 36.8585 15.8726 36.5715 14.4956C36.1364 12.4163 35.7059 10.3369 35.2753 8.2576C35.2429 8.1005 35.1966 8.02657 35.0115 8.02657C34.1643 8.04043 33.3125 8.03581 32.4654 8.02657C32.2849 8.02657 32.1969 8.0774 32.1228 8.24374C30.6924 11.5152 29.2481 14.7821 27.813 18.0535C27.6926 18.3262 27.5769 18.5988 27.4566 18.876C27.5028 18.8899 27.5214 18.9038 27.5445 18.9038C28.4333 18.9038 29.3175 18.9084 30.2063 18.8991C30.2711 18.8991 30.3683 18.8206 30.3961 18.7513C30.5628 18.3631 30.7155 17.9657 30.859 17.5684C30.9146 17.4205 30.9887 17.3743 31.1461 17.3743C32.1506 17.3789 33.1505 17.3743 34.1551 17.3743C34.2754 17.3743 34.4004 17.3743 34.5347 17.3743C34.6226 17.8179 34.7106 18.243 34.78 18.6635C34.8078 18.8344 34.8633 18.913 35.0578 18.9084C35.692 18.8945 36.3216 18.9038 36.9558 18.9038C37.1224 18.913 37.2891 18.913 37.4789 18.913ZM27.9241 8.37774C26.1094 7.73546 24.3179 7.5876 22.5357 8.3685C21.9894 8.60416 21.5265 8.96458 21.1839 9.45899C20.1285 10.9746 20.5821 13.0123 22.2024 13.9781C22.6931 14.2692 23.2162 14.5002 23.7069 14.7867C23.9522 14.9299 24.1883 15.1009 24.3781 15.3042C24.7808 15.7478 24.6975 16.3346 24.1929 16.6535C24.0031 16.7736 23.7763 16.8614 23.5541 16.9076C22.5218 17.1155 21.5126 16.9538 20.5312 16.6165C20.3368 16.5518 20.147 16.464 19.9387 16.3808C19.7952 17.0462 19.6655 17.6977 19.5035 18.3354C19.4433 18.5757 19.5128 18.6727 19.7303 18.7605C20.6423 19.1163 21.5913 19.2827 22.5588 19.2549C24.2855 19.2087 25.7576 18.5618 26.864 17.2079C27.7528 16.1221 27.9611 14.3616 26.3455 13.2249C25.8734 12.8922 25.3502 12.6381 24.8549 12.3469C24.517 12.1483 24.1605 11.9727 23.855 11.7324C23.406 11.372 23.4337 10.7667 23.9105 10.4386C24.1374 10.2815 24.4198 10.1798 24.6929 10.1244C25.5725 9.93493 26.3872 10.1521 27.1557 10.5957C27.2575 10.6558 27.3593 10.7158 27.489 10.7851C27.6325 9.95803 27.776 9.18175 27.9241 8.37774ZM5.53708 10.1244C5.50931 10.1382 5.48153 10.1567 5.45839 10.1706C5.57412 10.6049 5.68985 11.0439 5.80558 11.4782C6.43516 13.8764 7.06473 16.2699 7.68968 18.6681C7.73597 18.8483 7.80541 18.913 7.99984 18.913C8.91643 18.9038 9.83765 18.9084 10.7542 18.913C10.907 18.913 10.9857 18.8714 11.0413 18.7235C12.3976 15.3458 13.7632 11.9727 15.1242 8.59492C15.1937 8.41933 15.2585 8.23912 15.3372 8.04505C15.2446 8.04043 15.1752 8.03581 15.1057 8.03581C14.2262 8.03581 13.3466 8.04043 12.4671 8.02657C12.2865 8.02195 12.2217 8.08664 12.1662 8.25298C11.3607 10.6789 10.5413 13.1001 9.73118 15.5214C9.70803 15.5953 9.67563 15.6646 9.63859 15.757C9.04142 13.2711 7.5184 11.5291 5.53708 10.1244ZM16.4806 8.04505C15.9066 11.6585 15.3326 15.2719 14.7585 18.9084C15.7168 18.9084 16.6334 18.913 17.55 18.8991C17.5963 18.8991 17.675 18.8021 17.6888 18.7374C17.7629 18.3539 17.8185 17.9657 17.8833 17.5776C18.3092 14.9808 18.7304 12.3839 19.1563 9.78244C19.2489 9.20947 19.3415 8.63188 19.4387 8.04043C18.4434 8.04505 17.4713 8.04505 16.4806 8.04505ZM2.39845 8.08202C2.39845 8.09588 2.39846 8.11436 2.39383 8.12822C2.44475 8.14671 2.49104 8.16981 2.54197 8.18829C3.80112 8.65037 4.99084 9.24644 6.08334 10.0273C7.43045 10.9885 8.54609 12.1483 9.15715 13.7239C9.16641 13.747 9.18493 13.7655 9.20808 13.7979C9.20808 13.7516 9.21271 13.7285 9.20808 13.7054C8.92569 12.2961 8.64331 10.8822 8.35629 9.47286C8.18038 8.61802 7.52303 8.08202 6.65273 8.08202C6.28239 8.08202 5.91205 8.08202 5.54171 8.08202C4.4955 8.08202 3.44466 8.08202 2.39845 8.08202Z" fill="#5C9EFF"/>
<path d="M33.3217 11.2888C33.5902 12.6242 33.8633 13.9596 34.1364 15.3135C33.3263 15.3135 32.544 15.3135 31.7246 15.3135C32.2431 13.955 32.7523 12.6196 33.2615 11.2842C33.2847 11.2842 33.3032 11.2842 33.3217 11.2888Z" fill="#5C9EFF"/>
</svg>
