<svg width="49" height="29" viewBox="0 0 49 29" fill="none" xmlns="http://www.w3.org/2000/svg">
<path d="M14.55 28.3766C10.3652 28.3119 6.81915 26.7732 4.00457 23.6773C1.80568 21.2653 0.597446 18.4004 0.393759 15.1336C0.153038 11.1967 1.33813 7.73118 3.95366 4.77854C6.37475 2.04769 9.44394 0.485885 13.0686 0.0977441C16.86 -0.30888 20.2671 0.735404 23.2947 3.03652C23.503 3.19363 23.4983 3.30453 23.3178 3.48011C21.6142 5.14357 20.4245 7.13049 19.6468 9.37154C19.5218 9.73657 19.5357 9.7643 19.9199 9.7643C20.5958 9.76892 20.5912 9.76892 20.8273 9.1636C21.5587 7.26449 22.6466 5.59641 24.077 4.15012C24.2714 3.95143 24.3918 3.9237 24.6047 4.13626C26.0953 5.64261 27.2388 7.36614 27.9517 9.3623C28.0581 9.66264 28.197 9.7874 28.5257 9.77354C29.2201 9.74582 29.2155 9.76892 28.9794 9.12202C28.197 6.978 27.0119 5.09275 25.3871 3.48473C25.1278 3.23059 25.1278 3.21211 25.4195 2.9857C27.4517 1.41927 29.7339 0.45354 32.28 0.125468C35.0992 -0.239569 37.8027 0.190159 40.3581 1.43775C42.9643 2.70383 45.0012 4.60295 46.4548 7.10738C47.8667 9.53788 48.4963 12.1717 48.3342 14.9719C48.1398 18.3404 46.8992 21.2884 44.6077 23.779C42.5431 26.0246 40.0109 27.4894 37.0204 28.0762C32.8031 28.9033 28.9423 28.03 25.4889 25.4517C25.1232 25.179 25.1278 25.179 25.438 24.8602C27.0767 23.1736 28.3128 21.2376 29.0581 19.0011C29.1784 18.6453 29.1738 18.6407 28.7896 18.6407C28.1091 18.6361 28.1091 18.6361 27.8637 19.2691C27.1277 21.1544 26.0398 22.8086 24.6047 24.241C24.401 24.4443 24.2761 24.4397 24.077 24.2364C22.591 22.7532 21.48 21.0296 20.7717 19.0566C20.656 18.7377 20.4986 18.6268 20.1653 18.6407C19.494 18.6684 19.4894 18.576 19.7348 19.2691C20.4986 21.4085 21.6883 23.2799 23.2761 24.9018C23.5261 25.1559 23.5261 25.1698 23.2345 25.3962C20.8828 27.226 17.7534 28.4228 14.55 28.3766ZM3.88422 13.0034C4.00458 13.1513 3.99531 13.276 4.00457 13.3869C4.09716 14.4682 4.15734 15.5541 4.2777 16.6353C4.38881 17.6426 4.1342 17.4624 5.14801 17.4855C5.21744 17.4855 5.28688 17.4809 5.35632 17.4855C5.55075 17.504 5.66185 17.4255 5.74517 17.2406C6.26828 16.0531 6.80064 14.8702 7.33301 13.6919C7.41633 13.5071 7.48114 13.3084 7.64316 13.1605C7.58761 13.6457 7.49966 14.1216 7.4117 14.5976C7.25431 15.4385 7.09228 16.2841 6.93489 17.1251C6.87471 17.4578 6.89786 17.4855 7.24042 17.4855C7.4904 17.4855 7.74038 17.4763 7.99036 17.4901C8.18016 17.4994 8.28201 17.4347 8.31904 17.2314C8.67086 15.3415 9.02731 13.447 9.38839 11.5571C9.43468 11.3215 9.36525 11.2291 9.11527 11.2337C8.58753 11.2429 8.05517 11.2522 7.52743 11.2337C7.26357 11.2244 7.13395 11.3261 7.03211 11.5571C6.58307 12.5691 6.12477 13.5764 5.66184 14.5837C5.60166 14.7177 5.56927 14.8841 5.40261 14.995C5.38873 14.9072 5.37483 14.8517 5.3702 14.7916C5.2915 13.7289 5.20818 12.6661 5.14337 11.6033C5.12948 11.3446 5.05078 11.2244 4.7684 11.2337C4.24992 11.2522 3.73145 11.2476 3.20834 11.2337C2.98151 11.2291 2.86578 11.2938 2.82411 11.534C2.71301 12.1902 2.57414 12.8463 2.44452 13.5025C2.2038 14.7362 1.97234 15.9699 1.72236 17.199C1.67607 17.4208 1.7455 17.4901 1.95845 17.4855C2.20843 17.4763 2.4584 17.467 2.70838 17.4855C2.9491 17.504 3.04632 17.3931 3.08336 17.1713C3.2639 16.1825 3.4537 15.1936 3.6435 14.2048C3.71757 13.8213 3.79626 13.4332 3.88422 13.0034ZM45.0104 17.4855C45.1215 17.4855 45.228 17.4855 45.3391 17.4855C45.7789 17.4855 45.7789 17.4855 45.853 17.065C46.0057 16.2426 46.1585 15.4201 46.3113 14.5976C46.5196 13.4701 46.7279 12.3427 46.9455 11.2198C46.9918 10.9842 46.9177 10.9149 46.6909 10.9241C46.4224 10.938 46.1492 10.938 45.8807 10.9241C45.64 10.9102 45.5474 11.0119 45.515 11.2476C45.441 11.7281 45.3345 12.2087 45.2419 12.6846C45.2141 12.8232 45.1447 12.9526 45.0151 12.7909C44.6031 12.2641 44.0383 12.278 43.4596 12.3149C42.9134 12.3473 42.4412 12.5598 42.1125 12.9988C41.5293 13.7705 41.2006 14.6345 41.2746 15.6188C41.3857 17.1436 42.5431 17.8413 43.8578 17.1852C44.0244 17.102 44.1355 17.0881 44.205 17.2822C44.2651 17.4532 44.3855 17.504 44.5568 17.4948C44.7095 17.4763 44.8623 17.4855 45.0104 17.4855ZM11.4854 12.3011C11.2123 12.3196 10.8975 12.3057 10.5781 12.3519C9.77261 12.4674 9.93464 12.4027 9.78187 13.1328C9.70781 13.4794 9.74948 13.5209 10.1013 13.4655C10.6476 13.3777 11.1938 13.3407 11.7447 13.3638C11.8974 13.3685 12.0456 13.3869 12.1752 13.4701C12.3696 13.5995 12.3974 13.7936 12.3604 14.0015C12.3187 14.2141 12.1382 14.1632 11.9947 14.1678C11.7354 14.1771 11.4762 14.1632 11.2169 14.1817C10.0643 14.251 9.25877 14.8794 9.04583 15.859C8.90232 16.5152 9.18007 17.0835 9.79113 17.3608C10.2957 17.5872 10.8142 17.5179 11.3142 17.3654C11.5364 17.2961 11.7262 17.1621 11.8928 17.4439C11.9345 17.5133 12.0409 17.4901 12.1196 17.4901C12.3696 17.4901 12.6196 17.4763 12.8696 17.4948C13.101 17.5133 13.1844 17.4024 13.226 17.1944C13.3649 16.469 13.513 15.7481 13.6566 15.0227C13.7353 14.6114 13.8186 14.2002 13.7954 13.7797C13.7584 13.1374 13.4482 12.6938 12.8464 12.4582C12.4113 12.2872 11.9715 12.2918 11.4854 12.3011ZM35.6733 12.3057C35.3538 12.3149 35.0344 12.3057 34.715 12.3519C34.0669 12.4536 34.0623 12.4489 33.928 13.1005C33.854 13.4563 33.9049 13.5209 34.2613 13.4609C34.7844 13.3777 35.3122 13.3407 35.8445 13.3592C35.9834 13.3638 36.1269 13.3731 36.2565 13.4332C36.4834 13.5348 36.5436 13.7243 36.5204 13.9507C36.4926 14.2002 36.2936 14.1586 36.1269 14.1586C35.8769 14.1632 35.627 14.1494 35.377 14.1725C34.6178 14.2464 33.928 14.4682 33.4744 15.1428C32.9142 15.9746 33.0994 16.9357 33.891 17.3284C34.4095 17.5872 34.9465 17.5179 35.4649 17.3515C35.6779 17.2868 35.8584 17.1436 36.0205 17.4255C36.0621 17.4948 36.164 17.4809 36.2427 17.4809C36.5112 17.4809 36.7843 17.4763 37.0528 17.4809C37.2148 17.4855 37.312 17.4347 37.3444 17.2591C37.5342 16.2703 37.7564 15.2861 37.9184 14.2972C38.1082 13.1189 37.4648 12.3658 36.2704 12.3057C36.076 12.2965 35.8769 12.3057 35.6733 12.3057ZM28.6137 14.6623C28.6229 15.5263 28.8312 16.1825 29.359 16.7416C30.2293 17.6657 31.7014 17.5687 32.6365 17.2314C32.7661 17.1852 32.7939 17.0974 32.7476 16.9726C32.6781 16.7739 32.618 16.5752 32.5485 16.3766C32.3865 15.9006 32.4513 15.9746 31.993 16.0577C30.8218 16.2749 30.021 15.5679 30.0996 14.3896C30.1876 13.082 31.2153 12.1209 32.3726 12.4258C32.9883 12.5876 33.2938 12.375 33.6225 11.9869C33.6503 11.9545 33.6781 11.9268 33.7058 11.9037C33.8725 11.7743 33.8308 11.668 33.6919 11.5433C33.4975 11.3677 33.2892 11.2152 33.0392 11.1274C32.2522 10.8548 31.4699 10.8502 30.7107 11.2244C29.2386 11.9499 28.6924 13.2298 28.6137 14.6623ZM23.503 15.1521C23.503 15.1521 23.503 15.1474 23.503 15.1521C23.9427 15.1521 24.3825 15.1474 24.8223 15.1521C25.0075 15.1567 25.0862 15.0828 25.1139 14.8979C25.1649 14.5514 25.1973 14.2048 25.1695 13.8536C25.1139 13.1929 24.8038 12.6846 24.1603 12.4628C23.4613 12.2225 22.7438 12.2087 22.054 12.5182C21.0171 12.9803 20.3319 14.3943 20.5541 15.5818C20.7671 16.7323 21.4013 17.3099 22.5632 17.4532C23.0076 17.5086 23.4382 17.4532 23.8779 17.4255C24.5955 17.3792 24.6371 17.333 24.7853 16.6307C24.7899 16.6122 24.7945 16.5937 24.7992 16.5706C24.864 16.2564 24.8547 16.261 24.5307 16.2888C23.915 16.3396 23.2993 16.4274 22.679 16.3257C22.1883 16.2426 21.9198 15.9191 21.929 15.4385C21.9337 15.2445 22.0031 15.1474 22.2114 15.1474C22.6419 15.1567 23.0725 15.1521 23.503 15.1521ZM16.5776 12.3149C16.36 12.3149 16.1378 12.2965 15.9203 12.3196C14.837 12.4258 14.2306 13.1005 14.2908 14.1078C14.3139 14.5098 14.4945 14.8009 14.8648 14.9811C15.2166 15.1521 15.5545 15.3461 15.9017 15.5217C16.1332 15.6419 16.2536 15.8221 16.1934 16.0808C16.1425 16.3211 15.948 16.4181 15.7258 16.4228C15.337 16.432 14.9435 16.4505 14.5593 16.4228C13.9065 16.3719 13.9158 16.3581 13.7816 17.005C13.7353 17.236 13.7954 17.3377 14.0269 17.37C14.7398 17.4809 15.4573 17.5317 16.1749 17.4162C17.1331 17.2637 17.6886 16.5614 17.6238 15.6049C17.6007 15.263 17.4572 14.995 17.1655 14.8055C16.8415 14.593 16.4989 14.4035 16.1471 14.2325C15.9203 14.1216 15.7675 13.9553 15.8138 13.6919C15.8647 13.4193 16.1008 13.3823 16.323 13.3685C16.6424 13.3454 16.9618 13.35 17.2766 13.4054C17.397 13.4285 17.5359 13.4378 17.5729 13.2807C17.6331 13.008 17.8507 12.7631 17.7396 12.4582C17.721 12.412 17.6238 12.3935 17.5544 12.375C17.235 12.2826 16.9063 12.2965 16.5776 12.3149ZM17.934 16.1594C17.9201 17.0881 18.4154 17.5364 19.2579 17.4855C20.0033 17.4439 20.1144 17.3238 20.1421 16.5937C20.1514 16.3719 20.1051 16.2703 19.8551 16.261C19.4709 16.2518 19.3135 16.0485 19.3783 15.6696C19.494 15.0134 19.6283 14.3573 19.744 13.7012C19.781 13.4978 19.8736 13.4147 20.082 13.4147C20.5449 13.4193 20.5125 13.4978 20.6328 12.9572C20.6606 12.8417 20.6884 12.7262 20.7162 12.606C20.7532 12.4397 20.6884 12.3611 20.5125 12.3658C20.443 12.3704 20.3736 12.3611 20.3042 12.3658C20.0634 12.3842 20.0079 12.2733 20.0634 12.0562C20.1282 11.8067 20.1653 11.5479 20.2301 11.2984C20.2856 11.0812 20.2255 10.9749 19.9847 10.9842C19.744 10.9934 19.5033 10.998 19.2672 10.9842C19.0357 10.9703 18.9293 11.0535 18.883 11.2891C18.7024 12.2595 18.4941 13.2252 18.3089 14.191C18.1747 14.8933 17.9942 15.5772 17.934 16.1594ZM38.6499 17.4532C38.7286 17.4532 38.8119 17.4532 38.8906 17.4532C39.3118 17.4532 39.3119 17.4532 39.3813 17.0327C39.4461 16.6584 39.5155 16.2888 39.585 15.9145C39.6868 15.3739 39.7655 14.8286 40.0247 14.3342C40.2331 13.9322 40.5154 13.6272 41.0061 13.5995C41.1311 13.5903 41.2098 13.5394 41.2422 13.4147C41.3256 13.1143 41.4089 12.8186 41.4969 12.5229C41.5478 12.3519 41.4737 12.3011 41.3163 12.3242C40.9969 12.375 40.6867 12.4489 40.4321 12.6661C40.2794 12.7955 40.1775 12.7724 40.1451 12.5737C40.1081 12.3658 39.9877 12.2965 39.784 12.3103C39.6359 12.3196 39.4831 12.3103 39.335 12.3103C38.8952 12.3103 38.8998 12.3103 38.8211 12.7354C38.5758 14.0708 38.3212 15.4016 38.0758 16.7323C37.9323 17.5133 37.8444 17.4486 38.6499 17.4532ZM25.8593 17.4855C25.9704 17.4855 26.0815 17.4717 26.1879 17.4901C26.4611 17.5271 26.5629 17.3977 26.5953 17.1482C26.6277 16.8802 26.6833 16.6168 26.7388 16.3534C26.8823 15.6834 26.924 14.9857 27.2573 14.3665C27.4193 14.0708 27.6137 13.7612 27.9609 13.7289C28.4007 13.6919 28.5164 13.4378 28.5766 13.082C28.6044 12.9249 28.6507 12.7724 28.697 12.6199C28.7572 12.4258 28.6877 12.3565 28.4933 12.3935C28.1831 12.4489 27.8915 12.5367 27.6415 12.7354C27.535 12.8186 27.4147 12.8879 27.3823 12.6846C27.3406 12.4027 27.1601 12.3658 26.9286 12.3842C26.7712 12.3935 26.6092 12.3981 26.4518 12.3842C26.2157 12.3658 26.1185 12.4582 26.0768 12.6938C25.8268 14.0754 25.563 15.457 25.3084 16.8386C25.188 17.4809 25.1926 17.4855 25.8593 17.4855Z" fill="#5C9EFF"/>
<path d="M44.766 14.5651C44.7892 14.9348 44.604 15.3414 44.317 15.6972C44.0161 16.0715 43.6226 16.1916 43.2569 16.0438C42.9143 15.9051 42.6782 15.4615 42.7245 15.0226C42.7708 14.5975 42.9375 14.2139 43.2245 13.8905C43.5532 13.5162 43.9837 13.3591 44.3077 13.4977C44.7336 13.6826 44.7521 14.0707 44.766 14.5651Z" fill="#5C9EFF"/>
<path d="M10.9983 16.4367C10.7993 16.4182 10.5632 16.3766 10.4567 16.141C10.3364 15.8822 10.4428 15.6512 10.6141 15.4525C10.8919 15.129 11.5446 14.9719 11.9473 15.1152C12.0307 15.1475 12.0723 15.1891 12.0816 15.2861C12.1279 15.8915 11.6418 16.4321 10.9983 16.4367Z" fill="#5C9EFF"/>
<path d="M35.7189 15.0829C35.8392 15.0921 35.9596 15.0967 36.0753 15.1152C36.1725 15.1291 36.2281 15.1891 36.2327 15.3C36.2651 15.8776 35.867 16.3628 35.2976 16.4275C35.0152 16.4552 34.7421 16.4136 34.6032 16.1271C34.469 15.8545 34.6079 15.6235 34.7977 15.4294C35.043 15.166 35.3578 15.0644 35.7189 15.0829Z" fill="#5C9EFF"/>
<path d="M22.9659 14.274C22.7576 14.274 22.5493 14.2786 22.341 14.274C22.0632 14.2648 22.0308 14.2047 22.1373 13.9413C22.3317 13.4746 22.7808 13.1974 23.2761 13.2436C23.5446 13.2667 23.7483 13.3822 23.8548 13.641C24.0353 14.0846 23.9149 14.2694 23.4428 14.274C23.2854 14.2786 23.1233 14.2786 22.9659 14.274C22.9659 14.2786 22.9659 14.2786 22.9659 14.274Z" fill="#5C9EFF"/>
</svg>
