<svg width="28" height="29" viewBox="0 0 28 29" fill="none" xmlns="http://www.w3.org/2000/svg">
<path d="M14.3376 28.3713C10.8147 28.3713 7.29188 28.3713 3.76902 28.3713C1.92658 28.3713 0.690572 27.1422 0.690572 25.3078C0.685943 20.8442 0.713717 16.3759 0.672054 11.9123C0.658166 10.198 1.4544 9.06594 2.89872 8.30352C6.64378 6.3351 10.3981 4.38053 14.1478 2.42134C15.3977 1.76982 16.6522 1.1183 17.9021 0.462157C18.4345 0.180293 18.9946 -0.00453603 19.601 8.46938e-05C20.4343 0.00470542 20.9296 0.457536 21.0361 1.2754C21.0454 1.33547 21.0454 1.39554 21.0454 1.45099C21.0454 6.42751 21.087 11.4087 21.0083 16.3852C20.9852 17.7714 20.0825 18.7972 18.7909 19.287C14.7079 20.8349 10.5972 22.3228 6.50027 23.8384C6.0929 23.9909 5.68553 24.148 5.28741 24.319C4.66709 24.587 4.41249 25.0213 4.56525 25.5065C4.70413 25.9501 5.14853 26.1349 5.81977 25.9686C7.12522 25.6451 8.42141 25.2985 9.72223 24.9612C13.3793 24.0094 17.0318 23.0483 20.6889 22.1149C21.4805 21.9116 22.2027 21.5881 22.823 21.0798C23.4109 20.5993 23.5683 19.8877 23.5729 19.153C23.5822 17.6512 23.5776 16.1495 23.5776 14.6478C23.5776 13.1645 23.5868 11.6859 23.5683 10.2026C23.5637 9.82836 23.6516 9.66202 24.059 9.68974C24.5914 9.72671 25.133 9.67588 25.6607 9.73133C26.8967 9.86071 27.605 10.674 27.605 11.9031C27.605 16.6624 27.6004 21.4264 27.6004 26.1857C27.6004 27.3871 26.8921 28.1819 25.6839 28.3251C25.332 28.3667 24.971 28.3621 24.6145 28.3667C21.1889 28.3759 17.7632 28.3713 14.3376 28.3713ZM13.0368 10.8126C12.9997 11.6813 13.5228 12.148 14.3746 12.014C15.5273 11.8338 16.6661 10.5769 16.717 9.42636C16.7541 8.57153 16.2171 8.08173 15.3745 8.21111C14.2311 8.39132 13.0877 9.66664 13.0368 10.8126Z" fill="#5C9EFF"/>
</svg>
