<svg width="310" height="311" viewBox="0 0 310 311" fill="none" xmlns="http://www.w3.org/2000/svg">
<circle cx="5" cy="5.08826" r="5" fill="white"/>
<circle cx="65" cy="5.08826" r="5" fill="white"/>
<circle cx="125" cy="5.08826" r="5" fill="white"/>
<circle cx="185" cy="5.08826" r="5" fill="white"/>
<circle cx="245" cy="5.08826" r="5" fill="white"/>
<circle cx="305" cy="5.08826" r="5" fill="white"/>
<circle cx="5" cy="65.0883" r="5" fill="white"/>
<circle cx="65" cy="65.0883" r="5" fill="white"/>
<circle cx="125" cy="65.0883" r="5" fill="white"/>
<circle cx="185" cy="65.0883" r="5" fill="white"/>
<circle cx="245" cy="65.0883" r="5" fill="white"/>
<circle cx="305" cy="65.0883" r="5" fill="white"/>
<circle cx="5" cy="125.088" r="5" fill="white"/>
<circle cx="65" cy="125.088" r="5" fill="white"/>
<circle cx="125" cy="125.088" r="5" fill="white"/>
<circle cx="185" cy="125.088" r="5" fill="white"/>
<circle cx="245" cy="125.088" r="5" fill="white"/>
<circle cx="305" cy="125.088" r="5" fill="white"/>
<circle cx="5" cy="185.088" r="5" fill="white"/>
<circle cx="65" cy="185.088" r="5" fill="white"/>
<circle cx="125" cy="185.088" r="5" fill="white"/>
<circle cx="185" cy="185.088" r="5" fill="white"/>
<circle cx="245" cy="185.088" r="5" fill="white"/>
<circle cx="305" cy="185.088" r="5" fill="white"/>
<circle cx="5" cy="245.088" r="5" fill="white"/>
<circle cx="65" cy="245.088" r="5" fill="white"/>
<circle cx="125" cy="245.088" r="5" fill="white"/>
<circle cx="185" cy="245.088" r="5" fill="white"/>
<circle cx="245" cy="245.088" r="5" fill="white"/>
<circle cx="305" cy="245.088" r="5" fill="white"/>
<circle cx="5" cy="305.088" r="5" fill="white"/>
<circle cx="65" cy="305.088" r="5" fill="white"/>
<circle cx="125" cy="305.088" r="5" fill="white"/>
<circle cx="185" cy="305.088" r="5" fill="white"/>
<circle cx="245" cy="305.088" r="5" fill="white"/>
<circle cx="305" cy="305.088" r="5" fill="white"/>
</svg>
