<svg width="216" height="215" viewBox="0 0 216 215" fill="none" xmlns="http://www.w3.org/2000/svg">
<circle cx="3.47751" cy="3.46774" r="3.46774" fill="white"/>
<circle cx="45.0908" cy="3.46774" r="3.46774" fill="white"/>
<circle cx="86.7031" cy="3.46774" r="3.46774" fill="white"/>
<circle cx="128.316" cy="3.46774" r="3.46774" fill="white"/>
<circle cx="169.929" cy="3.46774" r="3.46774" fill="white"/>
<circle cx="211.542" cy="3.46774" r="3.46774" fill="white"/>
<circle cx="3.47751" cy="45.0806" r="3.46774" fill="white"/>
<circle cx="45.0908" cy="45.0806" r="3.46774" fill="white"/>
<circle cx="86.7031" cy="45.0806" r="3.46774" fill="white"/>
<circle cx="128.316" cy="45.0806" r="3.46774" fill="white"/>
<circle cx="169.929" cy="45.0806" r="3.46774" fill="white"/>
<circle cx="211.542" cy="45.0806" r="3.46774" fill="white"/>
<circle cx="3.47751" cy="86.6935" r="3.46774" fill="white"/>
<circle cx="45.0908" cy="86.6935" r="3.46774" fill="white"/>
<circle cx="86.7031" cy="86.6935" r="3.46774" fill="white"/>
<circle cx="128.316" cy="86.6935" r="3.46774" fill="white"/>
<circle cx="169.929" cy="86.6935" r="3.46774" fill="white"/>
<circle cx="211.542" cy="86.6935" r="3.46774" fill="white"/>
<circle cx="3.47751" cy="128.306" r="3.46774" fill="white"/>
<circle cx="45.0908" cy="128.306" r="3.46774" fill="white"/>
<circle cx="86.7031" cy="128.306" r="3.46774" fill="white"/>
<circle cx="128.316" cy="128.306" r="3.46774" fill="white"/>
<circle cx="169.929" cy="128.306" r="3.46774" fill="white"/>
<circle cx="211.542" cy="128.306" r="3.46774" fill="white"/>
<circle cx="3.47751" cy="169.919" r="3.46774" fill="white"/>
<circle cx="45.0908" cy="169.919" r="3.46774" fill="white"/>
<circle cx="86.7031" cy="169.919" r="3.46774" fill="white"/>
<circle cx="128.316" cy="169.919" r="3.46774" fill="white"/>
<circle cx="169.929" cy="169.919" r="3.46774" fill="white"/>
<circle cx="211.542" cy="169.919" r="3.46774" fill="white"/>
<circle cx="3.47751" cy="211.532" r="3.46774" fill="white"/>
<circle cx="45.0908" cy="211.532" r="3.46774" fill="white"/>
<circle cx="86.7031" cy="211.532" r="3.46774" fill="white"/>
<circle cx="128.316" cy="211.532" r="3.46774" fill="white"/>
<circle cx="169.929" cy="211.532" r="3.46774" fill="white"/>
<circle cx="211.542" cy="211.532" r="3.46774" fill="white"/>
</svg>
