<svg width="32" height="38" viewBox="0 0 32 38" fill="none" xmlns="http://www.w3.org/2000/svg">
<path d="M15.9547 38C15.6439 38 15.3331 38 15.0223 38C14.9808 37.9683 14.9394 37.9259 14.8979 37.9154C10.298 36.741 6.82736 33.9584 4.25804 29.9697C1.70943 26.0445 0.600891 21.6221 0.207204 16.9774C0.134682 16.1522 0.0725213 15.3375 0 14.5123C0 11.9413 0 9.35979 0 6.78884C0.0310805 6.74652 0.0621611 6.7042 0.0828815 6.6513C0.445488 5.30763 1.34682 4.67283 2.70401 4.72573C4.62064 4.79979 6.53728 4.70457 8.40211 4.21788C10.5363 3.65714 12.2043 2.27115 13.779 0.779365C14.7736 -0.16226 15.9029 -0.268061 17.0011 0.557184C17.6641 1.05445 18.2961 1.60461 18.9591 2.11245C20.1091 2.9906 21.2798 3.85816 22.6992 4.19672C24.564 4.65167 26.4703 4.82095 28.3973 4.69399C29.1743 4.64109 29.8891 4.84211 30.4071 5.45575C30.6972 5.80489 30.863 6.25983 31.0909 6.66188C31.0909 9.27515 31.0909 11.8778 31.0909 14.4911C31.0598 14.8085 31.008 15.1153 30.9977 15.4327C30.8319 19.1146 30.1999 22.6907 28.8117 26.1186C26.9986 30.5728 24.1703 34.1383 19.9434 36.4024C18.6794 37.0795 17.2808 37.4816 15.9547 38ZM15.4781 2.31347C11.9246 6.33389 7.40753 7.42364 2.3932 7.06392C2.43464 11.0738 2.22744 14.9566 2.80761 18.8078C3.32562 22.2675 4.30984 25.579 6.19539 28.5308C8.33995 31.8847 11.1994 34.3287 15.0119 35.4819C15.302 35.5666 15.6646 35.5666 15.965 35.4819C18.4204 34.7942 20.5132 33.4612 22.3158 31.6625C25.7036 28.2875 27.3716 24.0449 28.1693 19.3791C28.7288 16.0781 28.677 12.7454 28.6666 9.41269C28.6666 8.66151 28.6666 7.91032 28.6666 7.04276C23.6005 7.47654 19.1145 6.20693 15.4781 2.31347Z" fill="#5C9EFF"/>
<path d="M13.2848 23.4616C15.6584 21.1468 17.8322 19.0199 20.0177 16.8931C21.2633 15.6711 22.5088 14.4608 23.7544 13.2388C24.1656 12.8275 24.6474 12.5925 25.2231 12.6513C25.8929 12.7335 26.3982 13.0743 26.6214 13.744C26.8447 14.4021 26.6567 14.9778 26.1749 15.4596C24.4946 17.1046 22.8143 18.7379 21.134 20.383C18.972 22.5098 16.8099 24.6366 14.6596 26.7634C13.9546 27.4567 12.8735 27.4684 12.1803 26.7752C10.1357 24.7541 8.07941 22.7448 6.05836 20.7002C5.7881 20.4182 5.54134 20.0422 5.44734 19.6662C5.27109 18.9494 5.65885 18.2914 6.30512 17.9624C6.99838 17.6099 7.69165 17.7274 8.29092 18.3149C9.3367 19.3255 10.3825 20.3242 11.393 21.3583C12.0393 22.028 12.6385 22.7331 13.2848 23.4616Z" fill="#5C9EFF"/>
</svg>
