<svg width="37" height="40" viewBox="0 0 37 40" fill="none" xmlns="http://www.w3.org/2000/svg">
<path d="M34.6643 20.1906C34.6643 25.1088 34.6643 30.0271 34.6643 34.9454C34.6643 35.6691 34.6643 36.3998 34.3903 37.0883C34.046 37.9525 33.3926 38.2476 32.6057 37.7769C31.9382 37.3834 31.341 36.8565 30.7438 36.3576C30.3644 36.0485 30.0341 35.6761 29.6758 35.3388C29.0926 34.7908 28.4884 34.7978 27.9123 35.3459C27.1534 36.0696 26.4157 36.8143 25.5023 37.3764C24.2517 38.1352 23.0572 38.1493 21.8066 37.3834C20.9213 36.8424 20.2046 36.1398 19.4669 35.4302C18.7713 34.7557 18.2303 34.7768 17.5136 35.4161C16.7689 36.0836 16.0171 36.7581 15.2021 37.3413C13.9865 38.2055 12.6867 38.2055 11.4712 37.3413C10.6491 36.7511 9.89033 36.0696 9.13151 35.395C8.46403 34.7978 7.91599 34.7768 7.25554 35.374C6.60914 35.9642 5.96977 36.5754 5.28824 37.1235C4.92288 37.4186 4.49429 37.6645 4.05867 37.8542C3.41227 38.1422 2.87829 37.9315 2.5059 37.3202C2.18973 36.8073 2.07731 36.2382 2.03515 35.648C2.01408 35.3669 2.01408 35.0859 2.01408 34.8049C2.0211 24.9402 2.04218 15.0686 2.00002 5.1969C1.993 3.20852 3.51063 1.993 5.21798 2.00003C14.0709 2.02813 22.9237 2.01408 31.7766 2.01408C33.512 2.01408 34.587 3.03287 34.6573 4.76831C34.6854 5.38661 34.6643 6.01193 34.6643 6.63023C34.6643 11.148 34.6643 15.6658 34.6643 20.1906ZM13.8882 17.0288C14.0287 17.0148 14.2395 17.0007 14.4503 16.9867C17.0359 16.7548 18.7994 14.4011 18.3006 11.8366C17.9071 9.83412 16.5581 8.55538 14.4292 8.31649C10.9302 7.93005 8.9137 10.6773 9.44066 13.5298C9.82007 15.6306 11.5415 16.9867 13.8882 17.0288ZM26.9637 9.92546C26.1136 9.92546 25.3056 9.93249 24.4976 9.91844C24.2376 9.91141 24.069 10.0168 23.9004 10.2065C19.6425 14.9421 15.3777 19.6707 11.1129 24.3992C10.7756 24.7716 10.4454 25.144 10.066 25.5655C10.2487 25.5726 10.3611 25.5866 10.4735 25.5866C11.162 25.5866 11.8576 25.5726 12.5462 25.5936C12.8132 25.6007 12.9959 25.5164 13.1785 25.3126C16.9867 21.0548 20.8018 16.804 24.617 12.5462C25.3969 11.682 26.1768 10.8108 26.9637 9.92546ZM23.2118 27.2869C23.3383 27.2799 23.528 27.2659 23.7177 27.2518C26.3876 27.0199 28.1371 24.5959 27.5047 21.9893C27.0199 19.9798 25.5023 18.7994 23.2891 18.7081C20.7456 18.6027 18.7854 20.4505 18.7713 22.9729C18.7573 25.432 20.5911 27.2378 23.2118 27.2869Z" stroke="#5C9EFF" stroke-width="3" stroke-miterlimit="10"/>
<rect x="4.45435" y="5.27271" width="27.8182" height="27" fill="#E3ECF6"/>
<path d="M16.9776 12.6734C16.9961 10.887 15.6339 9.5549 13.8458 9.5549C12.973 9.5549 12.1836 9.84982 11.607 10.4048C11.0286 10.9615 10.7114 11.735 10.707 12.5985L10.707 12.5986C10.7025 13.4772 11.0183 14.265 11.6022 14.8332C12.184 15.3993 12.984 15.7018 13.8701 15.7062M16.9776 12.6734L16.2277 12.6657L16.9776 12.6734C16.9776 12.6734 16.9776 12.6734 16.9776 12.6734ZM16.9776 12.6734C16.9687 13.5349 16.6563 14.3067 16.0848 14.8624C15.5141 15.4174 14.7329 15.7106 13.8701 15.7062M13.8701 15.7062L13.8739 14.9562L13.8703 15.7062C13.8702 15.7062 13.8702 15.7062 13.8701 15.7062ZM10.1711 13.3942L10.171 13.3936C9.94615 12.1766 10.2683 11.0139 10.981 10.204C11.6828 9.40655 12.8138 8.89364 14.339 9.06191C15.2695 9.16644 15.9845 9.4928 16.5035 9.96998C17.0226 10.4472 17.3898 11.1158 17.557 11.9792L17.5572 11.9802C17.9714 14.1034 16.5243 16.0435 14.3835 16.239C14.3671 16.2402 14.3504 16.2413 14.3336 16.2425C14.1708 16.2537 13.9948 16.2657 13.8592 16.2782C11.8458 16.2334 10.4827 15.0885 10.1711 13.3942Z" fill="#3B3B3B" stroke="#5C9EFF" stroke-width="1.5"/>
<path d="M25.2862 10.6762C24.8767 11.1346 24.4702 11.5892 24.0602 12.0435L24.0588 12.045C20.2434 16.2961 16.4279 20.5542 12.6195 24.8124L13.1785 25.3124C12.9958 25.5161 12.8131 25.6005 12.5461 25.5934C12.0511 25.5833 11.5524 25.5841 11.0553 25.5854C11.0663 25.5731 11.0772 25.5609 11.0881 25.5487C11.2864 25.3271 11.4749 25.1165 11.6687 24.9025L11.6697 24.9013L11.6719 24.8989C11.6911 24.8776 11.7104 24.8563 11.7296 24.8349M25.2862 10.6762L12.6201 24.8117C12.6061 24.8273 12.5957 24.8374 12.5888 24.8436M25.2862 10.6762C25.0219 10.6751 24.7586 10.6728 24.4958 10.6683C24.4878 10.6757 24.4762 10.6873 24.4609 10.7046L24.458 10.7077C20.2197 15.4217 15.9744 20.1286 11.7296 24.8349M25.2862 10.6762L10.7194 24.8361M11.7296 24.8349C12.0069 24.8356 12.2851 24.8379 12.5614 24.8436L12.5659 24.8437C12.5756 24.8439 12.5832 24.8438 12.5888 24.8436M11.7296 24.8349C11.685 24.8348 11.6404 24.8347 11.5959 24.8347C11.5952 24.8347 11.5945 24.8347 11.5939 24.8347C11.3887 24.8345 11.1843 24.835 10.9818 24.8355C10.8939 24.8358 10.8064 24.836 10.7194 24.8361M12.5888 24.8436C12.585 24.847 12.5822 24.8493 12.5805 24.8506C12.5792 24.8516 12.5786 24.852 12.5786 24.852C12.5786 24.852 12.5816 24.8501 12.5871 24.8476C12.5908 24.8459 12.5944 24.8446 12.5976 24.8436C12.6007 24.8427 12.6024 24.8424 12.6022 24.8424C12.6019 24.8425 12.5978 24.8432 12.5888 24.8436ZM10.7194 24.8361C10.8517 24.6885 10.9817 24.5437 11.1128 24.399L11.1145 24.3971C15.3788 19.6692 19.643 14.9413 23.9003 10.2063L10.7194 24.8361Z" fill="#3B3B3B" stroke="#5C9EFF" stroke-width="1.5"/>
<path d="M19.5212 22.9792L19.5212 22.9769C19.5328 20.8872 21.1309 19.3691 23.2579 19.4573L23.258 19.4573C24.2382 19.4977 25.0126 19.7761 25.5843 20.2211C26.1527 20.6634 26.5685 21.3068 26.7755 22.165L26.7758 22.1659C27.2996 24.3252 25.8667 26.3159 23.6583 26.504C23.6088 26.5076 23.5481 26.5113 23.4839 26.5153C23.3821 26.5215 23.2716 26.5283 23.1835 26.5361C20.9612 26.4827 19.504 24.986 19.5212 22.9792ZM23.2404 26.0624L23.2405 26.0624C24.0996 26.0535 24.8728 25.7448 25.4335 25.1841C25.9948 24.6228 26.3014 23.8507 26.3014 22.9938C26.3014 21.2028 24.9532 19.881 23.1657 19.8901L23.1656 19.8901C22.3075 19.8945 21.5352 20.2024 20.9761 20.7663C20.4172 21.3301 20.115 22.1058 20.115 22.9657C20.115 24.7602 21.4533 26.0807 23.2404 26.0624Z" fill="#3B3B3B" stroke="#5C9EFF" stroke-width="1.5"/>
</svg>
