<svg width="18" height="20" viewBox="0 0 18 20" fill="none" xmlns="http://www.w3.org/2000/svg">
<path d="M15.1916 9.96148C15.3393 10.1235 15.4757 10.2697 15.6083 10.4159C15.6424 10.4515 15.6765 10.491 15.7182 10.5384C15.4265 10.8427 15.1499 11.143 14.8582 11.4354C12.7251 13.5969 10.5921 15.7545 8.44769 17.9041C7.88696 18.4652 7.31108 19.0066 6.6329 19.4136C5.32201 20.2039 4.0187 20.196 2.72296 19.386C1.96901 18.9157 1.30978 18.323 0.794513 17.5761C0.385333 16.9913 0.0973919 16.3472 0.0216178 15.6162C-0.0958319 14.4821 0.271672 13.5139 0.968793 12.6722C1.75684 11.7199 2.55626 10.7795 3.37462 9.85478C5.70088 7.23095 8.06503 4.64268 10.558 2.18085C10.9937 1.75013 11.4408 1.33127 11.9144 0.951918C12.5509 0.434263 13.2821 0.110235 14.0929 0.0233006C15.3204 -0.111052 16.332 0.339425 17.1617 1.27595C17.5974 1.76594 17.9346 2.30335 17.9876 2.98697C18.0483 3.71801 17.8891 4.40558 17.4383 4.9667C16.7942 5.77677 16.1236 6.56709 15.4265 7.32579C13.2897 9.66116 11.077 11.9135 8.81519 14.1146C8.42496 14.4939 8.00062 14.81 7.45505 14.8772C6.64806 14.976 5.74635 14.486 5.35611 13.7431C4.94693 12.9568 5.01513 12.044 5.5948 11.3485C6.0646 10.7834 6.56849 10.246 7.08376 9.72043C8.36813 8.40851 9.66765 7.10845 10.9596 5.80443C10.9861 5.77677 11.0164 5.75306 11.0619 5.7096C11.2362 5.89927 11.4067 6.08895 11.5961 6.29048C11.3423 6.54338 11.096 6.78442 10.8535 7.02942C9.43275 8.48359 8.01578 9.93382 6.5988 11.3919C6.45862 11.5342 6.32981 11.6883 6.20099 11.8424C5.78044 12.3522 5.75771 13.1227 6.19341 13.5732C6.75793 14.158 7.36791 14.2647 7.9097 13.834C8.28856 13.5297 8.64849 13.1939 8.98948 12.8422C11.0733 10.6925 13.1533 8.54287 15.2181 6.37741C15.7485 5.82419 16.241 5.22751 16.7184 4.62687C17.3246 3.86817 17.4572 2.82101 16.6919 1.93586C16.0402 1.18111 15.2711 0.714824 14.2671 0.809661C13.5246 0.880789 12.8388 1.1574 12.2894 1.6711C11.2589 2.63133 10.2435 3.61132 9.26226 4.62687C6.8678 7.10845 4.53775 9.66116 2.29105 12.2929C1.96522 12.6762 1.63939 13.0635 1.34766 13.4784C0.74526 14.3438 0.605078 15.2882 0.987737 16.2998C1.28326 17.0822 1.82125 17.671 2.43123 18.1926C2.96165 18.6431 3.53374 19.0066 4.2195 19.141C4.96587 19.2872 5.64405 19.0777 6.28434 18.6865C6.95494 18.2756 7.51567 17.7223 8.06882 17.1612C10.3837 14.8298 12.691 12.4865 14.9984 10.1472C15.0552 10.0919 15.1082 10.0405 15.1916 9.96148Z" fill="white"/>
</svg>
