<svg width="25" height="25" viewBox="0 0 25 25" fill="none" xmlns="http://www.w3.org/2000/svg">
<path d="M12.3312 7.99139C12.4953 7.83647 12.602 7.74677 12.7086 7.64893C14.325 6.0426 15.9331 4.43627 17.5577 2.8381C17.7628 2.63425 18.0336 2.46302 18.3043 2.36517C19.9781 1.73732 21.6601 1.14208 23.3339 0.522378C23.7195 0.383761 24.0887 0.359299 24.4005 0.660995C24.7287 0.978999 24.7041 1.36223 24.5564 1.75362C23.9246 3.44964 23.3092 5.14566 22.6775 6.83353C22.5872 7.06184 22.4313 7.29015 22.2508 7.46954C20.5114 9.21448 18.7556 10.9513 17.008 12.6881C16.9013 12.7941 16.7782 12.8756 16.6387 12.9898C17.492 13.8867 18.2961 14.7347 19.1002 15.5827C20.8232 17.3847 22.5462 19.1868 24.2692 20.9969C25.221 21.9999 25.2538 23.4023 24.343 24.3237C23.4323 25.2451 22.0047 25.237 20.9955 24.2911C18.4356 21.8857 15.8757 19.4721 13.3158 17.0586C13.2091 16.9526 13.0943 16.8547 12.8563 16.6346C12.7825 16.7732 12.7333 16.9281 12.6348 17.0341C10.4441 19.2194 8.24524 21.3965 6.05456 23.5817C5.13563 24.5031 4.03619 24.8538 2.79726 24.4705C1.55013 24.0873 0.72145 23.223 0.426078 21.9428C0.163524 20.8175 0.483511 19.8228 1.30399 18.9992C3.29775 17.0178 5.28331 15.0446 7.27708 13.0631C7.37554 12.9653 7.47399 12.8511 7.53963 12.7859C6.88325 12.6554 6.21866 12.5902 5.5951 12.3782C3.97875 11.8319 2.80547 10.7067 1.81269 9.36941C0.524535 7.60816 -0.164667 5.66752 0.0322476 3.48226C0.13891 2.29994 0.549149 1.23992 1.37783 0.359299C1.81269 -0.0973222 2.29677 -0.121784 2.73983 0.310375C3.69158 1.24808 4.85666 1.65578 6.16943 1.74547C6.87504 1.79439 7.58886 1.83516 8.29447 1.93301C9.85338 2.14501 10.8544 3.11533 11.5764 4.43627C12.1015 5.39844 12.3394 6.43399 12.3312 7.52662C12.3312 7.65708 12.3312 7.78754 12.3312 7.99139ZM2.1737 2.21024C2.09165 2.4304 1.98499 2.65871 1.91935 2.90333C1.61577 4.00411 1.69782 5.08859 2.08345 6.1486C2.80547 8.13816 4.00337 9.7608 5.98072 10.6414C7.93346 11.5139 10.1241 10.3316 10.5016 8.26047C10.7477 6.91507 10.4359 5.67567 9.59083 4.58304C9.15598 4.02042 8.58984 3.71872 7.89244 3.62903C7.52322 3.58826 7.15401 3.58826 6.793 3.53118C5.80842 3.37626 4.81564 3.2621 3.85568 3.01748C3.28134 2.87071 2.75624 2.49563 2.1737 2.21024ZM10.2718 11.7748C10.28 11.783 10.3211 11.8319 10.3703 11.8727C14.3004 15.5746 18.2305 19.2683 22.1524 22.9702C22.218 23.0354 22.2918 23.1088 22.3657 23.1577C22.62 23.3127 22.8662 23.2963 23.0795 23.0925C23.2928 22.8887 23.3256 22.6359 23.1616 22.3913C23.0631 22.2445 22.9318 22.1222 22.8087 21.9917C19.8796 18.9177 16.9423 15.8436 14.0132 12.7614C13.2256 11.9379 12.4379 11.1144 11.8225 10.4702C11.2974 10.9105 10.7887 11.3427 10.2718 11.7748ZM15.3998 11.6851C17.1228 9.9728 18.8048 8.30124 20.4458 6.67045C19.7566 5.98552 19.0427 5.27613 18.3617 4.59935C16.7208 6.23014 15.0552 7.88539 13.3732 9.55695C14.0296 10.2582 14.727 10.9839 15.3998 11.6851ZM7.15401 19.8228C8.61446 18.3714 10.0995 16.8955 11.5846 15.4196C10.9036 14.7755 10.1652 14.0824 9.45955 13.4138C7.98269 14.8815 6.53044 16.3247 5.0864 17.7598C5.78381 18.4611 6.50583 19.1786 7.15401 19.8228ZM3.73261 19.0074C3.36339 19.3825 2.99418 19.7494 2.63317 20.1163C2.56753 20.1815 2.49369 20.2468 2.43625 20.3202C1.95217 20.8828 1.96858 21.6493 2.47728 22.2119C3.10084 22.905 3.90491 23.1007 4.50386 22.5951C5.02076 22.163 5.4392 21.6166 5.88226 21.1437C5.19306 20.4669 4.48745 19.7575 3.73261 19.0074ZM20.0273 3.58011C20.5278 4.0775 20.9955 4.54227 21.4796 5.03151C21.7421 4.30581 22.0129 3.57195 22.3165 2.7484C21.4796 3.0501 20.7493 3.31918 20.0273 3.58011Z" fill="#5C9EFF"/>
</svg>
