<svg width="34" height="26" viewBox="0 0 34 26" fill="none" xmlns="http://www.w3.org/2000/svg">
<path d="M7.2877 17.7319C5.87823 17.7319 4.52891 17.7319 3.171 17.7319C2.81863 17.7319 2.45767 17.7406 2.1053 17.7319C1.69277 17.7233 1.42634 17.4997 1.42634 17.1555C1.42634 16.8114 1.68417 16.5791 2.1053 16.5791C3.72963 16.5705 5.35397 16.5791 6.97831 16.5705C7.06425 16.5705 7.15019 16.5705 7.26192 16.5705C7.26192 15.9252 7.26192 15.2971 7.26192 14.6175C6.82361 14.6175 6.39389 14.6175 5.95558 14.6175C5.68915 14.6175 5.41413 14.6261 5.1477 14.6175C4.74377 14.6089 4.46875 14.3594 4.48594 14.0238C4.49453 13.6883 4.75236 13.4732 5.1477 13.4646C5.84385 13.456 6.53999 13.4646 7.26192 13.4646C7.26192 12.8193 7.26192 12.1827 7.26192 11.5288C7.15879 11.5202 7.05566 11.5116 6.95252 11.5116C5.0016 11.5116 3.05927 11.5202 1.10835 11.503C0.893492 11.503 0.670038 11.417 0.480962 11.3223C0.248914 11.2105 0.154376 10.9782 0.223131 10.7201C0.291886 10.4361 0.498151 10.2899 0.790359 10.2813C1.57245 10.2727 2.36313 10.2727 3.14522 10.2727C4.42578 10.2727 5.70634 10.2727 6.9869 10.2727C7.09003 10.2727 7.20176 10.2727 7.33927 10.2727C7.34786 10.135 7.35646 10.0146 7.35646 9.90273C7.35646 8.50035 7.36505 7.09797 7.35646 5.7042C7.35646 5.42889 7.451 5.27402 7.70883 5.17078C11.7568 3.54471 15.8047 1.91864 19.8441 0.28397C20.1449 0.163521 20.4113 0.146314 20.7121 0.266763C24.7858 1.94445 28.8596 3.60494 32.9419 5.27402C33.2083 5.38587 33.2685 5.56654 33.2685 5.83325C33.2599 10.3587 33.2599 14.8842 33.2685 19.401C33.2685 20.5883 33.32 20.4765 32.2543 20.9153C28.3955 22.5155 24.5366 24.1244 20.6777 25.7332C20.4027 25.8451 20.1535 25.8451 19.8785 25.7332C15.8907 24.0728 11.9029 22.4123 7.91509 20.7604C7.33067 20.5195 7.2877 20.4507 7.2877 19.8226C7.2877 19.1429 7.2877 18.4546 7.2877 17.7319ZM20.8668 24.4169C20.9613 24.3911 21.0043 24.3825 21.0387 24.3739C24.6655 22.8683 28.3009 21.354 31.9278 19.8484C32.1082 19.771 32.1598 19.6763 32.1598 19.4871C32.1426 15.2971 32.134 11.1072 32.1168 6.9173C32.1168 6.83126 32.0996 6.73663 32.0911 6.62478C31.9793 6.6678 31.902 6.70221 31.8246 6.72802C28.258 8.21643 24.6913 9.70485 21.116 11.1847C20.9012 11.2707 20.8668 11.3911 20.8668 11.589C20.8754 15.1251 20.8668 18.6525 20.8668 22.1886C20.8668 22.9199 20.8668 23.6512 20.8668 24.4169ZM8.45654 6.62478C8.45654 7.8981 8.45654 9.11981 8.45654 10.3587C8.86047 10.3587 9.23862 10.3501 9.61678 10.3587C9.90899 10.3759 10.1324 10.591 10.141 10.8749C10.1582 11.1674 10.0207 11.3739 9.7371 11.46C9.60818 11.4944 9.46208 11.503 9.32457 11.5116C9.04095 11.5202 8.74875 11.5116 8.45654 11.5116C8.45654 12.1827 8.45654 12.8107 8.45654 13.456C8.59405 13.456 8.69718 13.456 8.80031 13.456C10.459 13.456 12.1177 13.456 13.7679 13.456C14.189 13.456 14.4468 13.6883 14.4468 14.0324C14.4468 14.3594 14.189 14.5831 13.7936 14.6089C13.7335 14.6089 13.6647 14.6089 13.596 14.6089C12.006 14.6089 10.4075 14.6089 8.8175 14.6089C8.69718 14.6089 8.56826 14.6089 8.44794 14.6089C8.44794 15.2885 8.44794 15.908 8.44794 16.5619C8.9636 16.5619 9.44489 16.5619 9.92617 16.5619C10.2184 16.5619 10.5106 16.5533 10.7942 16.5705C11.138 16.5877 11.3528 16.82 11.3614 17.1211C11.37 17.4308 11.1638 17.6631 10.8372 17.7147C10.7255 17.7319 10.6051 17.7233 10.4848 17.7233C9.80585 17.7233 9.13549 17.7233 8.42216 17.7233C8.42216 18.317 8.43075 18.8848 8.41357 19.4527C8.40497 19.6763 8.49091 19.771 8.68859 19.857C12.2552 21.3368 15.8133 22.8166 19.3714 24.3051C19.4659 24.3395 19.5605 24.3739 19.6808 24.4169C19.6808 24.2534 19.6808 24.1502 19.6808 24.0469C19.6808 19.9172 19.6808 15.7962 19.6894 11.6665C19.6894 11.3825 19.6034 11.2621 19.3456 11.1502C16.8189 10.1092 14.3093 9.05958 11.7826 8.00995C10.7083 7.54536 9.59959 7.09797 8.45654 6.62478ZM24.9663 3.2694C24.8632 3.21778 24.8116 3.19197 24.7687 3.17476C23.3334 2.59832 21.8981 2.01328 20.4629 1.45405C20.3511 1.41103 20.1879 1.41964 20.0761 1.47126C17.0767 2.66715 14.0773 3.88025 11.0778 5.08475C10.5364 5.29983 10.0035 5.52353 9.41911 5.76443C9.53083 5.82465 9.5824 5.85046 9.64256 5.87627C11.1294 6.49573 12.6162 7.12378 14.1116 7.72603C14.2405 7.77765 14.4296 7.75184 14.5585 7.69162C16.0797 7.05496 17.5838 6.40969 19.105 5.77303C21.0301 4.93849 22.9638 4.11255 24.9663 3.2694ZM15.7703 8.42292C17.2915 9.05958 18.7182 9.66183 20.1621 10.2555C20.2738 10.2985 20.4371 10.2641 20.5574 10.2125C23.9952 8.77566 27.4329 7.33887 30.8707 5.90208C30.9566 5.86767 31.0339 5.81605 31.1629 5.75582C31.0339 5.7042 30.9566 5.66118 30.8707 5.62677C29.5127 5.07614 28.1634 4.53412 26.8055 3.98349C26.5907 3.89746 26.4102 3.89746 26.1953 3.9921C23.1959 5.27402 20.1879 6.54735 17.1798 7.82928C16.7329 8.00995 16.2946 8.19923 15.7703 8.42292Z" fill="#5C9EFF"/>
<path d="M20.2736 26C20.1189 26 19.9642 25.9656 19.8009 25.8968C16.7155 24.6062 13.57 23.3071 10.5276 22.0424L7.83752 20.9239C7.19294 20.6572 7.107 20.5195 7.107 19.8313C7.107 19.3581 7.107 18.8763 7.107 18.3859V17.8955H3.16218C3.04186 17.8955 2.93013 17.8955 2.80981 17.8955C2.57776 17.8955 2.32853 17.8955 2.09648 17.8955C1.59801 17.8869 1.25423 17.5857 1.24564 17.147C1.24564 16.9491 1.31439 16.7684 1.44331 16.6393C1.59801 16.4845 1.82146 16.3984 2.09648 16.3984C3.2825 16.3898 4.48572 16.3898 5.64596 16.3898H7.08121V14.781H6.85776C6.54836 14.781 6.24756 14.781 5.93816 14.781C5.85222 14.781 5.76628 14.781 5.67174 14.781C5.49126 14.781 5.31077 14.781 5.1217 14.781C4.85527 14.7724 4.63182 14.6777 4.47712 14.5143C4.3482 14.3766 4.27945 14.1959 4.28804 14.0067C4.30523 13.5765 4.64041 13.284 5.1217 13.284C5.61158 13.2754 6.09286 13.284 6.59993 13.284C6.75463 13.284 6.90933 13.284 7.06403 13.284V11.6837C6.89214 11.6751 6.72885 11.6751 6.55696 11.6751C6.17881 11.6751 5.80065 11.6751 5.4225 11.6751C3.99584 11.6751 2.5262 11.6751 1.08234 11.6665C0.876079 11.6665 0.635437 11.5977 0.377606 11.4686C0.0768031 11.3224 -0.0607069 11.0126 0.0252368 10.6685C0.111181 10.3071 0.377606 10.1007 0.755758 10.1007C1.52066 10.0921 2.29415 10.0921 3.04186 10.0921H3.11062C4.00443 10.0921 4.88965 10.0921 5.78346 10.0921H7.14138C7.14138 10.0232 7.14997 9.963 7.14997 9.89417V9.04242C7.14997 7.94117 7.15856 6.8055 7.14997 5.69564C7.14997 5.3429 7.28748 5.12781 7.61407 4.99876C11.5503 3.41571 15.6326 1.77243 19.7493 0.111947C20.1103 -0.0343133 20.4111 -0.0343133 20.7463 0.0947398C24.502 1.65198 28.507 3.28665 33.0018 5.11921C33.3886 5.27407 33.4316 5.5838 33.4316 5.8419C33.423 11.0815 33.423 15.3918 33.4316 19.4097V19.5646C33.4316 20.5712 33.3886 20.64 32.5205 20.9927C32.4518 21.0185 32.383 21.0444 32.3143 21.0788C28.1976 22.7909 24.4848 24.3309 20.7377 25.8968C20.583 25.9742 20.4283 26 20.2736 26ZM6.23897 17.5599H7.46796V18.3945C7.46796 18.8849 7.46796 19.3581 7.46796 19.8399C7.46796 20.3991 7.46796 20.4077 7.98362 20.6142L10.6737 21.7326C13.7161 22.9974 16.853 24.2965 19.947 25.587C20.179 25.6817 20.3853 25.6903 20.6173 25.587C24.3645 24.0212 28.0773 22.4812 32.194 20.769C32.2713 20.7346 32.3401 20.7088 32.4088 20.683C32.7698 20.5368 32.9589 20.4593 33.0362 20.3475C33.1136 20.227 33.105 19.9947 33.105 19.5732V19.4097C33.105 15.3918 33.105 11.0729 33.105 5.8419C33.105 5.60101 33.0534 5.51497 32.8901 5.44614C28.3953 3.61359 24.3903 1.97031 20.6603 0.438881C20.4197 0.335639 20.1962 0.344243 19.9212 0.456089C15.8045 2.11657 11.7222 3.76845 7.78595 5.3429C7.59688 5.42033 7.53672 5.50637 7.53672 5.72146C7.54531 6.83992 7.53672 7.97558 7.53672 9.07684V9.92859C7.53672 10.006 7.52812 10.0921 7.52812 10.1695C7.52812 10.2125 7.51953 10.2555 7.51953 10.2985L7.51093 10.462H5.81784C4.92403 10.462 4.03881 10.462 3.14499 10.462H3.07624C2.32853 10.462 1.55503 10.462 0.790136 10.4706C0.566682 10.4706 0.446361 10.5652 0.394795 10.7717C0.360417 10.9008 0.369012 11.0815 0.566682 11.1761C0.781541 11.2793 0.962023 11.331 1.11672 11.3396C2.56058 11.3482 4.03021 11.3482 5.45688 11.3482C5.95535 11.3482 6.45383 11.3482 6.96089 11.3482C7.03824 11.3482 7.107 11.3568 7.18435 11.3568C7.21872 11.3568 7.2531 11.3568 7.27889 11.3654L7.44218 11.374V13.6453H7.27029C7.05543 13.6453 6.84057 13.6453 6.63431 13.6453C6.12724 13.6453 5.64595 13.6453 5.15608 13.6453C4.85527 13.6453 4.6662 13.7916 4.6576 14.0411C4.6576 14.1443 4.68339 14.2304 4.75214 14.3078C4.83808 14.4024 4.98419 14.454 5.15608 14.4627C5.33656 14.4713 5.51704 14.4627 5.68893 14.4627C5.77487 14.4627 5.86941 14.4627 5.95535 14.4627C6.26475 14.4627 6.56555 14.4627 6.87495 14.4627H7.44218V16.7598H5.66314C4.5029 16.7598 3.29969 16.7598 2.11367 16.7684C1.93319 16.7684 1.79568 16.82 1.70114 16.9061C1.63238 16.9749 1.59801 17.0609 1.6066 17.1728C1.6066 17.4223 1.79568 17.5771 2.11367 17.5771C2.34572 17.5771 2.59495 17.5771 2.827 17.5771C2.94732 17.5771 3.05905 17.5771 3.17937 17.5771L6.23897 17.5599ZM19.8696 24.6492L19.6462 24.5718C19.6032 24.5546 19.5688 24.546 19.5345 24.5374C19.4571 24.5116 19.3884 24.4944 19.3282 24.46L16.4749 23.2727C13.9051 22.2058 11.2581 21.096 8.64539 20.0119C8.37037 19.9001 8.25864 19.728 8.26724 19.4441C8.27583 19.0397 8.27583 18.644 8.27583 18.2224C8.27583 18.0589 8.27583 17.8869 8.27583 17.7148V17.5427H8.95479C9.47904 17.5427 9.99471 17.5427 10.5104 17.5427C10.5362 17.5427 10.5619 17.5427 10.5877 17.5427C10.6737 17.5427 10.7596 17.5427 10.837 17.5341C11.0776 17.4997 11.2237 17.3362 11.2151 17.1211C11.2065 16.8975 11.0518 16.7598 10.8112 16.7426C10.6135 16.734 10.4072 16.734 10.201 16.734C10.115 16.734 10.0377 16.734 9.95173 16.734C9.61655 16.734 9.28137 16.734 8.9376 16.734H8.28443V14.4368H13.6645C13.7075 14.4368 13.7504 14.4368 13.7934 14.4368C14.1028 14.4196 14.2833 14.2648 14.2833 14.0325C14.2833 13.9206 14.2489 13.8346 14.1802 13.7658C14.0942 13.6797 13.9481 13.6281 13.7762 13.6281C12.5644 13.6281 11.3612 13.6281 10.1494 13.6281H8.28443V11.3396H8.45631C8.54226 11.3396 8.6282 11.3396 8.71414 11.3396C8.91182 11.3396 9.11808 11.3396 9.32435 11.3396C9.44467 11.3396 9.58218 11.331 9.6939 11.2965C9.89157 11.2363 9.98611 11.1073 9.96892 10.8922C9.96033 10.6943 9.80563 10.548 9.60796 10.5394C9.35013 10.5308 9.0923 10.5308 8.82587 10.5308C8.70555 10.5308 8.58523 10.5308 8.45631 10.5308H8.28443V6.36672L9.59937 6.90874C10.3643 7.22707 11.1206 7.5368 11.8683 7.84653C12.616 8.15626 13.3637 8.46598 14.1114 8.78432C15.8561 9.50701 17.6523 10.2641 19.4313 10.9954C19.7579 11.1245 19.8782 11.3138 19.8782 11.6665C19.8696 15.0047 19.8696 18.4031 19.8696 21.6896V24.6492ZM8.61101 17.8955C8.61101 18.0073 8.61101 18.1192 8.61101 18.231C8.61101 18.6526 8.61101 19.0569 8.60242 19.4613C8.60242 19.599 8.6282 19.642 8.76571 19.7022C11.3784 20.7863 14.0341 21.8875 16.5952 22.9629L19.4485 24.1502C19.4743 24.1588 19.5001 24.1674 19.5259 24.176V21.681C19.5259 18.3945 19.5259 15.0047 19.5345 11.6579C19.5345 11.4428 19.4915 11.3826 19.3024 11.3052C17.5234 10.5739 15.7272 9.82534 13.9825 9.09404C13.2348 8.78432 12.4871 8.47459 11.7394 8.16486C10.9831 7.85513 10.2353 7.54541 9.47045 7.22707L8.6368 6.88293V10.1867C8.69696 10.1867 8.76571 10.1867 8.82587 10.1867C9.10089 10.1867 9.35872 10.1781 9.62515 10.1953C10.0033 10.2125 10.2955 10.4964 10.3127 10.875C10.3299 11.2535 10.1408 11.5288 9.77985 11.6321C9.62515 11.6751 9.46185 11.6837 9.32435 11.6837C9.11808 11.6923 8.91182 11.6837 8.70555 11.6837C8.67977 11.6837 8.65398 11.6837 8.6282 11.6837V13.284H10.1494C11.3612 13.284 12.5644 13.284 13.7762 13.284C14.0427 13.284 14.2661 13.37 14.4208 13.5249C14.5497 13.6539 14.6185 13.8346 14.6185 14.0325C14.6185 14.4454 14.2919 14.7466 13.8106 14.781C13.759 14.781 13.7075 14.781 13.6559 14.781H13.6043H8.6282V16.3898H8.92041C9.26418 16.3898 9.59937 16.3898 9.93455 16.3898C10.0205 16.3898 10.0978 16.3898 10.1838 16.3898C10.39 16.3898 10.6049 16.3898 10.8198 16.3984C11.2409 16.4243 11.5417 16.7168 11.5503 17.1125C11.5589 17.5083 11.2925 17.8094 10.8799 17.8783C10.7768 17.8955 10.6737 17.8955 10.5705 17.8955H10.5018C9.98611 17.8955 9.47045 17.8955 8.94619 17.8955H8.61101ZM20.6947 24.6406V20.3045C20.6947 17.4481 20.6947 14.4971 20.6947 11.5891C20.6947 11.3396 20.7549 11.1417 21.0557 11.0212C23.9434 9.82534 26.8741 8.60364 29.7016 7.42496L31.7642 6.5646C31.8158 6.53879 31.8674 6.52158 31.9361 6.49577L32.2455 6.37532L32.2713 6.59902C32.2713 6.63343 32.2799 6.66784 32.2799 6.70226C32.2885 6.77109 32.2971 6.83992 32.2971 6.90874L32.3057 10.6083C32.3143 13.5679 32.3229 16.5189 32.3315 19.4785C32.3315 19.7452 32.2283 19.9001 31.9963 20.0033C29.2461 21.139 26.4529 22.3091 23.7543 23.4275L21.1072 24.5288C21.0728 24.546 21.0385 24.5546 20.9955 24.5632C20.9697 24.5718 20.9439 24.5718 20.9181 24.5804L20.6947 24.6406ZM31.9447 6.86573C31.9275 6.87433 31.9104 6.88293 31.8846 6.89154L29.8219 7.75189C26.9858 8.93058 24.0551 10.1523 21.176 11.3482C21.0471 11.3998 21.0299 11.4342 21.0299 11.5977C21.0299 14.5057 21.0299 17.4567 21.0299 20.3131V24.1933L23.6082 23.1178C26.3068 21.9907 29.1 20.8293 31.8502 19.6936C31.9533 19.6506 31.9705 19.6162 31.9705 19.4871C31.9619 16.5275 31.9533 13.5765 31.9447 10.6169L31.9361 6.91735C31.9447 6.90014 31.9447 6.88293 31.9447 6.86573ZM20.2736 10.4448C20.2134 10.4448 20.1533 10.4362 20.0931 10.4104C18.9414 9.93719 17.8156 9.46399 16.6124 8.95639L15.3232 8.41436L16.1655 8.05301C16.5006 7.91536 16.8014 7.7777 17.1108 7.64865L19.0102 6.83992C21.3393 5.86772 23.7543 4.84389 26.1263 3.82868C26.3842 3.71683 26.6162 3.71683 26.8655 3.82007C27.8452 4.22444 28.8336 4.6202 29.7961 5.00736C30.1743 5.16222 30.5438 5.30849 30.922 5.46335C30.9822 5.48916 31.0337 5.51497 31.1025 5.54078C31.1369 5.55799 31.1712 5.57519 31.2228 5.5924L31.558 5.73866L31.2314 5.90213C31.1884 5.91934 31.154 5.94515 31.1197 5.96235C31.0509 5.99677 30.9908 6.03118 30.9306 6.05699L30.7673 6.12582C27.4413 7.51959 24.0035 8.95639 20.6173 10.3674C20.5486 10.4018 20.4111 10.4448 20.2736 10.4448ZM16.2084 8.42297L16.7413 8.64666C17.9359 9.15427 19.0704 9.62746 20.222 10.0921C20.2564 10.1093 20.3681 10.0921 20.4798 10.049C23.866 8.63805 27.3038 7.20126 30.6298 5.80749L30.7415 5.76447C30.3806 5.61821 30.0282 5.47195 29.6672 5.3343C28.7046 4.94714 27.7077 4.54277 26.7279 4.14701C26.5561 4.07818 26.4271 4.07818 26.2467 4.15561C23.8746 5.17083 21.4682 6.19465 19.1305 7.18406L17.2312 7.99279C16.9218 8.12184 16.621 8.2509 16.2858 8.39716L16.2084 8.42297ZM14.2575 7.90675C14.1802 7.90675 14.1028 7.89815 14.0341 7.86374C12.8051 7.36473 11.5675 6.84852 10.3729 6.34951L9.57358 6.01398C9.53061 5.99677 9.48764 5.97096 9.43607 5.94515C9.41029 5.92794 9.37591 5.91073 9.33294 5.89353L8.99776 5.72146L9.90017 5.3515C10.2783 5.19664 10.6479 5.05038 11.0088 4.90412L11.2495 4.80948C14.12 3.65661 17.0851 2.46071 20.0071 1.29924C20.1447 1.24761 20.3595 1.2218 20.5228 1.28203C21.7174 1.75522 22.9292 2.24562 24.0981 2.71022L24.8286 3.00274C24.863 3.01994 24.8973 3.03715 24.9489 3.06296C24.9747 3.08017 25.0005 3.08877 25.0434 3.11458L25.3786 3.27805L23.1785 4.20723C21.8206 4.78367 20.4884 5.3515 19.1563 5.91934L18.0304 6.39253C16.9132 6.86573 15.7529 7.35613 14.6099 7.83793C14.5153 7.87234 14.3864 7.90675 14.2575 7.90675ZM9.84001 5.75587L10.5018 6.03118C11.6964 6.53019 12.9426 7.0464 14.163 7.54541C14.2317 7.57122 14.3692 7.56261 14.481 7.51099C15.624 7.0378 16.7757 6.5474 17.8929 6.0656L19.0188 5.5838C20.3509 5.01596 21.6831 4.45673 23.041 3.8803L24.5364 3.24364L23.9692 3.01994C22.8089 2.56396 21.5971 2.07355 20.4025 1.60896C20.3337 1.58315 20.222 1.59176 20.1361 1.62617C17.214 2.78765 14.2489 3.97494 11.3784 5.12781L11.1378 5.22245C10.7768 5.36871 10.4072 5.51497 10.0291 5.66983L9.84001 5.75587Z" fill="#5C9EFF"/>
</svg>
