<svg width="30" height="26" viewBox="0 0 30 26" fill="none" xmlns="http://www.w3.org/2000/svg">
<path d="M13.8626 1.87108C8.04911 1.87108 3.03577 5.99678 2.0231 11.7352C1.21046 16.3485 2.71071 20.2242 6.14879 23.3622C6.66137 23.8373 6.67388 23.8498 6.03627 24.6374C5.69871 25.0625 5.41116 24.8249 5.13612 24.5999C3.11078 22.9371 1.57302 20.8993 0.785389 18.3989C-0.789875 13.4605 -0.0272475 8.88476 3.36082 4.88409C6.2488 1.44601 10.0494 -0.129251 14.5127 0.00827182C20.3887 0.183301 25.6271 4.30899 27.2773 9.99745C27.4524 10.585 27.7024 10.7726 28.2775 10.7226C28.7151 10.6851 29.1526 10.7226 29.5902 10.7101C29.9653 10.7101 30.1153 10.8351 29.9028 11.1976C28.8776 12.9854 27.8399 14.7607 26.8022 16.5485C26.6272 16.8486 26.4647 16.7986 26.3147 16.5235C25.2895 14.7607 24.2643 12.9979 23.2392 11.2227C23.0141 10.8351 23.1641 10.6976 23.5642 10.6976C24.0018 10.7101 24.4394 10.6726 24.8769 10.6976C25.4645 10.7476 25.4895 10.4975 25.327 10.035C24.8144 8.58471 24.0768 7.25949 23.0766 6.09679C20.7262 3.34633 17.4882 1.87108 13.8626 1.87108Z" fill="#5C9EFF"/>
<path d="M13.9621 16.6861C13.7246 16.6861 13.512 16.5986 13.312 16.4861C11.1991 15.3234 9.07379 14.1607 6.96094 12.998C6.84842 12.9355 6.7484 12.873 6.64839 12.798C6.19831 12.4729 6.04828 11.9728 6.31083 11.5478C6.59838 11.0727 7.04845 10.9852 7.51103 11.2102C8.38618 11.6478 9.24882 12.1228 10.099 12.5854C11.1991 13.1855 12.2993 13.7731 13.387 14.3857C13.7121 14.5608 13.9371 14.5483 14.2122 14.2857C16.3625 12.2854 18.5129 10.2975 20.6757 8.29721C20.8383 8.14718 21.0133 7.98465 21.1883 7.84713C21.6509 7.50957 22.126 7.55958 22.476 7.94715C22.8136 8.30971 22.8011 8.8473 22.401 9.23486C21.4759 10.135 20.5257 11.0102 19.5881 11.8978C18.0503 13.323 16.4875 14.7483 14.9498 16.1735C14.6622 16.4361 14.3622 16.6611 13.9621 16.6861Z" fill="#5C9EFF"/>
<path d="M19.4385 24.0873C20.3887 24.0873 21.1388 24.1124 21.8764 24.0748C22.5515 24.0498 22.464 24.4999 22.464 24.9125C22.464 25.3251 22.5515 25.7751 21.8764 25.7626C20.4762 25.7376 19.0884 25.7626 17.6882 25.7501C17.3757 25.7501 16.9256 25.9127 16.8256 25.4876C16.7131 25.0375 16.6255 24.5249 16.9881 24.1124C17.2881 23.7623 17.6257 23.4622 17.9508 23.1247C18.5634 22.4746 19.176 21.8245 19.8011 21.1744C20.0136 20.9493 20.1761 20.6743 20.3011 20.3867C20.4887 19.9992 20.4262 19.6491 20.1136 19.3616C19.8011 19.074 19.4385 19.049 19.0759 19.249C18.9134 19.3366 18.7634 19.4616 18.6134 19.5741C18.3883 19.7366 18.3008 20.1742 17.9633 20.0492C17.5632 19.8991 17.2006 19.6366 16.8381 19.3991C16.6505 19.274 16.7756 19.099 16.8631 18.9615C17.7632 17.3487 20.1761 16.9612 21.5264 18.1989C22.4015 18.999 22.514 20.3117 21.8139 21.3994C21.4388 21.9745 20.9388 22.4621 20.4637 22.9622C20.1386 23.2872 19.8636 23.6123 19.4385 24.0873Z" fill="#5C9EFF"/>
<path d="M26.6774 17.7112C26.965 17.7612 27.3775 17.5362 27.5401 17.8362C27.7026 18.1238 27.34 18.3863 27.19 18.6489C26.6024 19.674 25.9773 20.6867 25.3897 21.7119C25.3147 21.8494 25.1271 21.9869 25.2772 22.1495C25.3897 22.2745 25.5897 22.212 25.7523 22.1995C25.9523 22.187 26.0273 22.0494 26.0398 21.8619C26.0398 21.8369 26.0398 21.8244 26.0398 21.7994C26.0898 21.4993 25.9023 21.0868 26.2148 20.9368C26.6274 20.7242 27.115 20.8117 27.5651 20.8867C27.9401 20.9493 27.8401 21.3118 27.8401 21.5619C27.8401 21.9619 27.8776 22.2495 28.4027 22.2495C28.9153 22.2495 28.8153 22.6996 28.8028 22.9996C28.7903 23.3372 28.9903 23.8372 28.4027 23.8747C27.9026 23.8998 27.8151 24.1623 27.8526 24.5749C27.8651 24.6749 27.8526 24.7874 27.8526 24.8874C27.8526 25.7876 27.8526 25.7876 26.9525 25.7876C26.0523 25.7876 26.0523 25.7876 26.0523 24.8874C26.0523 23.8998 26.0523 23.8998 25.0521 23.8998C24.527 23.8998 24.0145 23.8747 23.4894 23.8998C22.9643 23.9248 22.8018 23.6872 22.8018 23.1996C22.8018 22.7246 22.9018 22.312 23.1518 21.8994C23.8394 20.8117 24.5145 19.7116 25.1397 18.5864C25.4897 17.9363 25.8898 17.5237 26.6774 17.7112Z" fill="#5C9EFF"/>
</svg>
